<?xml version="1.0" standalone="no"?>
<!DOCTYPE svg PUBLIC "-//W3C//DTD SVG 1.1//EN" "http://www.w3.org/Graphics/SVG/1.1/DTD/svg11.dtd" >
<svg>
<metadata>
Created by FontForge 20120731 at Wed Jan 26 16:49:05 2022
 By ffonts
Aishiteru Lover(c)Abas Creative. 2020. All Rights Reserved
</metadata>
<defs>
<font id="AishiteruLover" horiz-adv-x="0" >
  <font-face 
    font-family="Aishiteru Lover"
    font-weight="400"
    font-stretch="normal"
    units-per-em="1000"
    panose-1="0 0 0 0 0 0 0 0 0 0"
    ascent="800"
    descent="-200"
    x-height="109"
    cap-height="483"
    bbox="-160 -618 1500 579"
    underline-thickness="50"
    underline-position="-75"
    unicode-range="U+000A-00A0"
  />
<missing-glyph horiz-adv-x="527" 
 />
    <glyph glyph-name=".notdef" horiz-adv-x="527" 
 />
    <glyph glyph-name="glyph1" 
 />
    <glyph glyph-name="glyph1" 
 />
    <glyph glyph-name="uni000A" unicode="&#xa;" 
 />
    <glyph glyph-name="glyph3" 
 />
    <glyph glyph-name="space" unicode=" " horiz-adv-x="210" 
 />
    <glyph glyph-name="A" unicode="A" horiz-adv-x="1053" 
d="M765 86q2 0 2 1.5v2.5q0 16 7 85t15 134l6 53q-1 -1 -6 -12q-2 -6 -5 -13q-19 -48 -44 -104t-47 -100q-7 -12 -13 -27zM896 -378l-12 1q-88 16 -114 241q-6 52 -6 105l1 37v66q-44 11 -66 15l-20 5l-7 1q-108 -203 -198 -314q-45 -54 -101 -96q-71 -50 -134 -50
q-34 0 -64 15q-65 35 -94 119q-15 44 -16 90l-1 21q0 97 46.5 185.5t124.5 140.5q45 29 96 39q20 4 40 4q19 0 39 -4q53 -13 81 -53q23 -35 23 -76q0 -72 -60 -134q-40 -41 -93 -59q-34 -10 -67 -10q-29 0 -51 8q-11 5 -18 13t-7 13t8 6q2 0 4 -1.5t5 -5.5q13 -19 49 -22h8
q55 0 108 35q44 30 67 72t23 83q0 49 -33 86q-37 35 -89 35q-46 0 -99 -28q-37 -21 -67 -52q-53 -53 -83 -127t-30 -149v-13q14 -178 129 -215q11 -3 24 -3q88 0 205 131q84 99 187 289q9 15 16 31q-11 2 -20 2h-8q-11 0 -22 -2q-24 -6 -44 -25q-11 -10 -16 -10q-2 0 -3 2v3
q0 10 18.5 24t40.5 19q16 2 32 2l20 -1l9 -1q37 73 64.5 132t55.5 130l2 6q12 27 17.5 42t8 23.5t3.5 18.5q4 25 11 33t23 8q24 0 27 -16q0 -16 -3 -32q-3 -19 -8.5 -66t-11.5 -96t-8 -73q-3 -27 -6 -64t-5 -61l-1 -17q36 0 57 6t48 32l1 1l9 7.5t5 3.5t4 1q7 0 7 -4
q0 -3 -3 -8q-9 -15 -28 -28t-40 -19q-26 -6 -53 -7h-8q0 -18 -1 -29q0 -13 -0.5 -24.5t-0.5 -31.5q0 -145 29 -253q12 -45 28 -61t26 -16l5 1q27 14 48 57.5t43 110.5q30 86 47 155v1l1 1q0 1 1 3q1 4 3 9t5.5 9.5t7.5 4.5q2 0 3 -0.5t2 -1.5l1 -3v-2l-11 -52
q-23 -95 -57 -188q-26 -70 -51 -100.5t-58 -30.5z" />
    <glyph glyph-name="A" unicode="&#xc5;" horiz-adv-x="1053" 
d="M765 86q2 0 2 1.5v2.5q0 16 7 85t15 134l6 53q-1 -1 -6 -12q-2 -6 -5 -13q-19 -48 -44 -104t-47 -100q-7 -12 -13 -27zM896 -378l-12 1q-88 16 -114 241q-6 52 -6 105l1 37v66q-44 11 -66 15l-20 5l-7 1q-108 -203 -198 -314q-45 -54 -101 -96q-71 -50 -134 -50
q-34 0 -64 15q-65 35 -94 119q-15 44 -16 90l-1 21q0 97 46.5 185.5t124.5 140.5q45 29 96 39q20 4 40 4q19 0 39 -4q53 -13 81 -53q23 -35 23 -76q0 -72 -60 -134q-40 -41 -93 -59q-34 -10 -67 -10q-29 0 -51 8q-11 5 -18 13t-7 13t8 6q2 0 4 -1.5t5 -5.5q13 -19 49 -22h8
q55 0 108 35q44 30 67 72t23 83q0 49 -33 86q-37 35 -89 35q-46 0 -99 -28q-37 -21 -67 -52q-53 -53 -83 -127t-30 -149v-13q14 -178 129 -215q11 -3 24 -3q88 0 205 131q84 99 187 289q9 15 16 31q-11 2 -20 2h-8q-11 0 -22 -2q-24 -6 -44 -25q-11 -10 -16 -10q-2 0 -3 2v3
q0 10 18.5 24t40.5 19q16 2 32 2l20 -1l9 -1q37 73 64.5 132t55.5 130l2 6q12 27 17.5 42t8 23.5t3.5 18.5q4 25 11 33t23 8q24 0 27 -16q0 -16 -3 -32q-3 -19 -8.5 -66t-11.5 -96t-8 -73q-3 -27 -6 -64t-5 -61l-1 -17q36 0 57 6t48 32l1 1l9 7.5t5 3.5t4 1q7 0 7 -4
q0 -3 -3 -8q-9 -15 -28 -28t-40 -19q-26 -6 -53 -7h-8q0 -18 -1 -29q0 -13 -0.5 -24.5t-0.5 -31.5q0 -145 29 -253q12 -45 28 -61t26 -16l5 1q27 14 48 57.5t43 110.5q30 86 47 155v1l1 1q0 1 1 3q1 4 3 9t5.5 9.5t7.5 4.5q2 0 3 -0.5t2 -1.5l1 -3v-2l-11 -52
q-23 -95 -57 -188q-26 -70 -51 -100.5t-58 -30.5z" />
    <glyph glyph-name="A" unicode="&#xc4;" horiz-adv-x="1053" 
d="M765 86q2 0 2 1.5v2.5q0 16 7 85t15 134l6 53q-1 -1 -6 -12q-2 -6 -5 -13q-19 -48 -44 -104t-47 -100q-7 -12 -13 -27zM896 -378l-12 1q-88 16 -114 241q-6 52 -6 105l1 37v66q-44 11 -66 15l-20 5l-7 1q-108 -203 -198 -314q-45 -54 -101 -96q-71 -50 -134 -50
q-34 0 -64 15q-65 35 -94 119q-15 44 -16 90l-1 21q0 97 46.5 185.5t124.5 140.5q45 29 96 39q20 4 40 4q19 0 39 -4q53 -13 81 -53q23 -35 23 -76q0 -72 -60 -134q-40 -41 -93 -59q-34 -10 -67 -10q-29 0 -51 8q-11 5 -18 13t-7 13t8 6q2 0 4 -1.5t5 -5.5q13 -19 49 -22h8
q55 0 108 35q44 30 67 72t23 83q0 49 -33 86q-37 35 -89 35q-46 0 -99 -28q-37 -21 -67 -52q-53 -53 -83 -127t-30 -149v-13q14 -178 129 -215q11 -3 24 -3q88 0 205 131q84 99 187 289q9 15 16 31q-11 2 -20 2h-8q-11 0 -22 -2q-24 -6 -44 -25q-11 -10 -16 -10q-2 0 -3 2v3
q0 10 18.5 24t40.5 19q16 2 32 2l20 -1l9 -1q37 73 64.5 132t55.5 130l2 6q12 27 17.5 42t8 23.5t3.5 18.5q4 25 11 33t23 8q24 0 27 -16q0 -16 -3 -32q-3 -19 -8.5 -66t-11.5 -96t-8 -73q-3 -27 -6 -64t-5 -61l-1 -17q36 0 57 6t48 32l1 1l9 7.5t5 3.5t4 1q7 0 7 -4
q0 -3 -3 -8q-9 -15 -28 -28t-40 -19q-26 -6 -53 -7h-8q0 -18 -1 -29q0 -13 -0.5 -24.5t-0.5 -31.5q0 -145 29 -253q12 -45 28 -61t26 -16l5 1q27 14 48 57.5t43 110.5q30 86 47 155v1l1 1q0 1 1 3q1 4 3 9t5.5 9.5t7.5 4.5q2 0 3 -0.5t2 -1.5l1 -3v-2l-11 -52
q-23 -95 -57 -188q-26 -70 -51 -100.5t-58 -30.5z" />
    <glyph glyph-name="A" unicode="&#xc3;" horiz-adv-x="1053" 
d="M765 86q2 0 2 1.5v2.5q0 16 7 85t15 134l6 53q-1 -1 -6 -12q-2 -6 -5 -13q-19 -48 -44 -104t-47 -100q-7 -12 -13 -27zM896 -378l-12 1q-88 16 -114 241q-6 52 -6 105l1 37v66q-44 11 -66 15l-20 5l-7 1q-108 -203 -198 -314q-45 -54 -101 -96q-71 -50 -134 -50
q-34 0 -64 15q-65 35 -94 119q-15 44 -16 90l-1 21q0 97 46.5 185.5t124.5 140.5q45 29 96 39q20 4 40 4q19 0 39 -4q53 -13 81 -53q23 -35 23 -76q0 -72 -60 -134q-40 -41 -93 -59q-34 -10 -67 -10q-29 0 -51 8q-11 5 -18 13t-7 13t8 6q2 0 4 -1.5t5 -5.5q13 -19 49 -22h8
q55 0 108 35q44 30 67 72t23 83q0 49 -33 86q-37 35 -89 35q-46 0 -99 -28q-37 -21 -67 -52q-53 -53 -83 -127t-30 -149v-13q14 -178 129 -215q11 -3 24 -3q88 0 205 131q84 99 187 289q9 15 16 31q-11 2 -20 2h-8q-11 0 -22 -2q-24 -6 -44 -25q-11 -10 -16 -10q-2 0 -3 2v3
q0 10 18.5 24t40.5 19q16 2 32 2l20 -1l9 -1q37 73 64.5 132t55.5 130l2 6q12 27 17.5 42t8 23.5t3.5 18.5q4 25 11 33t23 8q24 0 27 -16q0 -16 -3 -32q-3 -19 -8.5 -66t-11.5 -96t-8 -73q-3 -27 -6 -64t-5 -61l-1 -17q36 0 57 6t48 32l1 1l9 7.5t5 3.5t4 1q7 0 7 -4
q0 -3 -3 -8q-9 -15 -28 -28t-40 -19q-26 -6 -53 -7h-8q0 -18 -1 -29q0 -13 -0.5 -24.5t-0.5 -31.5q0 -145 29 -253q12 -45 28 -61t26 -16l5 1q27 14 48 57.5t43 110.5q30 86 47 155v1l1 1q0 1 1 3q1 4 3 9t5.5 9.5t7.5 4.5q2 0 3 -0.5t2 -1.5l1 -3v-2l-11 -52
q-23 -95 -57 -188q-26 -70 -51 -100.5t-58 -30.5z" />
    <glyph glyph-name="A" unicode="&#xc2;" horiz-adv-x="1053" 
d="M765 86q2 0 2 1.5v2.5q0 16 7 85t15 134l6 53q-1 -1 -6 -12q-2 -6 -5 -13q-19 -48 -44 -104t-47 -100q-7 -12 -13 -27zM896 -378l-12 1q-88 16 -114 241q-6 52 -6 105l1 37v66q-44 11 -66 15l-20 5l-7 1q-108 -203 -198 -314q-45 -54 -101 -96q-71 -50 -134 -50
q-34 0 -64 15q-65 35 -94 119q-15 44 -16 90l-1 21q0 97 46.5 185.5t124.5 140.5q45 29 96 39q20 4 40 4q19 0 39 -4q53 -13 81 -53q23 -35 23 -76q0 -72 -60 -134q-40 -41 -93 -59q-34 -10 -67 -10q-29 0 -51 8q-11 5 -18 13t-7 13t8 6q2 0 4 -1.5t5 -5.5q13 -19 49 -22h8
q55 0 108 35q44 30 67 72t23 83q0 49 -33 86q-37 35 -89 35q-46 0 -99 -28q-37 -21 -67 -52q-53 -53 -83 -127t-30 -149v-13q14 -178 129 -215q11 -3 24 -3q88 0 205 131q84 99 187 289q9 15 16 31q-11 2 -20 2h-8q-11 0 -22 -2q-24 -6 -44 -25q-11 -10 -16 -10q-2 0 -3 2v3
q0 10 18.5 24t40.5 19q16 2 32 2l20 -1l9 -1q37 73 64.5 132t55.5 130l2 6q12 27 17.5 42t8 23.5t3.5 18.5q4 25 11 33t23 8q24 0 27 -16q0 -16 -3 -32q-3 -19 -8.5 -66t-11.5 -96t-8 -73q-3 -27 -6 -64t-5 -61l-1 -17q36 0 57 6t48 32l1 1l9 7.5t5 3.5t4 1q7 0 7 -4
q0 -3 -3 -8q-9 -15 -28 -28t-40 -19q-26 -6 -53 -7h-8q0 -18 -1 -29q0 -13 -0.5 -24.5t-0.5 -31.5q0 -145 29 -253q12 -45 28 -61t26 -16l5 1q27 14 48 57.5t43 110.5q30 86 47 155v1l1 1q0 1 1 3q1 4 3 9t5.5 9.5t7.5 4.5q2 0 3 -0.5t2 -1.5l1 -3v-2l-11 -52
q-23 -95 -57 -188q-26 -70 -51 -100.5t-58 -30.5z" />
    <glyph glyph-name="A" unicode="&#xc1;" horiz-adv-x="1053" 
d="M765 86q2 0 2 1.5v2.5q0 16 7 85t15 134l6 53q-1 -1 -6 -12q-2 -6 -5 -13q-19 -48 -44 -104t-47 -100q-7 -12 -13 -27zM896 -378l-12 1q-88 16 -114 241q-6 52 -6 105l1 37v66q-44 11 -66 15l-20 5l-7 1q-108 -203 -198 -314q-45 -54 -101 -96q-71 -50 -134 -50
q-34 0 -64 15q-65 35 -94 119q-15 44 -16 90l-1 21q0 97 46.5 185.5t124.5 140.5q45 29 96 39q20 4 40 4q19 0 39 -4q53 -13 81 -53q23 -35 23 -76q0 -72 -60 -134q-40 -41 -93 -59q-34 -10 -67 -10q-29 0 -51 8q-11 5 -18 13t-7 13t8 6q2 0 4 -1.5t5 -5.5q13 -19 49 -22h8
q55 0 108 35q44 30 67 72t23 83q0 49 -33 86q-37 35 -89 35q-46 0 -99 -28q-37 -21 -67 -52q-53 -53 -83 -127t-30 -149v-13q14 -178 129 -215q11 -3 24 -3q88 0 205 131q84 99 187 289q9 15 16 31q-11 2 -20 2h-8q-11 0 -22 -2q-24 -6 -44 -25q-11 -10 -16 -10q-2 0 -3 2v3
q0 10 18.5 24t40.5 19q16 2 32 2l20 -1l9 -1q37 73 64.5 132t55.5 130l2 6q12 27 17.5 42t8 23.5t3.5 18.5q4 25 11 33t23 8q24 0 27 -16q0 -16 -3 -32q-3 -19 -8.5 -66t-11.5 -96t-8 -73q-3 -27 -6 -64t-5 -61l-1 -17q36 0 57 6t48 32l1 1l9 7.5t5 3.5t4 1q7 0 7 -4
q0 -3 -3 -8q-9 -15 -28 -28t-40 -19q-26 -6 -53 -7h-8q0 -18 -1 -29q0 -13 -0.5 -24.5t-0.5 -31.5q0 -145 29 -253q12 -45 28 -61t26 -16l5 1q27 14 48 57.5t43 110.5q30 86 47 155v1l1 1q0 1 1 3q1 4 3 9t5.5 9.5t7.5 4.5q2 0 3 -0.5t2 -1.5l1 -3v-2l-11 -52
q-23 -95 -57 -188q-26 -70 -51 -100.5t-58 -30.5z" />
    <glyph glyph-name="A" unicode="&#xc0;" horiz-adv-x="1053" 
d="M765 86q2 0 2 1.5v2.5q0 16 7 85t15 134l6 53q-1 -1 -6 -12q-2 -6 -5 -13q-19 -48 -44 -104t-47 -100q-7 -12 -13 -27zM896 -378l-12 1q-88 16 -114 241q-6 52 -6 105l1 37v66q-44 11 -66 15l-20 5l-7 1q-108 -203 -198 -314q-45 -54 -101 -96q-71 -50 -134 -50
q-34 0 -64 15q-65 35 -94 119q-15 44 -16 90l-1 21q0 97 46.5 185.5t124.5 140.5q45 29 96 39q20 4 40 4q19 0 39 -4q53 -13 81 -53q23 -35 23 -76q0 -72 -60 -134q-40 -41 -93 -59q-34 -10 -67 -10q-29 0 -51 8q-11 5 -18 13t-7 13t8 6q2 0 4 -1.5t5 -5.5q13 -19 49 -22h8
q55 0 108 35q44 30 67 72t23 83q0 49 -33 86q-37 35 -89 35q-46 0 -99 -28q-37 -21 -67 -52q-53 -53 -83 -127t-30 -149v-13q14 -178 129 -215q11 -3 24 -3q88 0 205 131q84 99 187 289q9 15 16 31q-11 2 -20 2h-8q-11 0 -22 -2q-24 -6 -44 -25q-11 -10 -16 -10q-2 0 -3 2v3
q0 10 18.5 24t40.5 19q16 2 32 2l20 -1l9 -1q37 73 64.5 132t55.5 130l2 6q12 27 17.5 42t8 23.5t3.5 18.5q4 25 11 33t23 8q24 0 27 -16q0 -16 -3 -32q-3 -19 -8.5 -66t-11.5 -96t-8 -73q-3 -27 -6 -64t-5 -61l-1 -17q36 0 57 6t48 32l1 1l9 7.5t5 3.5t4 1q7 0 7 -4
q0 -3 -3 -8q-9 -15 -28 -28t-40 -19q-26 -6 -53 -7h-8q0 -18 -1 -29q0 -13 -0.5 -24.5t-0.5 -31.5q0 -145 29 -253q12 -45 28 -61t26 -16l5 1q27 14 48 57.5t43 110.5q30 86 47 155v1l1 1q0 1 1 3q1 4 3 9t5.5 9.5t7.5 4.5q2 0 3 -0.5t2 -1.5l1 -3v-2l-11 -52
q-23 -95 -57 -188q-26 -70 -51 -100.5t-58 -30.5z" />
    <glyph glyph-name="B" unicode="B" horiz-adv-x="1177" 
d="M691 -363q12 0 25 2q35 8 68 21q103 44 160 140l10 17q-4 1 -9 1q-32 4 -57.5 9.5t-58.5 17.5q-20 6 -33 8.5t-26 2.5h-10q-57 -1 -102 -51q-26 -27 -38 -63q-4 -18 -4 -36l1 -18q14 -51 74 -51zM696 -389l-29 2q-35 4 -59.5 25t-24.5 55q0 8 1 16q10 59 52 102
q54 58 129 58h11q15 0 29 -3t39 -11q50 -18 102 -23l15 -2q10 21 15.5 39t10.5 40q2 9 2.5 16t0.5 19v19q0 22 -0.5 31.5t-2.5 17.5q-22 91 -105 113q-21 3 -42 3l-32 1q-84 -65 -130 -65q-5 0 -9 1q-9 3 -9 7l6 12q0 3 6.5 9.5t15.5 12.5q19 11 40 19q19 7 62 50
q47 44 86.5 100.5t48.5 121.5l1 16q0 28 -13.5 56.5t-45.5 28.5q-36 0 -70 -22.5t-62 -54t-47 -59.5q-87 -122 -133 -335q-11 -54 -16 -108q-5 -56 -8.5 -104t-6.5 -112q-1 -16 -1.5 -26t-1 -15t-1.5 -7l-2 -4q-13 -16 -31 -16h-3q-3 0 -6.5 1t-5.5 3q-4 3 -5.5 8.5
t-1.5 18.5v17q1 28 3 70t4 69q1 6 1 13q5 57 14 140q16 149 16 246q0 59 -6 97q-13 84 -54 120q-31 30 -73 30h-11q-46 0 -89 -23q-85 -45 -134 -123.5t-49 -163.5q0 -39 12 -77q10 -30 28 -55q56 -65 129 -65q22 0 44 7q20 7 38 18q42 28 59 76q6 21 6 42q0 30 -12 59l-3 6
t-1 4l2 2q3 2 6 2q8 0 18 -17q14 -28 14 -57q0 -40 -24 -76.5t-68 -58.5q-41 -20 -85 -20l-26 2q-125 22 -155 153q-5 30 -5 59l1 28q16 111 94 192q84 86 184 101q14 2 27 2q42 0 80 -18q49 -27 74 -76q19 -38 30 -110q6 -50 6 -103v-36q37 110 82 189t112 131
q25 20 55 34.5t60 14.5q36 0 68 -30q16 -17 23 -39.5t7 -45.5q0 -20 -4 -39q-18 -91 -114 -189l-22 -23q9 0 17 -1q22 0 40 -2t42 -10q58 -20 90 -68.5t32 -115.5v-11q-1 -36 -14 -73q-3 -8 -5 -18h1q6 0 42 27t96 111q5 7 8.5 11t5.5 5t4 1q5 0 5 -5q0 -6 -13 -23
q-85 -124 -144 -141q-5 -2 -8 -3l-4.5 -1.5t-2.5 -2t-2 -3.5l-5 -10q-29 -54 -73 -98q-51 -48 -116 -75.5t-127 -27.5z" />
    <glyph glyph-name="C" unicode="C" horiz-adv-x="1148" 
d="M879 261q29 0 59 2q90 8 129 35q42 28 42 68q0 32 -27.5 63.5t-68.5 46.5q-31 12 -64 12q-42 0 -82 -20q-78 -39 -137 -125q-11 -18 -20.5 -35t-9.5 -20q2 -2 18.5 -5.5t37.5 -7.5t38 -7l63 -7h22zM770 -373l-16 1q-51 6 -89 43.5t-58 83.5q-45 105 -45 220q0 154 67 295
q6 9 8 20q0 1 -7 3.5t-17 5.5q-29 10 -60.5 23t-92.5 41q-127 59 -198 59l-24 -2q-70 -10 -110 -64t-40 -134q0 -27 5 -56q7 -39 25 -74q33 -69 98 -106q37 -20 69 -20q41 0 75 31q42 38 52 114q3 28 3 56q0 27 -3 55q-3 27 -11 52l-1 4q0 5 6 5q5 0 10 -6q5 -10 11 -33.5
t9 -49.5l1 -33q0 -35 -5 -71q-15 -71 -60 -107q-41 -30 -85 -30q-51 0 -98.5 31t-75.5 75q-49 80 -49 166q0 65 31.5 120t99.5 79q31 10 67 10q43 0 91 -14q26 -7 59 -20t89 -38q74 -33 118 -49q3 -1 5 -2q14 -6 19 -6q3 0 5 2.5t5 6.5q1 3 3 5q88 146 226 183q30 6 60 7
q43 -1 82 -14q26 -9 49 -24q41 -30 58 -78q3 -12 3 -24t-3 -24q-34 -93 -243 -97q-90 0 -179 23l-15 3l-3 -1q-19 -42 -34 -87q-21 -68 -29 -137q-2 -31 -2 -62t2 -62q8 -87 30 -150q20 -53 59 -93q25 -26 68 -26t101.5 31t124 100.5t131.5 182.5l1 2q1 3 4 9.5t8 12.5t11 6
q1 0 2.5 -2t1.5 -6q0 -11 -13 -37q-22 -41 -60 -96t-89 -108t-111.5 -88.5t-126.5 -35.5z" />
    <glyph glyph-name="C" unicode="&#xc7;" horiz-adv-x="1148" 
d="M879 261q29 0 59 2q90 8 129 35q42 28 42 68q0 32 -27.5 63.5t-68.5 46.5q-31 12 -64 12q-42 0 -82 -20q-78 -39 -137 -125q-11 -18 -20.5 -35t-9.5 -20q2 -2 18.5 -5.5t37.5 -7.5t38 -7l63 -7h22zM770 -373l-16 1q-51 6 -89 43.5t-58 83.5q-45 105 -45 220q0 154 67 295
q6 9 8 20q0 1 -7 3.5t-17 5.5q-29 10 -60.5 23t-92.5 41q-127 59 -198 59l-24 -2q-70 -10 -110 -64t-40 -134q0 -27 5 -56q7 -39 25 -74q33 -69 98 -106q37 -20 69 -20q41 0 75 31q42 38 52 114q3 28 3 56q0 27 -3 55q-3 27 -11 52l-1 4q0 5 6 5q5 0 10 -6q5 -10 11 -33.5
t9 -49.5l1 -33q0 -35 -5 -71q-15 -71 -60 -107q-41 -30 -85 -30q-51 0 -98.5 31t-75.5 75q-49 80 -49 166q0 65 31.5 120t99.5 79q31 10 67 10q43 0 91 -14q26 -7 59 -20t89 -38q74 -33 118 -49q3 -1 5 -2q14 -6 19 -6q3 0 5 2.5t5 6.5q1 3 3 5q88 146 226 183q30 6 60 7
q43 -1 82 -14q26 -9 49 -24q41 -30 58 -78q3 -12 3 -24t-3 -24q-34 -93 -243 -97q-90 0 -179 23l-15 3l-3 -1q-19 -42 -34 -87q-21 -68 -29 -137q-2 -31 -2 -62t2 -62q8 -87 30 -150q20 -53 59 -93q25 -26 68 -26t101.5 31t124 100.5t131.5 182.5l1 2q1 3 4 9.5t8 12.5t11 6
q1 0 2.5 -2t1.5 -6q0 -11 -13 -37q-22 -41 -60 -96t-89 -108t-111.5 -88.5t-126.5 -35.5z" />
    <glyph glyph-name="D" unicode="D" horiz-adv-x="1348" 
d="M827 -402q46 0 88 24q81 46 127 126q50 83 81 174l7 21q-75 0 -137 -7t-113 -26l-9 -3q-49 -20 -90.5 -55.5t-58.5 -85.5q-7 -23 -7 -46q0 -34 15 -64.5t46 -46.5q25 -11 51 -11zM834 -423q-44 0 -81 18.5t-56 63.5q-9 24 -9 49q0 57 34 107q60 87 192 120q94 21 188 21
h32q3 11 5 21q10 35 17 75q14 78 14 140q0 55 -11 101q-38 171 -152 197q-19 4 -39 4q-17 0 -35 -3q-116 -26 -214 -148q-21 -27 -44 -68.5t-39 -83.5q-15 -39 -27.5 -81t-16.5 -64q-2 -10 -9 -147q-1 -31 -3 -69q-3 -59 -8.5 -114t-11.5 -69q-2 -6 -8.5 -9t-12.5 -3
q-5 0 -10 2q-2 1 -3.5 3t-2.5 7t-1.5 15.5t-0.5 29.5v48q0 61 1 95t4 95q0 8 1 16q5 99 7 142t2 75v32q-1 53 -4 81.5t-12 61.5q-16 66 -57 104q-41 39 -98 39q-14 0 -29 -2q-71 -13 -133 -71.5t-94 -144.5q-22 -63 -22 -125q0 -49 14 -94q25 -72 81 -103q28 -13 57 -13
q17 0 34 4q99 33 131 162q3 11 3.5 20t1.5 26v4q0 25 -2 38t-8 28l-4 11q0 4 6 4q5 0 8.5 -3.5t7.5 -11.5q13 -31 13 -70q0 -41 -14 -83q-12 -31 -30 -60q-24 -29 -54 -53q-46 -30 -92 -30l-16 1q-30 3 -58 16q-91 47 -101 183l-1 24q0 105 57 199q35 56 86 98q85 64 168 64
l19 -1q128 -14 175 -155q23 -76 24 -156l1 -37l1 -1q1 0 9 21q44 123 111 199q94 107 206 134q25 6 50 6q54 0 104 -25q63 -32 102 -110q48 -96 48 -216q0 -84 -24 -176l-7 -24q46 5 80 12t67 23q8 4 12.5 5t6.5 1l6 -1l1 -2l-1 -4q-9 -8 -41 -20q-56 -19 -113 -25l-22 -3
q-14 -42 -25.5 -71.5t-31.5 -70.5q-26 -56 -62.5 -104.5t-90.5 -80.5q-68 -40 -146 -40z" />
    <glyph glyph-name="E" unicode="E" horiz-adv-x="1063" 
d="M683 111q1 -1 7 -2l6 -2q14 -3 28 -3q13 0 27 3q9 3 15.5 7.5t6.5 8.5q0 2 -3 3q-10 2 -20 2t-20 -2q-9 -1 -20 -4t-19.5 -5.5t-8.5 -4.5zM879 324q28 0 55 5q29 6 50 26q20 18 21 38v4q0 26 -23.5 51t-59.5 35q-28 8 -57 8q-14 0 -28 -2q-63 -12 -116 -49
q-6 -4 -15.5 -13t-20 -18.5t-17.5 -17t-7 -8.5t0.5 -1.5t2.5 -1.5t6 -2.5t11 -4t18 -6.5q2 0 4 -1q69 -27 143 -40zM631 -442h-12q-90 7 -136.5 71t-52.5 149l-1 22q0 105 62 208q45 66 116 101q1 1 3 1l10 6l-11 9q-57 40 -57 130q0 66 38 118l10 16q-23 9 -42 17
q-59 24 -93 35.5t-72 19.5q-51 10 -98 10q-25 0 -45 -3q-130 -24 -159 -147q-3 -17 -3 -34q0 -23 5 -45q11 -39 40 -71.5t64 -46.5q15 -6 30 -6q26 0 49 14q29 21 48 49q44 58 44 166q0 16 0.5 23.5t1.5 9.5t4 2q15 0 16 -49v-14q0 -43 -14 -83q-30 -86 -94 -119
q-24 -12 -53 -12h-5q-26 0 -51 13q-27 12 -50 35q-59 61 -59 134q0 44 22 88q45 87 156 106q28 4 56 4l37 -2q53 -4 108 -19.5t139 -50.5l27 -11q11 9 20 19q58 58 135 83q25 9 42.5 11.5t48.5 2.5h25.5t15 -1t15.5 -3q63 -12 94 -45q31 -31 31 -63l-1 -10q-3 -23 -22 -41
q-36 -41 -107 -44l-18 -1q-81 0 -214 50l-23 8q-1 0 -5 -5.5t-9 -14t-9 -17.5q-14 -27 -20 -58q-2 -18 -2 -35q0 -21 3 -41q8 -32 30 -56q6 -7 9 -9.5t5 -2.5h1q41 14 81 14q23 0 40 -4t21 -12l2 -6q0 -17 -39 -29q-15 -3 -29 -3h-7q-31 0 -62 9l-5 1q-2 0 -5 -1.5t-9 -5.5
q-46 -30 -81 -74q-57 -79 -70 -177q-2 -24 -2 -49q0 -21 1 -41q5 -50 26 -97q20 -39 50.5 -57t66.5 -18q13 0 27 2q91 25 175 108.5t142 168t72 111.5q5 11 9 17l6 9t3.5 4t2.5 1h3q6 0 6 -3v-1q0 -5 -12.5 -30.5t-28.5 -55t-29 -48.5q-78 -113 -145 -180t-125 -95.5
t-108 -28.5z" />
    <glyph glyph-name="E" unicode="&#xcb;" horiz-adv-x="1063" 
d="M683 111q1 -1 7 -2l6 -2q14 -3 28 -3q13 0 27 3q9 3 15.5 7.5t6.5 8.5q0 2 -3 3q-10 2 -20 2t-20 -2q-9 -1 -20 -4t-19.5 -5.5t-8.5 -4.5zM879 324q28 0 55 5q29 6 50 26q20 18 21 38v4q0 26 -23.5 51t-59.5 35q-28 8 -57 8q-14 0 -28 -2q-63 -12 -116 -49
q-6 -4 -15.5 -13t-20 -18.5t-17.5 -17t-7 -8.5t0.5 -1.5t2.5 -1.5t6 -2.5t11 -4t18 -6.5q2 0 4 -1q69 -27 143 -40zM631 -442h-12q-90 7 -136.5 71t-52.5 149l-1 22q0 105 62 208q45 66 116 101q1 1 3 1l10 6l-11 9q-57 40 -57 130q0 66 38 118l10 16q-23 9 -42 17
q-59 24 -93 35.5t-72 19.5q-51 10 -98 10q-25 0 -45 -3q-130 -24 -159 -147q-3 -17 -3 -34q0 -23 5 -45q11 -39 40 -71.5t64 -46.5q15 -6 30 -6q26 0 49 14q29 21 48 49q44 58 44 166q0 16 0.5 23.5t1.5 9.5t4 2q15 0 16 -49v-14q0 -43 -14 -83q-30 -86 -94 -119
q-24 -12 -53 -12h-5q-26 0 -51 13q-27 12 -50 35q-59 61 -59 134q0 44 22 88q45 87 156 106q28 4 56 4l37 -2q53 -4 108 -19.5t139 -50.5l27 -11q11 9 20 19q58 58 135 83q25 9 42.5 11.5t48.5 2.5h25.5t15 -1t15.5 -3q63 -12 94 -45q31 -31 31 -63l-1 -10q-3 -23 -22 -41
q-36 -41 -107 -44l-18 -1q-81 0 -214 50l-23 8q-1 0 -5 -5.5t-9 -14t-9 -17.5q-14 -27 -20 -58q-2 -18 -2 -35q0 -21 3 -41q8 -32 30 -56q6 -7 9 -9.5t5 -2.5h1q41 14 81 14q23 0 40 -4t21 -12l2 -6q0 -17 -39 -29q-15 -3 -29 -3h-7q-31 0 -62 9l-5 1q-2 0 -5 -1.5t-9 -5.5
q-46 -30 -81 -74q-57 -79 -70 -177q-2 -24 -2 -49q0 -21 1 -41q5 -50 26 -97q20 -39 50.5 -57t66.5 -18q13 0 27 2q91 25 175 108.5t142 168t72 111.5q5 11 9 17l6 9t3.5 4t2.5 1h3q6 0 6 -3v-1q0 -5 -12.5 -30.5t-28.5 -55t-29 -48.5q-78 -113 -145 -180t-125 -95.5
t-108 -28.5z" />
    <glyph glyph-name="E" unicode="&#xca;" horiz-adv-x="1063" 
d="M683 111q1 -1 7 -2l6 -2q14 -3 28 -3q13 0 27 3q9 3 15.5 7.5t6.5 8.5q0 2 -3 3q-10 2 -20 2t-20 -2q-9 -1 -20 -4t-19.5 -5.5t-8.5 -4.5zM879 324q28 0 55 5q29 6 50 26q20 18 21 38v4q0 26 -23.5 51t-59.5 35q-28 8 -57 8q-14 0 -28 -2q-63 -12 -116 -49
q-6 -4 -15.5 -13t-20 -18.5t-17.5 -17t-7 -8.5t0.5 -1.5t2.5 -1.5t6 -2.5t11 -4t18 -6.5q2 0 4 -1q69 -27 143 -40zM631 -442h-12q-90 7 -136.5 71t-52.5 149l-1 22q0 105 62 208q45 66 116 101q1 1 3 1l10 6l-11 9q-57 40 -57 130q0 66 38 118l10 16q-23 9 -42 17
q-59 24 -93 35.5t-72 19.5q-51 10 -98 10q-25 0 -45 -3q-130 -24 -159 -147q-3 -17 -3 -34q0 -23 5 -45q11 -39 40 -71.5t64 -46.5q15 -6 30 -6q26 0 49 14q29 21 48 49q44 58 44 166q0 16 0.5 23.5t1.5 9.5t4 2q15 0 16 -49v-14q0 -43 -14 -83q-30 -86 -94 -119
q-24 -12 -53 -12h-5q-26 0 -51 13q-27 12 -50 35q-59 61 -59 134q0 44 22 88q45 87 156 106q28 4 56 4l37 -2q53 -4 108 -19.5t139 -50.5l27 -11q11 9 20 19q58 58 135 83q25 9 42.5 11.5t48.5 2.5h25.5t15 -1t15.5 -3q63 -12 94 -45q31 -31 31 -63l-1 -10q-3 -23 -22 -41
q-36 -41 -107 -44l-18 -1q-81 0 -214 50l-23 8q-1 0 -5 -5.5t-9 -14t-9 -17.5q-14 -27 -20 -58q-2 -18 -2 -35q0 -21 3 -41q8 -32 30 -56q6 -7 9 -9.5t5 -2.5h1q41 14 81 14q23 0 40 -4t21 -12l2 -6q0 -17 -39 -29q-15 -3 -29 -3h-7q-31 0 -62 9l-5 1q-2 0 -5 -1.5t-9 -5.5
q-46 -30 -81 -74q-57 -79 -70 -177q-2 -24 -2 -49q0 -21 1 -41q5 -50 26 -97q20 -39 50.5 -57t66.5 -18q13 0 27 2q91 25 175 108.5t142 168t72 111.5q5 11 9 17l6 9t3.5 4t2.5 1h3q6 0 6 -3v-1q0 -5 -12.5 -30.5t-28.5 -55t-29 -48.5q-78 -113 -145 -180t-125 -95.5
t-108 -28.5z" />
    <glyph glyph-name="E" unicode="&#xc9;" horiz-adv-x="1063" 
d="M683 111q1 -1 7 -2l6 -2q14 -3 28 -3q13 0 27 3q9 3 15.5 7.5t6.5 8.5q0 2 -3 3q-10 2 -20 2t-20 -2q-9 -1 -20 -4t-19.5 -5.5t-8.5 -4.5zM879 324q28 0 55 5q29 6 50 26q20 18 21 38v4q0 26 -23.5 51t-59.5 35q-28 8 -57 8q-14 0 -28 -2q-63 -12 -116 -49
q-6 -4 -15.5 -13t-20 -18.5t-17.5 -17t-7 -8.5t0.5 -1.5t2.5 -1.5t6 -2.5t11 -4t18 -6.5q2 0 4 -1q69 -27 143 -40zM631 -442h-12q-90 7 -136.5 71t-52.5 149l-1 22q0 105 62 208q45 66 116 101q1 1 3 1l10 6l-11 9q-57 40 -57 130q0 66 38 118l10 16q-23 9 -42 17
q-59 24 -93 35.5t-72 19.5q-51 10 -98 10q-25 0 -45 -3q-130 -24 -159 -147q-3 -17 -3 -34q0 -23 5 -45q11 -39 40 -71.5t64 -46.5q15 -6 30 -6q26 0 49 14q29 21 48 49q44 58 44 166q0 16 0.5 23.5t1.5 9.5t4 2q15 0 16 -49v-14q0 -43 -14 -83q-30 -86 -94 -119
q-24 -12 -53 -12h-5q-26 0 -51 13q-27 12 -50 35q-59 61 -59 134q0 44 22 88q45 87 156 106q28 4 56 4l37 -2q53 -4 108 -19.5t139 -50.5l27 -11q11 9 20 19q58 58 135 83q25 9 42.5 11.5t48.5 2.5h25.5t15 -1t15.5 -3q63 -12 94 -45q31 -31 31 -63l-1 -10q-3 -23 -22 -41
q-36 -41 -107 -44l-18 -1q-81 0 -214 50l-23 8q-1 0 -5 -5.5t-9 -14t-9 -17.5q-14 -27 -20 -58q-2 -18 -2 -35q0 -21 3 -41q8 -32 30 -56q6 -7 9 -9.5t5 -2.5h1q41 14 81 14q23 0 40 -4t21 -12l2 -6q0 -17 -39 -29q-15 -3 -29 -3h-7q-31 0 -62 9l-5 1q-2 0 -5 -1.5t-9 -5.5
q-46 -30 -81 -74q-57 -79 -70 -177q-2 -24 -2 -49q0 -21 1 -41q5 -50 26 -97q20 -39 50.5 -57t66.5 -18q13 0 27 2q91 25 175 108.5t142 168t72 111.5q5 11 9 17l6 9t3.5 4t2.5 1h3q6 0 6 -3v-1q0 -5 -12.5 -30.5t-28.5 -55t-29 -48.5q-78 -113 -145 -180t-125 -95.5
t-108 -28.5z" />
    <glyph glyph-name="E" unicode="&#xc8;" horiz-adv-x="1063" 
d="M683 111q1 -1 7 -2l6 -2q14 -3 28 -3q13 0 27 3q9 3 15.5 7.5t6.5 8.5q0 2 -3 3q-10 2 -20 2t-20 -2q-9 -1 -20 -4t-19.5 -5.5t-8.5 -4.5zM879 324q28 0 55 5q29 6 50 26q20 18 21 38v4q0 26 -23.5 51t-59.5 35q-28 8 -57 8q-14 0 -28 -2q-63 -12 -116 -49
q-6 -4 -15.5 -13t-20 -18.5t-17.5 -17t-7 -8.5t0.5 -1.5t2.5 -1.5t6 -2.5t11 -4t18 -6.5q2 0 4 -1q69 -27 143 -40zM631 -442h-12q-90 7 -136.5 71t-52.5 149l-1 22q0 105 62 208q45 66 116 101q1 1 3 1l10 6l-11 9q-57 40 -57 130q0 66 38 118l10 16q-23 9 -42 17
q-59 24 -93 35.5t-72 19.5q-51 10 -98 10q-25 0 -45 -3q-130 -24 -159 -147q-3 -17 -3 -34q0 -23 5 -45q11 -39 40 -71.5t64 -46.5q15 -6 30 -6q26 0 49 14q29 21 48 49q44 58 44 166q0 16 0.5 23.5t1.5 9.5t4 2q15 0 16 -49v-14q0 -43 -14 -83q-30 -86 -94 -119
q-24 -12 -53 -12h-5q-26 0 -51 13q-27 12 -50 35q-59 61 -59 134q0 44 22 88q45 87 156 106q28 4 56 4l37 -2q53 -4 108 -19.5t139 -50.5l27 -11q11 9 20 19q58 58 135 83q25 9 42.5 11.5t48.5 2.5h25.5t15 -1t15.5 -3q63 -12 94 -45q31 -31 31 -63l-1 -10q-3 -23 -22 -41
q-36 -41 -107 -44l-18 -1q-81 0 -214 50l-23 8q-1 0 -5 -5.5t-9 -14t-9 -17.5q-14 -27 -20 -58q-2 -18 -2 -35q0 -21 3 -41q8 -32 30 -56q6 -7 9 -9.5t5 -2.5h1q41 14 81 14q23 0 40 -4t21 -12l2 -6q0 -17 -39 -29q-15 -3 -29 -3h-7q-31 0 -62 9l-5 1q-2 0 -5 -1.5t-9 -5.5
q-46 -30 -81 -74q-57 -79 -70 -177q-2 -24 -2 -49q0 -21 1 -41q5 -50 26 -97q20 -39 50.5 -57t66.5 -18q13 0 27 2q91 25 175 108.5t142 168t72 111.5q5 11 9 17l6 9t3.5 4t2.5 1h3q6 0 6 -3v-1q0 -5 -12.5 -30.5t-28.5 -55t-29 -48.5q-78 -113 -145 -180t-125 -95.5
t-108 -28.5z" />
    <glyph glyph-name="F" unicode="F" horiz-adv-x="838" 
d="M290 -395h-2q-15 0 -31 2q-65 15 -104 68q-47 74 -47 165q0 75 32 152q20 47 57 84q30 30 56 39q14 5 28 5q33 0 63 -29q23 -22 30 -54q11 -44 11 -97q0 -88 -28 -157q-11 -24 -29 -44q-8 -6 -14 -6q-3 0 -4 2q2 8 6 14q16 28 25 54t15 62q1 10 2 19t1 21.5v34.5v36
t-1 19t-2 16q-6 30 -19 57q-11 18 -27 28.5t-30 10.5h-5q-18 -3 -40.5 -20.5t-41.5 -43.5q-61 -93 -61 -201q5 -148 103 -202q25 -13 49 -13q29 0 56 20q49 39 84 140q18 56 30.5 135t15.5 159v17q-19 4 -32.5 8t-30.5 13q-14 12 -14 21q0 5 5 8l4 1q7 0 11 -9q4 -7 10 -12
q19 -10 40 -15l7 -1q1 14 1 24q1 15 1 30v45q0 49 -2 93l-1 41q0 35 4 40q8 8 21 8q11 0 20 -7q17 -9 17 -168l-1 -106h4l37 7q27 5 43 7.5t29 3.5t31 1l35 1q21 33 54 33h4q8 -1 13 -3.5t5 -5.5q-1 -1 -1 -3q-4 -8 -10 -15q-14 -19 -20 -42l-1 -10q0 -11 5 -21q2 -6 2 -10
t-5 -4h-6q-21 3 -34.5 18t-15.5 36v11l-25 1q-22 0 -40 -2t-55 -9q-16 -3 -28.5 -5t-14.5 -2q-4 0 -6 -2l-5 -84l-4 -32q-6 -75 -24 -149q-60 -227 -205 -227zM189 209h-12q-50 8 -84 46q-28 32 -29 66v5q0 54 56 94q58 41 176 41q53 0 109.5 -8.5t157.5 -32.5
q164 -40 234 -40l28 2q98 17 126 86q3 11 3 22q0 20 -9 37.5t-25 25.5q-11 7 -21 9t-26 2l-12 1q-22 0 -44 -9q-58 -27 -58 -83q0 -13 -5 -13h-4q-9 2 -9 24v3q0 31 24 55q18 17 46.5 27t58.5 10h10q52 -5 79 -32q28 -29 28 -65q0 -15 -5 -29q-30 -77 -141 -98
q-28 -3 -56 -3t-56 3q-107 17 -212 45q-80 21 -127.5 29.5t-89.5 11.5l-29 1q-77 0 -126 -27q-27 -18 -46 -46q-11 -22 -11 -43q0 -38 33 -72q18 -19 44 -28q14 -4 28 -4q16 0 31 5q31 10 46 37q5 9 8 19.5t3 17.5v6q0 1 0.5 2t1.5 2h1l5 1q6 0 10 -5.5t4 -14.5
q0 -11 -7.5 -26.5t-19.5 -27.5q-21 -18 -50 -26q-18 -3 -37 -3z" />
    <glyph glyph-name="G" unicode="G" horiz-adv-x="1120" 
d="M802 169l32 2q102 12 164 56q68 57 68 118l-1 12q-6 31 -34.5 61.5t-68.5 47.5q-39 14 -80 14q-16 0 -32 -2q-65 -9 -122 -40q-86 -49 -141 -131q-16 -26 -29 -53q0 -1 10.5 -7.5t26 -15t29.5 -15.5q92 -47 178 -47zM726 -367q-21 0 -41 2q-160 28 -220 214
q-20 69 -20 149q0 45 6 91q6 44 19.5 89t30.5 77l4 8q-87 54 -133.5 79.5t-82.5 32.5q-15 4 -31 4h-10q-25 -1 -43.5 -8t-38.5 -22q-58 -45 -74 -130q-3 -20 -3 -40q0 -22 4 -44q21 -108 100 -142q15 -6 31 -6h7q23 0 44 11q29 17 46 45q33 56 40 138q1 11 1 23l-1 31l-2 17
q2 0 3 1h4q14 0 14 -59q0 -97 -43 -163q-40 -53 -106 -57h-7q-63 0 -106.5 49t-52.5 131l-1 22q0 41 13 80q41 112 150 134q16 3 32 3q42 0 93 -21.5t130 -71.5q5 -3 9 -6q11 -7 15.5 -9.5t6.5 -2.5q1 0 1 0.5t1 1.5q7 11 20 30t20 29q28 34 61 61q54 45 123.5 72t140.5 27
q44 0 86 -12q30 -10 56 -28q52 -39 65 -86q4 -14 4 -28q0 -57 -53 -109q-41 -39 -94 -57q-72 -26 -146 -26q-48 0 -95 11q-74 21 -141 61q-2 1 -5 3t-8 4q-12 -29 -21 -58q-24 -85 -24 -173q0 -31 3 -63q17 -147 105 -230q59 -57 133 -57q21 0 43 5q28 5 52 17
q115 57 147 203q5 22 5 43v9v21.5t-1 12.5t-3 11q-7 25 -18 49q-1 3 -63 11l-19 1q-7 0 -13 -1q-21 -3 -36 -17q-10 -14 -15 -31q0 -3 -3 -5l-2 -1q-2 0 -4 2q-4 5 -4 18q0 11 3 25.5t9 26.5q19 33 55 41l12 1q7 0 18.5 -1.5l34.5 -4.5q47 -6 76 -6q13 0 19 1q19 4 33 16
q6 5 9 5q5 -3 5 -16v-6q-5 -43 -41 -57q-15 -2 -30 -2h-23q7 -14 12 -26t9 -28q5 -23 5 -47q0 -58 -25.5 -116t-64.5 -98q-61 -63 -159 -76q-21 -2 -42 -2z" />
    <glyph glyph-name="H" unicode="H" horiz-adv-x="1077" 
d="M559 -379q-6 0 -11 2l-5 3q-1 3 -1 15q0 21 2 55q0 7 1 18q3 30 4 61l4 74q3 45 5 103.5t2 106.5v68q-8 -1 -13.5 -3t-12.5 -5q-29 -16 -46 -45l-6 -12q-3 -3 -6 -3h-2q-7 0 -7 8q0 14 26 44q20 22 51 28l15 3l-2 23q-6 121 -43 196q-51 102 -152 127q-20 4 -40 4
q-18 0 -36 -3q-150 -38 -193 -227q-2 -10 -3 -17t-1 -17v-29q0 -25 0.5 -37t2.5 -21q17 -99 73 -155q46 -47 100 -49h7q56 0 101 41q57 59 57 141q0 26 -7 54q-22 79 -87 115q-12 8 -27 8h-5q-11 0 -21 -4q-10 -3 -15 -3q-4 0 -4 3t8.5 6.5t20 6.5t18.5 3q30 -2 64 -23
q28 -21 49 -50q22 -34 29 -74q3 -20 3 -40q0 -21 -3 -41q-24 -112 -123 -147q-30 -11 -60 -11q-69 0 -125 54q-59 58 -78 163q-3 29 -3 57t3 56q45 221 231 256q16 1 33 1q20 0 41 -2q38 -8 73 -23q147 -74 168 -303l3 -32l1 -5l80 -15q17 -4 45.5 -9t55.5 -9.5t38 -5.5
l11 -1q29 139 83 283q14 39 33 57q12 12 27 12q10 0 13.5 -2.5t3.5 -9.5q0 -12 -25 -77q-33 -90 -57 -183q-4 -15 -8 -32.5t-7 -31.5t-3 -17q17 2 33 8q25 9 47 23l19 15q6 7 10 9t8 3q2 0 5 -0.5t5 -1.5t2 -3l-3 -6q-14 -21 -35 -33q-38 -21 -81 -29q-6 0 -12 -2
q-2 -2 -5.5 -20.5t-7.5 -45.5t-7 -54q-6 -60 -6 -116q0 -71 10 -132q4 -22 9 -39t9 -22q2 0 6.5 3.5t10 8.5t9.5 9q57 66 125 259q7 19 11.5 31t7 18.5t4.5 9t3 3.5l4 1q3 0 5 -1t2 -3q-7 -36 -19 -69q-23 -72 -54 -143t-57 -110q-15 -23 -38 -37q-5 -2 -10 -3t-16 -1
q-7 0 -11 0.5t-7 1t-6 2.5h-1q-55 37 -55 211v25q0 63 9 126q2 14 4.5 32.5t5.5 34t4 19.5q0 1 -0.5 1.5t-2.5 1.5t-6 1q-23 3 -71.5 11.5t-82.5 15.5l-55 12l-9 1q0 -22 1 -31v-51q0 -57 -2.5 -124.5t-7.5 -115.5q-3 -32 -9 -75.5t-12 -72.5q-4 -17 -7.5 -25t-9.5 -11
q-5 -2 -11 -2z" />
    <glyph glyph-name="I" unicode="I" horiz-adv-x="617" 
d="M444 -374q-33 0 -47.5 40.5t-14.5 126.5q0 63 7 151q10 99 23 197l2 12q5 39 7.5 61.5t3 39.5t0.5 41v16q0 23 -2 45q-11 82 -58 104q-12 6 -24 6h-5q-12 0 -24 -2q-133 -41 -201 -219q-22 -67 -22 -122q0 -77 42 -119q22 -21 48 -21q29 0 60 24q29 24 52.5 64t33.5 81
q3 15 3 29v31q2 0 3 1h4q9 0 11 -14q2 -9 2 -20q0 -63 -56 -144q-52 -65 -112 -65l-13 1q-49 6 -76 47t-27 105q0 41 12 88q28 112 108 196q51 54 113 71q21 5 43 5q17 0 33 -3q96 -20 104 -174l1 -34q0 -73 -18 -215q-7 -64 -11 -107t-7 -88q-2 -38 -2 -76l1 -63
q4 -67 21 -67t41.5 45.5t47 101t35.5 92.5q9 22 18 49.5t15 45.5q1 4 4.5 7t7.5 3h1q3 -1 4 -3.5t1 -5.5t-1 -6t-1 -5l-1 -1v-1q-12 -46 -39.5 -126.5t-63 -148t-70.5 -75.5q-9 -2 -17 -2z" />
    <glyph glyph-name="I" unicode="&#xcf;" horiz-adv-x="617" 
d="M444 -374q-33 0 -47.5 40.5t-14.5 126.5q0 63 7 151q10 99 23 197l2 12q5 39 7.5 61.5t3 39.5t0.5 41v16q0 23 -2 45q-11 82 -58 104q-12 6 -24 6h-5q-12 0 -24 -2q-133 -41 -201 -219q-22 -67 -22 -122q0 -77 42 -119q22 -21 48 -21q29 0 60 24q29 24 52.5 64t33.5 81
q3 15 3 29v31q2 0 3 1h4q9 0 11 -14q2 -9 2 -20q0 -63 -56 -144q-52 -65 -112 -65l-13 1q-49 6 -76 47t-27 105q0 41 12 88q28 112 108 196q51 54 113 71q21 5 43 5q17 0 33 -3q96 -20 104 -174l1 -34q0 -73 -18 -215q-7 -64 -11 -107t-7 -88q-2 -38 -2 -76l1 -63
q4 -67 21 -67t41.5 45.5t47 101t35.5 92.5q9 22 18 49.5t15 45.5q1 4 4.5 7t7.5 3h1q3 -1 4 -3.5t1 -5.5t-1 -6t-1 -5l-1 -1v-1q-12 -46 -39.5 -126.5t-63 -148t-70.5 -75.5q-9 -2 -17 -2z" />
    <glyph glyph-name="I" unicode="&#xce;" horiz-adv-x="617" 
d="M444 -374q-33 0 -47.5 40.5t-14.5 126.5q0 63 7 151q10 99 23 197l2 12q5 39 7.5 61.5t3 39.5t0.5 41v16q0 23 -2 45q-11 82 -58 104q-12 6 -24 6h-5q-12 0 -24 -2q-133 -41 -201 -219q-22 -67 -22 -122q0 -77 42 -119q22 -21 48 -21q29 0 60 24q29 24 52.5 64t33.5 81
q3 15 3 29v31q2 0 3 1h4q9 0 11 -14q2 -9 2 -20q0 -63 -56 -144q-52 -65 -112 -65l-13 1q-49 6 -76 47t-27 105q0 41 12 88q28 112 108 196q51 54 113 71q21 5 43 5q17 0 33 -3q96 -20 104 -174l1 -34q0 -73 -18 -215q-7 -64 -11 -107t-7 -88q-2 -38 -2 -76l1 -63
q4 -67 21 -67t41.5 45.5t47 101t35.5 92.5q9 22 18 49.5t15 45.5q1 4 4.5 7t7.5 3h1q3 -1 4 -3.5t1 -5.5t-1 -6t-1 -5l-1 -1v-1q-12 -46 -39.5 -126.5t-63 -148t-70.5 -75.5q-9 -2 -17 -2z" />
    <glyph glyph-name="I" unicode="&#xcd;" horiz-adv-x="617" 
d="M444 -374q-33 0 -47.5 40.5t-14.5 126.5q0 63 7 151q10 99 23 197l2 12q5 39 7.5 61.5t3 39.5t0.5 41v16q0 23 -2 45q-11 82 -58 104q-12 6 -24 6h-5q-12 0 -24 -2q-133 -41 -201 -219q-22 -67 -22 -122q0 -77 42 -119q22 -21 48 -21q29 0 60 24q29 24 52.5 64t33.5 81
q3 15 3 29v31q2 0 3 1h4q9 0 11 -14q2 -9 2 -20q0 -63 -56 -144q-52 -65 -112 -65l-13 1q-49 6 -76 47t-27 105q0 41 12 88q28 112 108 196q51 54 113 71q21 5 43 5q17 0 33 -3q96 -20 104 -174l1 -34q0 -73 -18 -215q-7 -64 -11 -107t-7 -88q-2 -38 -2 -76l1 -63
q4 -67 21 -67t41.5 45.5t47 101t35.5 92.5q9 22 18 49.5t15 45.5q1 4 4.5 7t7.5 3h1q3 -1 4 -3.5t1 -5.5t-1 -6t-1 -5l-1 -1v-1q-12 -46 -39.5 -126.5t-63 -148t-70.5 -75.5q-9 -2 -17 -2z" />
    <glyph glyph-name="I" unicode="&#xcc;" horiz-adv-x="617" 
d="M444 -374q-33 0 -47.5 40.5t-14.5 126.5q0 63 7 151q10 99 23 197l2 12q5 39 7.5 61.5t3 39.5t0.5 41v16q0 23 -2 45q-11 82 -58 104q-12 6 -24 6h-5q-12 0 -24 -2q-133 -41 -201 -219q-22 -67 -22 -122q0 -77 42 -119q22 -21 48 -21q29 0 60 24q29 24 52.5 64t33.5 81
q3 15 3 29v31q2 0 3 1h4q9 0 11 -14q2 -9 2 -20q0 -63 -56 -144q-52 -65 -112 -65l-13 1q-49 6 -76 47t-27 105q0 41 12 88q28 112 108 196q51 54 113 71q21 5 43 5q17 0 33 -3q96 -20 104 -174l1 -34q0 -73 -18 -215q-7 -64 -11 -107t-7 -88q-2 -38 -2 -76l1 -63
q4 -67 21 -67t41.5 45.5t47 101t35.5 92.5q9 22 18 49.5t15 45.5q1 4 4.5 7t7.5 3h1q3 -1 4 -3.5t1 -5.5t-1 -6t-1 -5l-1 -1v-1q-12 -46 -39.5 -126.5t-63 -148t-70.5 -75.5q-9 -2 -17 -2z" />
    <glyph glyph-name="J" unicode="J" horiz-adv-x="954" 
d="M491 -354q26 0 50 10q55 28 104 97q55 81 90 197l2 10q0 2 -1 2h-6q-11 0 -32 -1t-36 -2q-54 -6 -106 -20q-42 -14 -79 -40q-28 -21 -48 -49q-38 -55 -38 -101q0 -21 8 -38q29 -57 92 -65zM497 -377q-24 0 -47 6q-35 12 -59 41q-20 23 -23 52q-4 14 -4 26q0 13 6 32
q27 91 115 142q27 15 53 24.5t65 16.5q53 12 107 12l31 1q2 1 5.5 15t8 35.5t8.5 44.5q23 133 23 266l-1 43q-1 12 -2 30q-1 15 -2 29t-2 23t-1 10q-6 -3 -9 -7q-33 -29 -79 -55t-92 -42q-4 -1 -5 -2t-2 -1q-1 -1 -1.5 -1t-2 -0.5l-4.5 -1.5t-8 -2l-12.5 -2.5t-18.5 -3.5
q-38 -9 -88 -9q-37 0 -87 5q-11 2 -20 2.5t-11 0.5l-50 3q-25 0 -49 -5q-19 -3 -36 -9q-93 -41 -112 -159q-4 -25 -4 -50q0 -118 69 -218q53 -64 104 -64q19 0 37 9q84 52 98 216l1 24q0 74 -25.5 124.5t-62.5 50.5h-7q-8 0 -8 3q0 2 4.5 5t11 5t12.5 2h3q23 -4 41 -19
q56 -58 56 -171l-1 -24q-13 -157 -96 -218q-21 -13 -46 -19l-21 -2q-26 0 -51 11q-27 14 -50 36q-62 63 -84 171q-8 42 -8 80q0 60 21 112q16 33 40 60q54 54 128 59q18 2 38 2q29 0 84 -5l19 -1q8 -1 14 -1q13 -1 23 -1.5t28 -0.5q88 0 156 30q84 35 152 96q1 1 3 2
q9 8 14 12t8 5.5t7 2.5l6 1q10 0 18 -8q5 -7 9.5 -25t6.5 -36q5 -44 5 -103t-5 -115q-9 -111 -34 -221q-4 -10 -4 -21q1 -1 18.5 -3t41.5 -2q21 0 42.5 3t37.5 10q13 7 18 10q3 3 5 3h2q2 -1 2 -3q0 -4 -6 -10t-18 -12q-20 -9 -43.5 -12t-45.5 -3q-25 0 -42 2q-11 1 -15 2
h-2q-36 -116 -84 -193t-124 -120q-15 -9 -31 -15q-29 -10 -60 -13z" />
    <glyph glyph-name="K" unicode="K" horiz-adv-x="911" 
d="M717 -383q-26 0 -52.5 27t-45.5 96t-25 194q-11 79 -22 115t-29 53q-11 13 -23 13l-9 -1l-8 -3l-10 -139q0 -8 -2 -36t-5 -64q-1 -6 -1 -12q-3 -45 -5 -71t-4.5 -45t-5.5 -43q-3 -22 -6 -34t-6 -17t-8 -7q-7 -3 -13 -3q-13 0 -18 12q-2 5 -2 26q0 63 16 275q6 72 8 116
l4 55q1 20 2 49t1 56q0 39 -2 57q-7 77 -38 120q-23 34 -65 44q-9 1 -18 1q-20 0 -40 -6q-54 -19 -101.5 -67.5t-72.5 -111.5q-21 -50 -21 -103v-16q0 -19 4 -39q10 -55 48 -97q11 -11 20.5 -16.5t20.5 -7.5l8 -1q36 0 82 51q21 28 35.5 70.5t17.5 83.5l1 21q9 0 14 -3.5
t5 -21.5l-2 -21q-10 -86 -52 -137q-50 -56 -102 -56q-31 0 -59 21q-30 24 -49 71q-18 42 -18 88v13q6 131 109 231q55 52 113 67q18 5 38 5h8q20 0 30 -1.5t25 -7.5q78 -29 104 -133q12 -41 12 -140v-50q5 0 9 1q12 1 21.5 2.5t22.5 7.5q69 27 128 70q81 61 122 134
q26 53 40 111q1 9 4 16q3 2 6 2q4 0 8 -3q3 -5 3 -17q0 -22 -8.5 -56t-22.5 -64q-45 -87 -141 -153q-47 -29 -98 -49q-11 -3 -22 -9l7 -5q22 -14 34 -36t22 -56t15 -101q10 -124 23 -184.5t27.5 -78.5t28.5 -18h2q24 0 72.5 71.5t101.5 231.5q8 26 9 35q1 6 2 8t3 2l4 1
q2 0 3.5 -2t1.5 -7l-2 -14q-32 -144 -87.5 -241t-99.5 -114q-12 -5 -25 -5z" />
    <glyph glyph-name="L" unicode="L" horiz-adv-x="849" 
d="M545 -191q3 0 14 18q2 3 5 7q131 199 173 415q10 58 10 116v16q-6 111 -45 131q-3 2 -6 2q-4 0 -7 -2q-18 -6 -46 -45q-48 -64 -78 -188q-37 -144 -37 -290v-11q0 -12 2.5 -45t6 -65t5.5 -46q0 -2 1 -4q0 -9 2 -9zM255 -409h-14q-92 8 -136 87q-22 39 -31 83
q-10 57 -10 114q5 116 56 219q18 35 42 65.5t48 48.5q44 33 85 33q65 0 106 -82q9 -21 13.5 -39.5t7.5 -49.5q2 -19 2 -39q0 -28 -4 -56q-15 -86 -57 -162q-14 -23 -36.5 -42.5t-48.5 -19.5q-18 0 -37 13q-29 24 -35 61l-2 15q0 10 3 20q1 4 3 8q1 1 2 3q3 -33 17.5 -67.5
t51.5 -38.5q18 0 33 14q27 27 42 62q35 70 45 147q3 22 3 44q0 53 -16 104q-21 58 -61 83q-18 9 -38 9q-67 -7 -132 -111q-61 -103 -67 -237q0 -60 11 -119q33 -136 130 -153q12 -1 24 -1q28 0 55 6q75 21 149 92q11 11 24.5 25.5t20.5 22.5q0 9 -3 18q-1 1 -1 2
q-24 96 -24 214q0 28 1 56q15 201 83 354q19 39 43 71t46 48q20 15 44 15h9q5 0 8.5 -0.5t7.5 -2.5q40 -16 49 -115q2 -25 2 -50q0 -36 -4 -71q-25 -182 -129 -376q-18 -33 -33 -57t-46 -69l-7 -10q16 -52 30.5 -77t45.5 -25q33 0 69 39q97 108 153 266q2 7 3.5 11t3 5
t3.5 1t3.5 -1t1.5 -3l-4 -18q-23 -73 -64 -149t-92 -128.5t-98 -52.5q-25 0 -47 17t-40 55l-6 14l-10 -10q-100 -111 -206 -130q-21 -3 -41 -3z" />
    <glyph glyph-name="M" unicode="M" horiz-adv-x="1485" 
d="M1226 -442q-31 0 -43 25.5t-15 54.5q-3 28 -3 74q0 47 3 83q6 56 15 109t28 133t53 217q16 65 25 103t13.5 58.5t6 32t1.5 22.5q0 10 -0.5 15t-1 7.5t-1.5 4.5q-2 3 -3.5 3.5t-6.5 0.5q-7 -2 -20.5 -8.5t-26.5 -15.5q-116 -94 -248 -349l-1 -2q-11 -23 -18.5 -38.5
t-15.5 -35t-21 -53.5q-11 -29 -18 -45.5t-11.5 -24t-9.5 -9t-12 -1.5h-2q-19 0 -25 10q-3 3 -3 19q0 33 12 141q5 46 7.5 99t2.5 95q0 40 -3 60q-6 44 -20 44q-16 0 -55 -38q-35 -36 -74 -115q-81 -164 -129 -342l-6.5 -26t-4.5 -25t-5 -46q-13 -110 -19 -136
q-3 -10 -5.5 -14.5t-6.5 -6.5t-9 -2q-4 0 -7 1q-5 3 -7 9t-3 21v8q0 32 3.5 109.5t7.5 144.5q10 125 10 217l-1 44q-1 175 -39 226q-16 25 -42 40q-23 11 -51 11q-57 0 -127 -45q-149 -101 -195 -276q-10 -38 -10 -76l1 -26q6 -61 39 -96q28 -30 65 -30q26 0 56 15
q60 31 110 109q23 37 36.5 75t13.5 64q0 12 -3 20l-1 4q0 3 4 3h3q16 0 16 -31v-4q0 -90 -96 -199q-46 -49 -99 -63q-19 -5 -40 -5q-20 0 -31.5 2.5t-24.5 9.5q-58 30 -72 112q-2 15 -2 30l1 18q0 36 10 71q27 105 94 188q41 47 87 84q85 65 170 65h3q87 0 129 -59
q41 -54 52 -180q1 -30 1 -87q0 -34 -0.5 -70t-1.5 -60l-1 -44q1 0 2.5 3t2.5 8q10 31 32 89t40 99q97 213 173 221l12 1q46 0 60 -53q13 -56 13 -141q0 -30 -2 -60q-2 -27 -5 -58.5t-6 -48.5q-1 -8 -1 -16l18 37q174 355 315 437q14 8 24 11t20 3q50 0 50 -69t-42 -231
q-37 -148 -54 -225t-25 -135q-13 -101 -13 -178q0 -56 7 -86q3 -7 9 -7q16 0 47.5 47t69 115t72.5 135l18 34q18 33 27.5 50.5t14 24t6.5 7.5h2q5 0 5 -5q0 -7 -59 -126q-4 -7 -8 -15q-47 -97 -102 -191q-16 -29 -43 -63.5t-52 -40.5z" />
    <glyph glyph-name="N" unicode="N" horiz-adv-x="1311" 
d="M510 -373l2 2q2 1 3 3q16 22 26 46q23 54 38 146q3 20 7 47t7 49.5t3 26.5q-1 0 -4.5 -7l-9.5 -19l-5 -10q-73 -144 -73 -239v-9q2 -36 6 -36zM1051 -426l-9 1q-19 3 -32 18q-16 19 -18 81v17q0 97 37 316q20 119 28 184.5t11 116.5l1 33q0 92 -28 128q-7 9 -17 9
q-9 0 -24 -8q-61 -31 -150 -141q-38 -47 -89 -118.5t-82 -119.5q-6 -9 -9 -12l-3 -4.5t-1 -3.5t-1 -6v-9q-5 -69 -14.5 -144.5t-19.5 -120.5q-27 -116 -76 -170q-19 -20 -45 -20q-37 0 -37 43v4l1 18q8 83 50 183q11 25 33 69.5t36 71.5l10 18q1 14 2 26q2 27 3 50t1 55
q0 85 -11 154q-29 163 -136 187q-16 2 -33 2q-19 0 -38 -3q-127 -30 -221 -157q-46 -65 -69 -143q-10 -38 -10 -72t9 -62q22 -59 72 -74q9 -2 20 -2q23 0 48 8q47 18 92 72t70 121q3 8 4 17q0 9 8 10q5 0 7 -3t2 -7t-1.5 -8t-2.5 -7v-2q-17 -47 -48 -96.5t-74.5 -84.5
t-98.5 -35q-15 0 -31 3q-76 16 -98 100q-5 25 -5 51l2 30q16 107 97 214q34 40 73 73q65 52 132 69q29 8 60 8h17q35 0 70 -13q152 -59 153 -343v-24.5t1 -6.5l2 2q212 314 306 360q15 9 25.5 12t24.5 3h13t7.5 -1.5t8.5 -3.5q64 -32 64 -199q0 -52 -6 -109t-24 -161
q-43 -262 -44 -363q0 -27 2 -38.5t6 -17.5l1.5 -1.5t1.5 -0.5l6 2q8 4 24.5 20t30.5 33q87 102 174 292q1 2 2 3q6 16 10.5 25.5t7.5 15.5t4.5 8.5t2.5 3t2 0.5h1q3 0 4 -1t1 -4q0 -7 -21 -62q-59 -145 -151 -273q-42 -59 -64 -74q-19 -12 -40 -12z" />
    <glyph glyph-name="N" unicode="&#xd1;" horiz-adv-x="1311" 
d="M510 -373l2 2q2 1 3 3q16 22 26 46q23 54 38 146q3 20 7 47t7 49.5t3 26.5q-1 0 -4.5 -7l-9.5 -19l-5 -10q-73 -144 -73 -239v-9q2 -36 6 -36zM1051 -426l-9 1q-19 3 -32 18q-16 19 -18 81v17q0 97 37 316q20 119 28 184.5t11 116.5l1 33q0 92 -28 128q-7 9 -17 9
q-9 0 -24 -8q-61 -31 -150 -141q-38 -47 -89 -118.5t-82 -119.5q-6 -9 -9 -12l-3 -4.5t-1 -3.5t-1 -6v-9q-5 -69 -14.5 -144.5t-19.5 -120.5q-27 -116 -76 -170q-19 -20 -45 -20q-37 0 -37 43v4l1 18q8 83 50 183q11 25 33 69.5t36 71.5l10 18q1 14 2 26q2 27 3 50t1 55
q0 85 -11 154q-29 163 -136 187q-16 2 -33 2q-19 0 -38 -3q-127 -30 -221 -157q-46 -65 -69 -143q-10 -38 -10 -72t9 -62q22 -59 72 -74q9 -2 20 -2q23 0 48 8q47 18 92 72t70 121q3 8 4 17q0 9 8 10q5 0 7 -3t2 -7t-1.5 -8t-2.5 -7v-2q-17 -47 -48 -96.5t-74.5 -84.5
t-98.5 -35q-15 0 -31 3q-76 16 -98 100q-5 25 -5 51l2 30q16 107 97 214q34 40 73 73q65 52 132 69q29 8 60 8h17q35 0 70 -13q152 -59 153 -343v-24.5t1 -6.5l2 2q212 314 306 360q15 9 25.5 12t24.5 3h13t7.5 -1.5t8.5 -3.5q64 -32 64 -199q0 -52 -6 -109t-24 -161
q-43 -262 -44 -363q0 -27 2 -38.5t6 -17.5l1.5 -1.5t1.5 -0.5l6 2q8 4 24.5 20t30.5 33q87 102 174 292q1 2 2 3q6 16 10.5 25.5t7.5 15.5t4.5 8.5t2.5 3t2 0.5h1q3 0 4 -1t1 -4q0 -7 -21 -62q-59 -145 -151 -273q-42 -59 -64 -74q-19 -12 -40 -12z" />
    <glyph glyph-name="O" unicode="O" horiz-adv-x="1250" 
d="M1040 -84h21t14 1l8 1l5 16q24 73 26 150v14q0 68 -21 127t-60 99q-22 23 -51 37q-5 2 -7 2q-1 0 -1 -1l-5 -20q-12 -47 -37 -88q-54 -86 -132 -150l-15 -12q6 -19 16 -37q29 -54 79 -92q66 -47 160 -47zM498 -24l23 5q115 31 215 97l20 14l1.5 1.5t0.5 1.5q0 4 -4 17
q-7 27 -7 55q0 15 2 29q13 89 74 147q48 43 106 43h16v10q0 11 -2 21v2q-9 41 -34.5 63.5t-60.5 22.5q-9 0 -18 -1q-52 -9 -117 -61q-38 -31 -70 -69q-119 -150 -144 -337q-2 -16 -3 -30.5t-1 -22.5q0 -6 1 -7q0 -1 0.5 -1h1.5zM779 112q6 1 40 34q87 87 116 170
q4 14 7 30.5t3 22.5v1q-2 3 -12 3q-9 0 -22.5 -2.5t-23.5 -6.5q-27 -12 -49 -34q-66 -70 -66 -160v-11q1 -14 3 -28.5t4 -18.5zM750 -362q26 0 51 4q160 40 256 217q12 21 20 44l-12 1l-12 -1h-13q-72 0 -139 29q-45 22 -78 58q-29 30 -47 66q-3 6 -6 11q-4 9 -5 9
q-11 -4 -20 -12q-37 -26 -78 -44q-68 -34 -142 -52l-27 -6q-2 -1 -2 -10q0 -13 3.5 -35.5t8.5 -43.5q16 -67 52 -125q65 -94 165 -109zM748 -385q-23 0 -45 2q-89 13 -155 74q-95 89 -110 248l-1 13q-12 -1 -18.5 -1h-19.5q-37 0 -74 3q-94 12 -158 57q-82 60 -101 161
q-2 19 -2 37q0 21 3 42q21 108 119 155q42 20 86 20q48 0 95 -23q22 -11 41 -28t28 -34q6 -13 6 -24l-1 -7q-1 -2 -2.5 -3t-4.5 -1t-4.5 0.5t-2 2t-0.5 5.5q-8 45 -71 77q-40 20 -85 20q-51 0 -91 -30q-82 -56 -87 -164v-11l1 -27q21 -124 133 -182q51 -25 107 -30
q29 -3 58 -3l34 1l9 1q2 58 9 104t25 97q52 155 154 253q84 80 170 103l14 3.5t13.5 1.5h22.5h22.5t12 -1.5t11.5 -3.5q30 -8 52 -29q35 -33 35 -96v-18q14 -5 21.5 -8.5t20.5 -10.5q39 -27 66 -66q55 -85 55 -198q0 -66 -19 -140l-7 -26l-2 -6q0 -1 3 -1q7 0 27 7
q53 18 98 50q8 6 13 9t7.5 4t4.5 1h2q3 0 3 -2t-7 -8q-60 -53 -153 -75l-3 -1.5t-1 -1.5q-9 -25 -20 -49q-72 -150 -202 -213q-41 -19 -83 -27q-26 -3 -52 -3z" />
    <glyph glyph-name="O" unicode="&#xd8;" horiz-adv-x="1250" 
d="M1040 -84h21t14 1l8 1l5 16q24 73 26 150v14q0 68 -21 127t-60 99q-22 23 -51 37q-5 2 -7 2q-1 0 -1 -1l-5 -20q-12 -47 -37 -88q-54 -86 -132 -150l-15 -12q6 -19 16 -37q29 -54 79 -92q66 -47 160 -47zM498 -24l23 5q115 31 215 97l20 14l1.5 1.5t0.5 1.5q0 4 -4 17
q-7 27 -7 55q0 15 2 29q13 89 74 147q48 43 106 43h16v10q0 11 -2 21v2q-9 41 -34.5 63.5t-60.5 22.5q-9 0 -18 -1q-52 -9 -117 -61q-38 -31 -70 -69q-119 -150 -144 -337q-2 -16 -3 -30.5t-1 -22.5q0 -6 1 -7q0 -1 0.5 -1h1.5zM779 112q6 1 40 34q87 87 116 170
q4 14 7 30.5t3 22.5v1q-2 3 -12 3q-9 0 -22.5 -2.5t-23.5 -6.5q-27 -12 -49 -34q-66 -70 -66 -160v-11q1 -14 3 -28.5t4 -18.5zM750 -362q26 0 51 4q160 40 256 217q12 21 20 44l-12 1l-12 -1h-13q-72 0 -139 29q-45 22 -78 58q-29 30 -47 66q-3 6 -6 11q-4 9 -5 9
q-11 -4 -20 -12q-37 -26 -78 -44q-68 -34 -142 -52l-27 -6q-2 -1 -2 -10q0 -13 3.5 -35.5t8.5 -43.5q16 -67 52 -125q65 -94 165 -109zM748 -385q-23 0 -45 2q-89 13 -155 74q-95 89 -110 248l-1 13q-12 -1 -18.5 -1h-19.5q-37 0 -74 3q-94 12 -158 57q-82 60 -101 161
q-2 19 -2 37q0 21 3 42q21 108 119 155q42 20 86 20q48 0 95 -23q22 -11 41 -28t28 -34q6 -13 6 -24l-1 -7q-1 -2 -2.5 -3t-4.5 -1t-4.5 0.5t-2 2t-0.5 5.5q-8 45 -71 77q-40 20 -85 20q-51 0 -91 -30q-82 -56 -87 -164v-11l1 -27q21 -124 133 -182q51 -25 107 -30
q29 -3 58 -3l34 1l9 1q2 58 9 104t25 97q52 155 154 253q84 80 170 103l14 3.5t13.5 1.5h22.5h22.5t12 -1.5t11.5 -3.5q30 -8 52 -29q35 -33 35 -96v-18q14 -5 21.5 -8.5t20.5 -10.5q39 -27 66 -66q55 -85 55 -198q0 -66 -19 -140l-7 -26l-2 -6q0 -1 3 -1q7 0 27 7
q53 18 98 50q8 6 13 9t7.5 4t4.5 1h2q3 0 3 -2t-7 -8q-60 -53 -153 -75l-3 -1.5t-1 -1.5q-9 -25 -20 -49q-72 -150 -202 -213q-41 -19 -83 -27q-26 -3 -52 -3z" />
    <glyph glyph-name="O" unicode="&#xd6;" horiz-adv-x="1250" 
d="M1040 -84h21t14 1l8 1l5 16q24 73 26 150v14q0 68 -21 127t-60 99q-22 23 -51 37q-5 2 -7 2q-1 0 -1 -1l-5 -20q-12 -47 -37 -88q-54 -86 -132 -150l-15 -12q6 -19 16 -37q29 -54 79 -92q66 -47 160 -47zM498 -24l23 5q115 31 215 97l20 14l1.5 1.5t0.5 1.5q0 4 -4 17
q-7 27 -7 55q0 15 2 29q13 89 74 147q48 43 106 43h16v10q0 11 -2 21v2q-9 41 -34.5 63.5t-60.5 22.5q-9 0 -18 -1q-52 -9 -117 -61q-38 -31 -70 -69q-119 -150 -144 -337q-2 -16 -3 -30.5t-1 -22.5q0 -6 1 -7q0 -1 0.5 -1h1.5zM779 112q6 1 40 34q87 87 116 170
q4 14 7 30.5t3 22.5v1q-2 3 -12 3q-9 0 -22.5 -2.5t-23.5 -6.5q-27 -12 -49 -34q-66 -70 -66 -160v-11q1 -14 3 -28.5t4 -18.5zM750 -362q26 0 51 4q160 40 256 217q12 21 20 44l-12 1l-12 -1h-13q-72 0 -139 29q-45 22 -78 58q-29 30 -47 66q-3 6 -6 11q-4 9 -5 9
q-11 -4 -20 -12q-37 -26 -78 -44q-68 -34 -142 -52l-27 -6q-2 -1 -2 -10q0 -13 3.5 -35.5t8.5 -43.5q16 -67 52 -125q65 -94 165 -109zM748 -385q-23 0 -45 2q-89 13 -155 74q-95 89 -110 248l-1 13q-12 -1 -18.5 -1h-19.5q-37 0 -74 3q-94 12 -158 57q-82 60 -101 161
q-2 19 -2 37q0 21 3 42q21 108 119 155q42 20 86 20q48 0 95 -23q22 -11 41 -28t28 -34q6 -13 6 -24l-1 -7q-1 -2 -2.5 -3t-4.5 -1t-4.5 0.5t-2 2t-0.5 5.5q-8 45 -71 77q-40 20 -85 20q-51 0 -91 -30q-82 -56 -87 -164v-11l1 -27q21 -124 133 -182q51 -25 107 -30
q29 -3 58 -3l34 1l9 1q2 58 9 104t25 97q52 155 154 253q84 80 170 103l14 3.5t13.5 1.5h22.5h22.5t12 -1.5t11.5 -3.5q30 -8 52 -29q35 -33 35 -96v-18q14 -5 21.5 -8.5t20.5 -10.5q39 -27 66 -66q55 -85 55 -198q0 -66 -19 -140l-7 -26l-2 -6q0 -1 3 -1q7 0 27 7
q53 18 98 50q8 6 13 9t7.5 4t4.5 1h2q3 0 3 -2t-7 -8q-60 -53 -153 -75l-3 -1.5t-1 -1.5q-9 -25 -20 -49q-72 -150 -202 -213q-41 -19 -83 -27q-26 -3 -52 -3z" />
    <glyph glyph-name="O" unicode="&#xd5;" horiz-adv-x="1250" 
d="M1040 -84h21t14 1l8 1l5 16q24 73 26 150v14q0 68 -21 127t-60 99q-22 23 -51 37q-5 2 -7 2q-1 0 -1 -1l-5 -20q-12 -47 -37 -88q-54 -86 -132 -150l-15 -12q6 -19 16 -37q29 -54 79 -92q66 -47 160 -47zM498 -24l23 5q115 31 215 97l20 14l1.5 1.5t0.5 1.5q0 4 -4 17
q-7 27 -7 55q0 15 2 29q13 89 74 147q48 43 106 43h16v10q0 11 -2 21v2q-9 41 -34.5 63.5t-60.5 22.5q-9 0 -18 -1q-52 -9 -117 -61q-38 -31 -70 -69q-119 -150 -144 -337q-2 -16 -3 -30.5t-1 -22.5q0 -6 1 -7q0 -1 0.5 -1h1.5zM779 112q6 1 40 34q87 87 116 170
q4 14 7 30.5t3 22.5v1q-2 3 -12 3q-9 0 -22.5 -2.5t-23.5 -6.5q-27 -12 -49 -34q-66 -70 -66 -160v-11q1 -14 3 -28.5t4 -18.5zM750 -362q26 0 51 4q160 40 256 217q12 21 20 44l-12 1l-12 -1h-13q-72 0 -139 29q-45 22 -78 58q-29 30 -47 66q-3 6 -6 11q-4 9 -5 9
q-11 -4 -20 -12q-37 -26 -78 -44q-68 -34 -142 -52l-27 -6q-2 -1 -2 -10q0 -13 3.5 -35.5t8.5 -43.5q16 -67 52 -125q65 -94 165 -109zM748 -385q-23 0 -45 2q-89 13 -155 74q-95 89 -110 248l-1 13q-12 -1 -18.5 -1h-19.5q-37 0 -74 3q-94 12 -158 57q-82 60 -101 161
q-2 19 -2 37q0 21 3 42q21 108 119 155q42 20 86 20q48 0 95 -23q22 -11 41 -28t28 -34q6 -13 6 -24l-1 -7q-1 -2 -2.5 -3t-4.5 -1t-4.5 0.5t-2 2t-0.5 5.5q-8 45 -71 77q-40 20 -85 20q-51 0 -91 -30q-82 -56 -87 -164v-11l1 -27q21 -124 133 -182q51 -25 107 -30
q29 -3 58 -3l34 1l9 1q2 58 9 104t25 97q52 155 154 253q84 80 170 103l14 3.5t13.5 1.5h22.5h22.5t12 -1.5t11.5 -3.5q30 -8 52 -29q35 -33 35 -96v-18q14 -5 21.5 -8.5t20.5 -10.5q39 -27 66 -66q55 -85 55 -198q0 -66 -19 -140l-7 -26l-2 -6q0 -1 3 -1q7 0 27 7
q53 18 98 50q8 6 13 9t7.5 4t4.5 1h2q3 0 3 -2t-7 -8q-60 -53 -153 -75l-3 -1.5t-1 -1.5q-9 -25 -20 -49q-72 -150 -202 -213q-41 -19 -83 -27q-26 -3 -52 -3z" />
    <glyph glyph-name="O" unicode="&#xd4;" horiz-adv-x="1250" 
d="M1040 -84h21t14 1l8 1l5 16q24 73 26 150v14q0 68 -21 127t-60 99q-22 23 -51 37q-5 2 -7 2q-1 0 -1 -1l-5 -20q-12 -47 -37 -88q-54 -86 -132 -150l-15 -12q6 -19 16 -37q29 -54 79 -92q66 -47 160 -47zM498 -24l23 5q115 31 215 97l20 14l1.5 1.5t0.5 1.5q0 4 -4 17
q-7 27 -7 55q0 15 2 29q13 89 74 147q48 43 106 43h16v10q0 11 -2 21v2q-9 41 -34.5 63.5t-60.5 22.5q-9 0 -18 -1q-52 -9 -117 -61q-38 -31 -70 -69q-119 -150 -144 -337q-2 -16 -3 -30.5t-1 -22.5q0 -6 1 -7q0 -1 0.5 -1h1.5zM779 112q6 1 40 34q87 87 116 170
q4 14 7 30.5t3 22.5v1q-2 3 -12 3q-9 0 -22.5 -2.5t-23.5 -6.5q-27 -12 -49 -34q-66 -70 -66 -160v-11q1 -14 3 -28.5t4 -18.5zM750 -362q26 0 51 4q160 40 256 217q12 21 20 44l-12 1l-12 -1h-13q-72 0 -139 29q-45 22 -78 58q-29 30 -47 66q-3 6 -6 11q-4 9 -5 9
q-11 -4 -20 -12q-37 -26 -78 -44q-68 -34 -142 -52l-27 -6q-2 -1 -2 -10q0 -13 3.5 -35.5t8.5 -43.5q16 -67 52 -125q65 -94 165 -109zM748 -385q-23 0 -45 2q-89 13 -155 74q-95 89 -110 248l-1 13q-12 -1 -18.5 -1h-19.5q-37 0 -74 3q-94 12 -158 57q-82 60 -101 161
q-2 19 -2 37q0 21 3 42q21 108 119 155q42 20 86 20q48 0 95 -23q22 -11 41 -28t28 -34q6 -13 6 -24l-1 -7q-1 -2 -2.5 -3t-4.5 -1t-4.5 0.5t-2 2t-0.5 5.5q-8 45 -71 77q-40 20 -85 20q-51 0 -91 -30q-82 -56 -87 -164v-11l1 -27q21 -124 133 -182q51 -25 107 -30
q29 -3 58 -3l34 1l9 1q2 58 9 104t25 97q52 155 154 253q84 80 170 103l14 3.5t13.5 1.5h22.5h22.5t12 -1.5t11.5 -3.5q30 -8 52 -29q35 -33 35 -96v-18q14 -5 21.5 -8.5t20.5 -10.5q39 -27 66 -66q55 -85 55 -198q0 -66 -19 -140l-7 -26l-2 -6q0 -1 3 -1q7 0 27 7
q53 18 98 50q8 6 13 9t7.5 4t4.5 1h2q3 0 3 -2t-7 -8q-60 -53 -153 -75l-3 -1.5t-1 -1.5q-9 -25 -20 -49q-72 -150 -202 -213q-41 -19 -83 -27q-26 -3 -52 -3z" />
    <glyph glyph-name="O" unicode="&#xd3;" horiz-adv-x="1250" 
d="M1040 -84h21t14 1l8 1l5 16q24 73 26 150v14q0 68 -21 127t-60 99q-22 23 -51 37q-5 2 -7 2q-1 0 -1 -1l-5 -20q-12 -47 -37 -88q-54 -86 -132 -150l-15 -12q6 -19 16 -37q29 -54 79 -92q66 -47 160 -47zM498 -24l23 5q115 31 215 97l20 14l1.5 1.5t0.5 1.5q0 4 -4 17
q-7 27 -7 55q0 15 2 29q13 89 74 147q48 43 106 43h16v10q0 11 -2 21v2q-9 41 -34.5 63.5t-60.5 22.5q-9 0 -18 -1q-52 -9 -117 -61q-38 -31 -70 -69q-119 -150 -144 -337q-2 -16 -3 -30.5t-1 -22.5q0 -6 1 -7q0 -1 0.5 -1h1.5zM779 112q6 1 40 34q87 87 116 170
q4 14 7 30.5t3 22.5v1q-2 3 -12 3q-9 0 -22.5 -2.5t-23.5 -6.5q-27 -12 -49 -34q-66 -70 -66 -160v-11q1 -14 3 -28.5t4 -18.5zM750 -362q26 0 51 4q160 40 256 217q12 21 20 44l-12 1l-12 -1h-13q-72 0 -139 29q-45 22 -78 58q-29 30 -47 66q-3 6 -6 11q-4 9 -5 9
q-11 -4 -20 -12q-37 -26 -78 -44q-68 -34 -142 -52l-27 -6q-2 -1 -2 -10q0 -13 3.5 -35.5t8.5 -43.5q16 -67 52 -125q65 -94 165 -109zM748 -385q-23 0 -45 2q-89 13 -155 74q-95 89 -110 248l-1 13q-12 -1 -18.5 -1h-19.5q-37 0 -74 3q-94 12 -158 57q-82 60 -101 161
q-2 19 -2 37q0 21 3 42q21 108 119 155q42 20 86 20q48 0 95 -23q22 -11 41 -28t28 -34q6 -13 6 -24l-1 -7q-1 -2 -2.5 -3t-4.5 -1t-4.5 0.5t-2 2t-0.5 5.5q-8 45 -71 77q-40 20 -85 20q-51 0 -91 -30q-82 -56 -87 -164v-11l1 -27q21 -124 133 -182q51 -25 107 -30
q29 -3 58 -3l34 1l9 1q2 58 9 104t25 97q52 155 154 253q84 80 170 103l14 3.5t13.5 1.5h22.5h22.5t12 -1.5t11.5 -3.5q30 -8 52 -29q35 -33 35 -96v-18q14 -5 21.5 -8.5t20.5 -10.5q39 -27 66 -66q55 -85 55 -198q0 -66 -19 -140l-7 -26l-2 -6q0 -1 3 -1q7 0 27 7
q53 18 98 50q8 6 13 9t7.5 4t4.5 1h2q3 0 3 -2t-7 -8q-60 -53 -153 -75l-3 -1.5t-1 -1.5q-9 -25 -20 -49q-72 -150 -202 -213q-41 -19 -83 -27q-26 -3 -52 -3z" />
    <glyph glyph-name="O" unicode="&#xd2;" horiz-adv-x="1250" 
d="M1040 -84h21t14 1l8 1l5 16q24 73 26 150v14q0 68 -21 127t-60 99q-22 23 -51 37q-5 2 -7 2q-1 0 -1 -1l-5 -20q-12 -47 -37 -88q-54 -86 -132 -150l-15 -12q6 -19 16 -37q29 -54 79 -92q66 -47 160 -47zM498 -24l23 5q115 31 215 97l20 14l1.5 1.5t0.5 1.5q0 4 -4 17
q-7 27 -7 55q0 15 2 29q13 89 74 147q48 43 106 43h16v10q0 11 -2 21v2q-9 41 -34.5 63.5t-60.5 22.5q-9 0 -18 -1q-52 -9 -117 -61q-38 -31 -70 -69q-119 -150 -144 -337q-2 -16 -3 -30.5t-1 -22.5q0 -6 1 -7q0 -1 0.5 -1h1.5zM779 112q6 1 40 34q87 87 116 170
q4 14 7 30.5t3 22.5v1q-2 3 -12 3q-9 0 -22.5 -2.5t-23.5 -6.5q-27 -12 -49 -34q-66 -70 -66 -160v-11q1 -14 3 -28.5t4 -18.5zM750 -362q26 0 51 4q160 40 256 217q12 21 20 44l-12 1l-12 -1h-13q-72 0 -139 29q-45 22 -78 58q-29 30 -47 66q-3 6 -6 11q-4 9 -5 9
q-11 -4 -20 -12q-37 -26 -78 -44q-68 -34 -142 -52l-27 -6q-2 -1 -2 -10q0 -13 3.5 -35.5t8.5 -43.5q16 -67 52 -125q65 -94 165 -109zM748 -385q-23 0 -45 2q-89 13 -155 74q-95 89 -110 248l-1 13q-12 -1 -18.5 -1h-19.5q-37 0 -74 3q-94 12 -158 57q-82 60 -101 161
q-2 19 -2 37q0 21 3 42q21 108 119 155q42 20 86 20q48 0 95 -23q22 -11 41 -28t28 -34q6 -13 6 -24l-1 -7q-1 -2 -2.5 -3t-4.5 -1t-4.5 0.5t-2 2t-0.5 5.5q-8 45 -71 77q-40 20 -85 20q-51 0 -91 -30q-82 -56 -87 -164v-11l1 -27q21 -124 133 -182q51 -25 107 -30
q29 -3 58 -3l34 1l9 1q2 58 9 104t25 97q52 155 154 253q84 80 170 103l14 3.5t13.5 1.5h22.5h22.5t12 -1.5t11.5 -3.5q30 -8 52 -29q35 -33 35 -96v-18q14 -5 21.5 -8.5t20.5 -10.5q39 -27 66 -66q55 -85 55 -198q0 -66 -19 -140l-7 -26l-2 -6q0 -1 3 -1q7 0 27 7
q53 18 98 50q8 6 13 9t7.5 4t4.5 1h2q3 0 3 -2t-7 -8q-60 -53 -153 -75l-3 -1.5t-1 -1.5q-9 -25 -20 -49q-72 -150 -202 -213q-41 -19 -83 -27q-26 -3 -52 -3z" />
    <glyph glyph-name="P" unicode="P" horiz-adv-x="1108" 
d="M741 -172q8 0 16 2q42 14 95 106l5 9q0 2 -4 2.5t-14 1.5h-5l-35 2q-29 0 -47 -5q-28 -9 -43.5 -28t-15.5 -41q0 -8 2 -16q10 -21 30 -31q8 -2 16 -2zM525 -374q-4 0 -7 1l-7 6q-1 2 -1.5 5t-1 10t-0.5 20q3 92 15 182q27 188 27 298q0 70 -11 119q-23 122 -101 156
q-28 14 -61 14h-6q-25 0 -46.5 -5.5t-49.5 -18.5q-104 -53 -155 -158q-31 -60 -31 -126v-13q0 -46 18 -90q28 -69 83 -88q18 -5 36 -5h11q85 12 135 117q22 44 22 84l-1 16q0 2 0.5 2.5t1.5 1t4 0.5q4 0 5.5 -0.5t2 -2t1.5 -5.5q3 -9 3 -22q0 -26 -11.5 -60t-31.5 -63
q-20 -26 -44 -47q-27 -18 -58 -28h-1q-6 -2 -11 -3t-11.5 -1.5t-18.5 -0.5q-17 0 -24.5 1t-15.5 3q-77 21 -108 114q-7 21 -9.5 38.5t-2.5 48.5v25.5t1.5 15.5t3.5 16q14 68 53 126q73 113 203 144q28 6 56 6l31 -2q131 -17 173 -141q21 -57 23 -146l1 -34l6 16
q40 117 95 203.5t110 117.5q33 18 60 18q46 0 74 -39.5t41 -93t13 -96.5v-11q-3 -74 -25 -145t-54 -137l-7 -18l1 -1h3q6 -2 18 -3l10 -1q26 0 70.5 11t76.5 31q17 12 23 12q3 0 4 -2q0 -4 -22.5 -19t-61.5 -29.5t-91 -14.5l-31 2l-8 1q-56 -103 -130 -126q-18 -5 -38 -5
q-25 0 -46 11q-31 21 -31 55q3 75 105 89l23 2l22 -2l38 -2l6 -1l3 1q15 15 30 53.5t26 76.5t15 53q13 63 13 126q0 30 -3 61q-2 34 -13 75t-42 61q-10 5 -22 5q-24 0 -55 -22q-64 -50 -126 -175q-45 -92 -72 -190q-6 -20 -9 -31t-4.5 -21.5t-3.5 -26.5v-4
q-11 -115 -36 -259q-7 -40 -11 -62.5t-7 -33.5t-6 -14.5t-8 -4.5q-3 -1 -7 -1z" />
    <glyph glyph-name="Q" unicode="Q" horiz-adv-x="1250" 
d="M1040 -84h21t14 1l8 1l5 16q24 73 26 150v14q0 68 -21 127t-60 99q-22 23 -51 37q-5 2 -7 2q-1 0 -1 -1q-1 -1 -2 -6.5t-3 -13.5q-12 -47 -37 -88q-54 -86 -132 -150q-8 -5 -12 -9q-3 -3 -4 -3q7 -19 17 -37q29 -54 79 -92q66 -47 160 -47zM497 -24q2 0 6 1l12 3q3 0 6 1
q115 31 214 97q8 5 13.5 9t6.5 5t2 1.5t1 1.5l-4 17q-7 29 -7 59q0 12 1 25q15 89 74 147q49 43 107 43h16v10q0 11 -2 21v2q-9 41 -34.5 63.5t-60.5 22.5q-9 0 -18 -1q-51 -9 -118 -61q-37 -31 -69 -69q-119 -150 -144 -337q-2 -18 -3 -34t-1 -23v-3zM779 112q5 0 40 34
q87 87 115 170q4 14 7.5 30.5t3.5 22.5v1q-2 3 -12 3t-23 -2.5t-23 -6.5q-27 -12 -50 -34q-65 -70 -65 -160v-11q0 -13 2 -28t4 -19h1zM754 -363l27 2q6 0 12 2h2l-1 1q0 1 -1 2q-1 2 -3 5q-6 7 -15 18q-9 10 -19 23t-17 23q-30 40 -49.5 57t-38.5 21q-8 2 -14 2
q-12 0 -21 -7q-9 -5 -14 -5q-4 0 -4 3l1 4q2 4 9.5 9t16.5 8q4 1 7.5 2t8.5 1l19 -1q27 0 52 -15q44 -20 105 -98q15 -20 32 -37q25 11 48 24q88 58 143 147q7 12 15.5 28.5t15 30.5t6.5 16l-12 1l-12 -1h-13q-72 0 -140 29q-44 22 -77 58q-29 30 -47 66l-11 20
q-11 -4 -20 -12q-37 -26 -79 -44q-67 -34 -141 -52l-27 -6q-1 0 -1.5 -1.5t-0.5 -3.5l1 -12q5 -83 42 -158q23 -50 62 -88q68 -62 153 -62zM1028 -494l-15 1q-89 10 -181 96l-18 18q-19 -4 -32.5 -5.5t-34.5 -1.5t-41 3q-91 12 -158 74q-95 89 -110 248l-1 13
q-12 -1 -18.5 -1h-19.5q-37 0 -74 3q-94 12 -158 57q-82 60 -101 161q-2 19 -2 37q0 21 3 42q21 108 119 155q42 20 86 20q48 0 95 -23q22 -11 41 -28t28 -34q6 -13 6 -24l-1 -7q-1 -2 -2.5 -3t-4.5 -1t-4.5 0.5t-2 2t-0.5 5.5q-8 45 -71 77q-40 20 -85 20q-51 0 -91 -30
q-82 -56 -87 -164v-11l1 -27q21 -124 133 -182q51 -25 107 -30q29 -3 58 -3l34 1l9 1q2 58 9 104t25 97q52 155 154 253q83 81 170 103l14 3.5t13.5 1.5h22.5h22.5t12 -1.5t11.5 -3.5q29 -8 52 -29q35 -33 35 -96v-18q14 -5 21.5 -8.5t20.5 -10.5q39 -27 66 -66
q55 -85 55 -199q0 -66 -19 -139l-7 -26l-2 -6q0 -1 3 -1q7 0 27 7q53 18 98 50q8 6 13 9t7.5 4t4.5 1h2q3 0 3 -2t-7 -8q-60 -53 -153 -75l-3 -1.5t-1 -1.5q-9 -25 -20 -49q-72 -149 -202 -214l-18 -8q84 -85 153 -105q11 -3 21 -3q33 0 59 27q15 16 22 38t7 44
q0 25 -9.5 44t-27.5 21h-3q-14 0 -28 -14q-8 -7 -13 -7q-2 0 -3 2v2q0 6 8 14t18 12q12 3 22 3h4q10 0 20 -5q19 -9 27 -29q8 -18 8 -37v-10q0 -53 -39 -96q-30 -31 -83 -31z" />
    <glyph glyph-name="R" unicode="R" horiz-adv-x="1082" 
d="M658 31q3 0 13 2l25 5q35 10 79.5 33t81.5 51q113 88 149 195q14 42 14 85v14q-2 21 -7.5 34t-16.5 25q-21 22 -48 22q-31 0 -70 -26q-120 -78 -196 -342q-4 -14 -9.5 -36t-10.5 -41t-5 -21h1zM579 -357q-5 0 -8 6q-2 4 -2 21q0 19 3 65q6 86 8 139.5t2 115.5v63
q0 59 -1 85t-5 61q-21 206 -111 252q-25 12 -52 12q-17 0 -34 -5q-76 -19 -152 -93q-114 -112 -136 -255q-2 -21 -2 -42q0 -18 1 -35q19 -115 109 -132l14 -1q50 0 101 41.5t85 109.5q24 50 24 95l-1 19l-1 8q0 2 0.5 3t1.5 2l4 2h2q5 0 6 -3q4 -3 5.5 -9.5t1.5 -20.5v-22
q0 -15 -4 -31q-40 -130 -153 -189q-40 -18 -77 -18q-61 0 -102 46q-20 24 -30 54q-7 21 -10 43q-2 19 -2 38t2 38q19 125 108 237q48 56 109 96q77 46 148 46q16 0 30 -2q107 -18 151 -160q13 -41 19.5 -92.5t9.5 -129.5q0 -14 1 -19q0 -3 1 -4v-2q1 0 2 4q11 41 19.5 70.5
t22.5 68.5q55 155 133 228q46 45 95 59q16 5 32 5t33 -5q56 -23 72 -82q6 -24 6 -50q0 -75 -47 -155q-41 -69 -124 -127q-85 -59 -160 -75l-17 -3q20 -11 36 -29.5t33 -57.5l31 -86q26 -79 40 -110.5t27 -43.5q5 -2 10 -2q28 0 64.5 53.5t67 113t41.5 86.5q2 4 3 7
q11 23 17 34.5t9 16t6 4.5l4 -1q1 0 1.5 -1t0.5 -3v-3q-1 -9 -20 -56t-50 -107.5t-66.5 -109t-69.5 -59.5q-13 -4 -24 -4q-31 0 -51 25t-37 66q-3 9 -12 33.5t-18 52.5q-1 2 -2 5q-9 27 -17.5 50.5t-12.5 32.5q-22 53 -48 69q-5 4 -11 6t-9 2q-2 0 -3 -1t-3 -10.5t-4.5 -22
t-3.5 -21.5l-5 -50q-8 -83 -19.5 -150t-21.5 -88q-6 -12 -14 -12z" />
    <glyph glyph-name="S" unicode="S" horiz-adv-x="1035" 
d="M517 -190q7 0 16 4q27 13 38 54q4 13 4 19q0 4 -2 4q-16 -4 -33 -12q-37 -19 -42 -45v-3q0 -20 19 -21zM862 261q23 0 43 8.5t31 29.5q9 18 9 51q0 23 -8 48.5t-29.5 46t-60.5 30.5q-17 5 -35 5q-43 0 -84.5 -26t-62.5 -69q-10 -23 -13 -49v-11q8 -4 16 -7q28 -13 51 -22
t56 -19q18 -6 41 -11t46 -5zM648 -357l26 1q99 11 145 62q15 19 21 42q1 12 1 25q0 15 -2 29q-11 47 -35 87l-9 17h-51q-20 0 -43 -0.5t-36 -1.5q-14 -1 -28 -2.5t-24.5 -2.5t-11.5 -2v-2q-2 -6 -2 -12q-8 -57 -50 -79l-2 -1q-5 -2 -8.5 -3.5t-7.5 -2t-13 -0.5
q-7 0 -11.5 0.5t-7 1.5t-5.5 2q-12 7 -19 19l-2 9q0 14 12 31q16 17 37 27q21 11 44 17l6 1q2 1 2.5 1.5t0.5 3.5l-1 11q-3 32 -16.5 60t-32.5 43q-22 16 -48 16h-5q-28 -5 -51.5 -36t-34.5 -79q-3 -21 -3 -42t3 -42q35 -148 186 -188q38 -10 76 -10zM657 -382
q-100 0 -186 53.5t-111 159.5q-4 23 -4 46q0 21 3 42q23 112 100 133q10 1 20 1q30 0 57 -15q48 -31 61 -104l3 -19q0 -2 1 -2.5t3 -0.5l12 1q58 7 118 7l52 1q-14 26 -56 84q-7 10 -15 21q-35 50 -53.5 80t-31.5 57q-34 72 -34 134q0 16 2 30l1 6q-13 7 -23 13
q-11 7 -30 17.5t-56 30.5q-75 43 -119 62.5t-82 24.5q-17 2 -37 2q-28 0 -48 -4q-88 -26 -111 -142q-4 -25 -4 -50t4 -49q6 -30 20 -58q37 -69 92 -86q12 -2 23 -2q10 0 19 1q38 12 70.5 54t47.5 100q7 24 8 49q0 2 0.5 5t1.5 5l6 1q5 0 6 -4q1 -2 1.5 -6.5t0.5 -16.5
q-3 -46 -22.5 -90.5t-50.5 -73.5q-40 -38 -90 -38q-59 0 -105.5 53t-55.5 131l-1 24q0 49 16.5 94t44.5 73q49 44 124 44q66 0 147 -35q20 -9 44 -21.5t77 -42.5q12 -7 22 -13q24 -13 37 -20.5t18.5 -10.5t7.5 -3l1 1q13 46 46 80q31 30 73.5 47.5t84.5 17.5q25 0 47 -7
q60 -21 83 -59t23 -78q0 -11 -1 -22q-4 -44 -42 -67q-30 -16 -63 -16l-16 1q-65 7 -163 49q-12 6 -25 9q1 -24 5 -47q12 -51 35 -96q13 -25 31.5 -54.5t52.5 -77.5q20 -28 39 -56.5t28 -43.5q3 -5 4.5 -6.5t3.5 -1.5h3q4 1 7 1q46 8 81.5 18.5t78.5 37.5q23 15 30 15l4 -2
v-1q0 -4 -14 -14.5t-34 -22t-39 -18.5q-46 -18 -96 -24l-16 -3l8 -15q16 -27 27.5 -59t11.5 -64q0 -34 -18 -65q-24 -34 -63 -52.5t-78 -27.5q-42 -10 -85 -10z" />
    <glyph glyph-name="T" unicode="T" horiz-adv-x="1141" 
d="M778 -365q-15 0 -31 5q-33 12 -54.5 40.5t-30.5 60.5q-14 47 -14 114q0 58 11 130q20 126 70 269q4 8 4 15q-1 1 -6.5 3t-13.5 5q-4 2 -9 4q-26 10 -68.5 29t-81.5 38q-39 18 -85.5 38t-70.5 29q-76 29 -134 29l-22 -1q-137 -16 -156 -166l-1 -18q0 -76 52 -132
q31 -32 66 -34h8q39 0 67 29.5t37 77.5q2 12 2 23q0 10 -1 19q0 12 -1 18.5t-2.5 11l-3.5 10.5q-4 12 -12 23q-6 8 -6 10t4 2h2q12 0 25 -23q16 -28 16 -67q0 -25 -7 -52q-20 -65 -78 -88q-20 -6 -40 -6q-23 0 -45 8q-46 18 -75 66.5t-29 104.5v10q10 127 103 173
q43 21 100 21q37 0 79 -9q47 -10 102 -30.5t141 -60.5q84 -39 133.5 -59.5t102.5 -37.5q107 -33 187 -33q63 0 103 21q49 32 59 90q1 9 1 18q0 40 -23.5 70.5t-61.5 46.5q-36 15 -69 15q-43 0 -76 -25q-28 -25 -28 -59l2 -16q6 -21 18 -38q3 -4 3 -5l-5 -2q-5 0 -14 11
q-21 26 -21 55q0 35 30 64q17 15 39 21.5t46 6.5q38 0 73 -13q76 -25 103 -101q5 -17 5 -34q0 -15 -4 -31q-17 -57 -68 -87q-50 -27 -128 -27q-79 0 -180 28l-28 8v-1h-1q-1 -2 -2.5 -6.5t-4.5 -13t-7 -21.5q-66 -196 -66 -356l1 -35q2 -49 8 -78.5t19 -51.5q12 -21 33 -33
q7 -3 15 -3q12 0 27 6q66 30 130 92t110.5 121.5t60.5 80.5q10 16 16.5 26t10 14.5t6 6t4.5 1.5q6 0 6 -4t-5 -13q-59 -97 -138 -184.5t-139 -128.5q-21 -14 -45 -24.5t-49 -10.5z" />
    <glyph glyph-name="U" unicode="U" horiz-adv-x="1252" 
d="M974 1q3 1 31 47q75 126 134 260q45 109 45 159v8q-1 16 -5 16t-13 -11q-77 -93 -158 -347q-6 -19 -14 -49t-14 -55t-6 -28zM951 -387q-11 0 -20 5q-26 17 -35.5 62.5t-9.5 91.5q0 27 2 49q0 8 1 14v5q-1 0 -12 -11.5t-27 -28.5q-64 -71 -128 -112q-70 -49 -127 -54
q-9 -1 -18 -1q-51 0 -91 38q-21 23 -29.5 53.5t-8.5 64.5q0 37 6.5 75.5t14.5 73.5q5 25 9 46q15 88 22 138t9 88l1 34q0 68 -11 119q-29 100 -112 120l-22 1q-24 0 -47 -5q-89 -25 -149 -94q-67 -76 -73 -177v-10q0 -34 8 -67q30 -98 120 -108h7q72 0 117 85q31 63 31 117
q0 15 -2 28l-5 27v5q0 2 1 2.5t4 0.5h2q3 0 6 -4.5t7 -15.5q9 -26 9 -54l-1 -18q-5 -55 -33 -103q-28 -50 -68 -69q-30 -15 -61 -15h-6q-33 0 -62 12q-57 23 -81.5 65t-24.5 93q0 84 49.5 167.5t114.5 121.5q41 24 88 35q22 5 45 5q52 0 99 -24.5t75 -71.5q28 -44 33 -120
q2 -26 2 -53q0 -46 -7.5 -104t-24.5 -152q-28 -149 -28 -208q0 -25 4 -44q8 -39 27 -55.5t45 -16.5q34 0 75 21.5t76.5 49t56.5 47.5q47 45 89 94q2 3 4 5q4 5 5.5 7.5t2 4.5t0.5 5q0 5 2 17q20 158 96 337q37 99 96 186q2 3 4 5q12 19 28 38.5t37 28.5q9 3 18 3
q18 0 28 -12q5 -8 5 -25q0 -52 -48 -169q-77 -174 -181 -334q-7 -11 -11 -16q-3 -4 -4.5 -6.5t-2.5 -7t-2 -12.5q-1 -4 -2 -10q-11 -82 -11 -153q0 -50 3.5 -83.5t8.5 -36.5q3 -2 8 -2q27 0 85 62.5t113 139.5t80 129q5 12 8 18t5 8t4 2q3 0 6 -1.5t3 -6.5q0 -3 -2 -7
q-37 -77 -95 -162.5t-119 -147.5t-104 -62z" />
    <glyph glyph-name="U" unicode="&#xdc;" horiz-adv-x="1252" 
d="M974 1q3 1 31 47q75 126 134 260q45 109 45 159v8q-1 16 -5 16t-13 -11q-77 -93 -158 -347q-6 -19 -14 -49t-14 -55t-6 -28zM951 -387q-11 0 -20 5q-26 17 -35.5 62.5t-9.5 91.5q0 27 2 49q0 8 1 14v5q-1 0 -12 -11.5t-27 -28.5q-64 -71 -128 -112q-70 -49 -127 -54
q-9 -1 -18 -1q-51 0 -91 38q-21 23 -29.5 53.5t-8.5 64.5q0 37 6.5 75.5t14.5 73.5q5 25 9 46q15 88 22 138t9 88l1 34q0 68 -11 119q-29 100 -112 120l-22 1q-24 0 -47 -5q-89 -25 -149 -94q-67 -76 -73 -177v-10q0 -34 8 -67q30 -98 120 -108h7q72 0 117 85q31 63 31 117
q0 15 -2 28l-5 27v5q0 2 1 2.5t4 0.5h2q3 0 6 -4.5t7 -15.5q9 -26 9 -54l-1 -18q-5 -55 -33 -103q-28 -50 -68 -69q-30 -15 -61 -15h-6q-33 0 -62 12q-57 23 -81.5 65t-24.5 93q0 84 49.5 167.5t114.5 121.5q41 24 88 35q22 5 45 5q52 0 99 -24.5t75 -71.5q28 -44 33 -120
q2 -26 2 -53q0 -46 -7.5 -104t-24.5 -152q-28 -149 -28 -208q0 -25 4 -44q8 -39 27 -55.5t45 -16.5q34 0 75 21.5t76.5 49t56.5 47.5q47 45 89 94q2 3 4 5q4 5 5.5 7.5t2 4.5t0.5 5q0 5 2 17q20 158 96 337q37 99 96 186q2 3 4 5q12 19 28 38.5t37 28.5q9 3 18 3
q18 0 28 -12q5 -8 5 -25q0 -52 -48 -169q-77 -174 -181 -334q-7 -11 -11 -16q-3 -4 -4.5 -6.5t-2.5 -7t-2 -12.5q-1 -4 -2 -10q-11 -82 -11 -153q0 -50 3.5 -83.5t8.5 -36.5q3 -2 8 -2q27 0 85 62.5t113 139.5t80 129q5 12 8 18t5 8t4 2q3 0 6 -1.5t3 -6.5q0 -3 -2 -7
q-37 -77 -95 -162.5t-119 -147.5t-104 -62z" />
    <glyph glyph-name="U" unicode="&#xdb;" horiz-adv-x="1252" 
d="M974 1q3 1 31 47q75 126 134 260q45 109 45 159v8q-1 16 -5 16t-13 -11q-77 -93 -158 -347q-6 -19 -14 -49t-14 -55t-6 -28zM951 -387q-11 0 -20 5q-26 17 -35.5 62.5t-9.5 91.5q0 27 2 49q0 8 1 14v5q-1 0 -12 -11.5t-27 -28.5q-64 -71 -128 -112q-70 -49 -127 -54
q-9 -1 -18 -1q-51 0 -91 38q-21 23 -29.5 53.5t-8.5 64.5q0 37 6.5 75.5t14.5 73.5q5 25 9 46q15 88 22 138t9 88l1 34q0 68 -11 119q-29 100 -112 120l-22 1q-24 0 -47 -5q-89 -25 -149 -94q-67 -76 -73 -177v-10q0 -34 8 -67q30 -98 120 -108h7q72 0 117 85q31 63 31 117
q0 15 -2 28l-5 27v5q0 2 1 2.5t4 0.5h2q3 0 6 -4.5t7 -15.5q9 -26 9 -54l-1 -18q-5 -55 -33 -103q-28 -50 -68 -69q-30 -15 -61 -15h-6q-33 0 -62 12q-57 23 -81.5 65t-24.5 93q0 84 49.5 167.5t114.5 121.5q41 24 88 35q22 5 45 5q52 0 99 -24.5t75 -71.5q28 -44 33 -120
q2 -26 2 -53q0 -46 -7.5 -104t-24.5 -152q-28 -149 -28 -208q0 -25 4 -44q8 -39 27 -55.5t45 -16.5q34 0 75 21.5t76.5 49t56.5 47.5q47 45 89 94q2 3 4 5q4 5 5.5 7.5t2 4.5t0.5 5q0 5 2 17q20 158 96 337q37 99 96 186q2 3 4 5q12 19 28 38.5t37 28.5q9 3 18 3
q18 0 28 -12q5 -8 5 -25q0 -52 -48 -169q-77 -174 -181 -334q-7 -11 -11 -16q-3 -4 -4.5 -6.5t-2.5 -7t-2 -12.5q-1 -4 -2 -10q-11 -82 -11 -153q0 -50 3.5 -83.5t8.5 -36.5q3 -2 8 -2q27 0 85 62.5t113 139.5t80 129q5 12 8 18t5 8t4 2q3 0 6 -1.5t3 -6.5q0 -3 -2 -7
q-37 -77 -95 -162.5t-119 -147.5t-104 -62z" />
    <glyph glyph-name="U" unicode="&#xda;" horiz-adv-x="1252" 
d="M974 1q3 1 31 47q75 126 134 260q45 109 45 159v8q-1 16 -5 16t-13 -11q-77 -93 -158 -347q-6 -19 -14 -49t-14 -55t-6 -28zM951 -387q-11 0 -20 5q-26 17 -35.5 62.5t-9.5 91.5q0 27 2 49q0 8 1 14v5q-1 0 -12 -11.5t-27 -28.5q-64 -71 -128 -112q-70 -49 -127 -54
q-9 -1 -18 -1q-51 0 -91 38q-21 23 -29.5 53.5t-8.5 64.5q0 37 6.5 75.5t14.5 73.5q5 25 9 46q15 88 22 138t9 88l1 34q0 68 -11 119q-29 100 -112 120l-22 1q-24 0 -47 -5q-89 -25 -149 -94q-67 -76 -73 -177v-10q0 -34 8 -67q30 -98 120 -108h7q72 0 117 85q31 63 31 117
q0 15 -2 28l-5 27v5q0 2 1 2.5t4 0.5h2q3 0 6 -4.5t7 -15.5q9 -26 9 -54l-1 -18q-5 -55 -33 -103q-28 -50 -68 -69q-30 -15 -61 -15h-6q-33 0 -62 12q-57 23 -81.5 65t-24.5 93q0 84 49.5 167.5t114.5 121.5q41 24 88 35q22 5 45 5q52 0 99 -24.5t75 -71.5q28 -44 33 -120
q2 -26 2 -53q0 -46 -7.5 -104t-24.5 -152q-28 -149 -28 -208q0 -25 4 -44q8 -39 27 -55.5t45 -16.5q34 0 75 21.5t76.5 49t56.5 47.5q47 45 89 94q2 3 4 5q4 5 5.5 7.5t2 4.5t0.5 5q0 5 2 17q20 158 96 337q37 99 96 186q2 3 4 5q12 19 28 38.5t37 28.5q9 3 18 3
q18 0 28 -12q5 -8 5 -25q0 -52 -48 -169q-77 -174 -181 -334q-7 -11 -11 -16q-3 -4 -4.5 -6.5t-2.5 -7t-2 -12.5q-1 -4 -2 -10q-11 -82 -11 -153q0 -50 3.5 -83.5t8.5 -36.5q3 -2 8 -2q27 0 85 62.5t113 139.5t80 129q5 12 8 18t5 8t4 2q3 0 6 -1.5t3 -6.5q0 -3 -2 -7
q-37 -77 -95 -162.5t-119 -147.5t-104 -62z" />
    <glyph glyph-name="U" unicode="&#xd9;" horiz-adv-x="1252" 
d="M974 1q3 1 31 47q75 126 134 260q45 109 45 159v8q-1 16 -5 16t-13 -11q-77 -93 -158 -347q-6 -19 -14 -49t-14 -55t-6 -28zM951 -387q-11 0 -20 5q-26 17 -35.5 62.5t-9.5 91.5q0 27 2 49q0 8 1 14v5q-1 0 -12 -11.5t-27 -28.5q-64 -71 -128 -112q-70 -49 -127 -54
q-9 -1 -18 -1q-51 0 -91 38q-21 23 -29.5 53.5t-8.5 64.5q0 37 6.5 75.5t14.5 73.5q5 25 9 46q15 88 22 138t9 88l1 34q0 68 -11 119q-29 100 -112 120l-22 1q-24 0 -47 -5q-89 -25 -149 -94q-67 -76 -73 -177v-10q0 -34 8 -67q30 -98 120 -108h7q72 0 117 85q31 63 31 117
q0 15 -2 28l-5 27v5q0 2 1 2.5t4 0.5h2q3 0 6 -4.5t7 -15.5q9 -26 9 -54l-1 -18q-5 -55 -33 -103q-28 -50 -68 -69q-30 -15 -61 -15h-6q-33 0 -62 12q-57 23 -81.5 65t-24.5 93q0 84 49.5 167.5t114.5 121.5q41 24 88 35q22 5 45 5q52 0 99 -24.5t75 -71.5q28 -44 33 -120
q2 -26 2 -53q0 -46 -7.5 -104t-24.5 -152q-28 -149 -28 -208q0 -25 4 -44q8 -39 27 -55.5t45 -16.5q34 0 75 21.5t76.5 49t56.5 47.5q47 45 89 94q2 3 4 5q4 5 5.5 7.5t2 4.5t0.5 5q0 5 2 17q20 158 96 337q37 99 96 186q2 3 4 5q12 19 28 38.5t37 28.5q9 3 18 3
q18 0 28 -12q5 -8 5 -25q0 -52 -48 -169q-77 -174 -181 -334q-7 -11 -11 -16q-3 -4 -4.5 -6.5t-2.5 -7t-2 -12.5q-1 -4 -2 -10q-11 -82 -11 -153q0 -50 3.5 -83.5t8.5 -36.5q3 -2 8 -2q27 0 85 62.5t113 139.5t80 129q5 12 8 18t5 8t4 2q3 0 6 -1.5t3 -6.5q0 -3 -2 -7
q-37 -77 -95 -162.5t-119 -147.5t-104 -62z" />
    <glyph glyph-name="V" unicode="V" horiz-adv-x="1116" 
d="M914 -99l9 29q56 166 68 342q1 33 1 66q0 41 -2 82q-6 47 -16 54h-2q-3 0 -10 -6.5t-14 -17.5q-24 -36 -44 -104t-30 -144q-9 -64 -9 -113q0 -70 12 -111t24 -59t13 -18zM663 -385q-14 0 -28 2q-31 6 -53 27q-18 17 -28 38q-26 53 -37 132q-4 30 -6.5 59.5t-3.5 77
t-1 133.5q0 88 -1 137t-3.5 77t-7.5 51q-18 77 -66 102q-19 9 -41 9q-23 0 -52 -9q-65 -22 -135 -92q-109 -113 -109 -231l1 -20q7 -86 67 -148q36 -37 77 -38h4q45 0 82 41q54 54 74 163q9 38 10 77q1 17 2 22.5t5 5.5h3q2 -1 3.5 -2.5t2.5 -6.5t2 -14v-13q0 -25 -4 -59
t-11 -62q-20 -76 -71 -126q-18 -18 -40 -28q-15 -7 -26.5 -9.5t-31.5 -2.5h-6q-29 0 -55 13q-64 32 -99 117q-16 41 -16 82v7q0 128 116 249q70 71 138 93q32 12 66 12h7q21 0 31 -1.5t25 -6.5q81 -27 104 -131q5 -24 7.5 -50.5t3.5 -74t1 -135.5q0 -75 0.5 -115t2 -66
t4.5 -56q13 -153 53 -192q14 -16 36 -20l8 -1q46 0 116 70q59 61 107 166l9 21q-31 22 -48 58.5t-24 103.5q-1 15 -1 33q0 48 7 106t20 105q36 132 81 175q19 18 37 18l9 -1q23 -4 30 -45q6 -35 6 -90q0 -67 -9 -144q-20 -154 -77 -299q-1 -2 -1 -3q-3 -5 -4 -11q0 -1 4 -3
t10 -4l12 -4q5 -2 19 -2q16 0 40.5 7t51.5 29t52 65q6 10 10.5 13.5t6.5 3.5q5 0 5 -2q0 -3 -3 -8q-1 -1 -2 -3q-5 -13 -24 -41t-51.5 -52.5t-80.5 -24.5q-23 0 -49 8l-7 2q-35 -72 -62 -116t-69 -86q-45 -46 -88 -58q-18 -4 -37 -4z" />
    <glyph glyph-name="W" unicode="W" horiz-adv-x="1325" 
d="M1159 8q1 2 10.5 47.5t19.5 109t12 121.5q1 13 1.5 34t0.5 44q0 22 -0.5 41t-1.5 28q-7 49 -18 49q-4 0 -12 -10q-25 -28 -44.5 -86.5t-26.5 -125.5q-2 -27 -2 -53q0 -22 1 -44v-2q0 -41 14.5 -76t29 -56t16.5 -21zM534 -369l-20 2q-41 8 -66 56q-33 59 -33 165
q0 36 4 77q3 34 8.5 71t17.5 105q5 31 10 61q14 77 18 111q4 28 4 55q0 24 -3 37q-9 40 -40 49l-20 2l-21 -2q-51 -11 -115 -63q-39 -33 -72 -71q-41 -47 -72.5 -103.5t-40.5 -119.5q-2 -15 -2 -31q0 -32 11.5 -61.5t42.5 -45.5q23 -11 45 -11q36 0 67 22.5t53 55.5
q31 43 43 95q1 5 3 23.5t3.5 41t1.5 33.5q0 8 -1 8h2q8 0 13 -8q7 -14 7 -32q0 -23 -6 -46.5t-11 -39.5q-18 -58 -58 -105q-23 -27 -57 -45t-70 -18q-24 0 -47 10q-33 16 -50.5 48.5t-18.5 68.5v4q0 41 13.5 81.5t33.5 77.5q50 93 128 164t152 87q17 3 35 3q17 0 34 -3
q39 -9 58 -45q13 -23 13 -69q0 -63 -27 -210q-10 -59 -14.5 -88t-7.5 -52q-8 -62 -8 -115q0 -71 14 -124q23 -82 58 -82l8 1q33 10 77 82q103 174 168 413q9 33 13.5 50.5t7.5 36.5q11 51 18 59q9 7 21 7q13 0 21 -7q2 -1 3 -3t1 -6l-1 -14l-5 -49q-12 -83 -14 -166l-2 -93
q0 -83 6 -140q19 -141 72 -165l6 -1q26 0 69 50q57 76 92 163q8 22 18.5 53.5t16.5 52.5l4 13q-35 26 -56.5 61.5t-31.5 97.5q-3 29 -3 58q0 28 3 57q21 143 83 211q18 20 39 20q24 0 34.5 -21.5t13.5 -75.5l1 -38q0 -136 -48 -332l-8 -31q9 -12 30 -18t45 -6q22 0 42 5
t30 14q8 6 16 6q3 0 5.5 -1t2.5 -2q-48 -36 -102 -36q-37 0 -73 18q-4 -9 -6 -16q-45 -156 -109 -250q-49 -74 -106 -75h-7q-63 0 -101 72q-26 50 -33 135q-1 15 -2 58t-1 87q0 48 1 76l1 38l-7 -25q-11 -36 -26 -80t-30 -83q-23 -57 -50 -115.5t-45 -88.5q-38 -66 -86 -78
q-13 -3 -28 -3z" />
    <glyph glyph-name="X" unicode="X" horiz-adv-x="1125" 
d="M804 -435q-65 0 -117 61.5t-84 169.5q-6 21 -11.5 49.5t-7.5 43.5q0 2 -1 3q0 4 -2 7q0 -1 -1 -1l-1 -1q-3 -4 -12 -15q-14 -18 -34.5 -44.5t-42.5 -55.5q-70 -93 -120 -170q-1 -2 -2.5 -3t-3.5 -1h-2q-9 0 -9 6q0 11 29 56q32 53 83.5 126.5t100.5 134.5l1 1l6 9t2 6
l-1 6q0 5 -2.5 25.5t-6.5 47.5q-33 275 -85 379q-43 85 -105 106q-18 5 -36 5q-15 0 -30 -3q-56 -14 -99 -53q-85 -70 -110 -178q-8 -31 -8 -63q0 -46 16.5 -90t50.5 -78q40 -40 90 -40h8q65 9 99 68q29 56 32 119q0 9 4 15t9 6l4 -1q4 -2 5 -6t1 -8v-14q0 -48 -17 -93
q-22 -52 -70 -81q-35 -18 -73 -18q-56 0 -104 35q-75 64 -82 164l-1 20q0 95 54 183.5t146 123.5q40 13 81 13q55 0 101 -23q102 -56 146 -236q11 -44 22 -105.5t17 -113.5q2 -14 3 -24.5t2 -11.5q1 1 16.5 19t38.5 46q192 237 320 383l28 31q4 -1 7 -1q3 -1 5.5 -1.5
t6.5 -3.5q0 -1 -41 -52.5t-102 -126.5l-169 -209l-65 -82q-16 -20 -24.5 -31t-11.5 -15.5t-3 -7.5q0 -8 4 -36t9.5 -59t10.5 -51q8 -39 26 -87.5t49 -86t78 -42.5h5q81 0 182 145q33 49 59 98t59 126q5 12 8 16.5t6 4.5l4 -1q3 0 3 -5t-5 -21q-58 -144 -116 -234
t-113.5 -132t-106.5 -42z" />
    <glyph glyph-name="Y" unicode="Y" horiz-adv-x="1067" 
d="M596 -380q10 0 19 1q115 18 175 138q16 38 25 78l5 23q0 3 -2 3h-3q-2 -1 -9 -1.5t-16 -1.5q-58 -3 -115 -18q-75 -20 -119 -53q-56 -50 -56 -97q0 -9 2 -16q12 -44 71 -54q12 -2 23 -2zM917 199l16 23q75 119 81 189v6q0 20 -7 26l-3 1q-11 0 -28 -25q-15 -25 -30 -71.5
t-24 -100.5l-6 -46q0 -2 1 -2zM601 -403q-37 0 -71 13t-48 48q-5 13 -5 28q0 28 16 57.5t46 53.5q64 46 178 67q24 5 79 9l24 3q2 0 2.5 1t1.5 4t2 9q1 5 2 14q4 22 9 52.5t8 53.5l5 45l2 21q0 3 -1 3q-2 0 -10 -11q-57 -64 -123 -120q-50 -40 -104 -68.5t-94 -36.5
q-15 -3 -30 -3q-16 0 -32 4q-35 10 -49 34.5t-14 55.5q0 35 11 73t22 69q4 10 7 19q73 202 73 302q0 19 -6 40t-22 34q-18 11 -40 11q-28 0 -53 -10q-71 -24 -127 -72.5t-97 -109.5q-53 -72 -72 -158q-3 -15 -3 -31q0 -14 2 -27q6 -29 32 -47q18 -10 38 -10q13 0 27 5
q32 13 57 35q49 40 87.5 89t57.5 108q1 5 4 9t7 4h2q3 -1 4 -3.5t1 -6.5l-1 -7q-23 -68 -93.5 -147t-139.5 -98l-19 -2q-22 0 -41.5 9t-32.5 27q-16 29 -16 61q0 15 2 30q7 44 28 84.5t46 77.5q23 35 67.5 83.5t103 86.5t123.5 38q48 0 96 -28q28 -26 28 -86l-1 -26
q-2 -44 -18 -105t-52 -167q-8 -23 -13 -37q-6 -19 -9.5 -29.5t-5.5 -18t-5 -18.5q-8 -32 -8 -55q0 -33 15 -51q11 -16 34 -16q22 0 58 15q124 50 242 169q32 33 61 70q4 10 4 19q11 118 54 226q6 15 18.5 38t29.5 41.5t37 18.5q11 0 23 -8q14 -10 14 -35q0 -17 -6 -41
q-19 -63 -67 -142q-6 -10 -15.5 -24t-18 -27t-12.5 -18l-5 -7q-17 -168 -31 -260q0 -1 -1 -2q-1 -4 -1 -9h1q3 0 19 3.5t32 7.5q32 8 66.5 25.5t64.5 61.5q14 17 21 17l3 -2v-1q0 -6 -14 -25t-35 -39t-43 -31q-53 -24 -111 -33l-7 -1q-8 -37 -16 -66t-22 -61
q-60 -113 -185 -141q-24 -5 -52 -5z" />
    <glyph glyph-name="Y" unicode="&#x178;" horiz-adv-x="1067" 
d="M596 -380q10 0 19 1q115 18 175 138q16 38 25 78l5 23q0 3 -2 3h-3q-2 -1 -9 -1.5t-16 -1.5q-58 -3 -115 -18q-75 -20 -119 -53q-56 -50 -56 -97q0 -9 2 -16q12 -44 71 -54q12 -2 23 -2zM917 199l16 23q75 119 81 189v6q0 20 -7 26l-3 1q-11 0 -28 -25q-15 -25 -30 -71.5
t-24 -100.5l-6 -46q0 -2 1 -2zM601 -403q-37 0 -71 13t-48 48q-5 13 -5 28q0 28 16 57.5t46 53.5q64 46 178 67q24 5 79 9l24 3q2 0 2.5 1t1.5 4t2 9q1 5 2 14q4 22 9 52.5t8 53.5l5 45l2 21q0 3 -1 3q-2 0 -10 -11q-57 -64 -123 -120q-50 -40 -104 -68.5t-94 -36.5
q-15 -3 -30 -3q-16 0 -32 4q-35 10 -49 34.5t-14 55.5q0 35 11 73t22 69q4 10 7 19q73 202 73 302q0 19 -6 40t-22 34q-18 11 -40 11q-28 0 -53 -10q-71 -24 -127 -72.5t-97 -109.5q-53 -72 -72 -158q-3 -15 -3 -31q0 -14 2 -27q6 -29 32 -47q18 -10 38 -10q13 0 27 5
q32 13 57 35q49 40 87.5 89t57.5 108q1 5 4 9t7 4h2q3 -1 4 -3.5t1 -6.5l-1 -7q-23 -68 -93.5 -147t-139.5 -98l-19 -2q-22 0 -41.5 9t-32.5 27q-16 29 -16 61q0 15 2 30q7 44 28 84.5t46 77.5q23 35 67.5 83.5t103 86.5t123.5 38q48 0 96 -28q28 -26 28 -86l-1 -26
q-2 -44 -18 -105t-52 -167q-8 -23 -13 -37q-6 -19 -9.5 -29.5t-5.5 -18t-5 -18.5q-8 -32 -8 -55q0 -33 15 -51q11 -16 34 -16q22 0 58 15q124 50 242 169q32 33 61 70q4 10 4 19q11 118 54 226q6 15 18.5 38t29.5 41.5t37 18.5q11 0 23 -8q14 -10 14 -35q0 -17 -6 -41
q-19 -63 -67 -142q-6 -10 -15.5 -24t-18 -27t-12.5 -18l-5 -7q-17 -168 -31 -260q0 -1 -1 -2q-1 -4 -1 -9h1q3 0 19 3.5t32 7.5q32 8 66.5 25.5t64.5 61.5q14 17 21 17l3 -2v-1q0 -6 -14 -25t-35 -39t-43 -31q-53 -24 -111 -33l-7 -1q-8 -37 -16 -66t-22 -61
q-60 -113 -185 -141q-24 -5 -52 -5z" />
    <glyph glyph-name="Y" unicode="&#xdd;" horiz-adv-x="1067" 
d="M596 -380q10 0 19 1q115 18 175 138q16 38 25 78l5 23q0 3 -2 3h-3q-2 -1 -9 -1.5t-16 -1.5q-58 -3 -115 -18q-75 -20 -119 -53q-56 -50 -56 -97q0 -9 2 -16q12 -44 71 -54q12 -2 23 -2zM917 199l16 23q75 119 81 189v6q0 20 -7 26l-3 1q-11 0 -28 -25q-15 -25 -30 -71.5
t-24 -100.5l-6 -46q0 -2 1 -2zM601 -403q-37 0 -71 13t-48 48q-5 13 -5 28q0 28 16 57.5t46 53.5q64 46 178 67q24 5 79 9l24 3q2 0 2.5 1t1.5 4t2 9q1 5 2 14q4 22 9 52.5t8 53.5l5 45l2 21q0 3 -1 3q-2 0 -10 -11q-57 -64 -123 -120q-50 -40 -104 -68.5t-94 -36.5
q-15 -3 -30 -3q-16 0 -32 4q-35 10 -49 34.5t-14 55.5q0 35 11 73t22 69q4 10 7 19q73 202 73 302q0 19 -6 40t-22 34q-18 11 -40 11q-28 0 -53 -10q-71 -24 -127 -72.5t-97 -109.5q-53 -72 -72 -158q-3 -15 -3 -31q0 -14 2 -27q6 -29 32 -47q18 -10 38 -10q13 0 27 5
q32 13 57 35q49 40 87.5 89t57.5 108q1 5 4 9t7 4h2q3 -1 4 -3.5t1 -6.5l-1 -7q-23 -68 -93.5 -147t-139.5 -98l-19 -2q-22 0 -41.5 9t-32.5 27q-16 29 -16 61q0 15 2 30q7 44 28 84.5t46 77.5q23 35 67.5 83.5t103 86.5t123.5 38q48 0 96 -28q28 -26 28 -86l-1 -26
q-2 -44 -18 -105t-52 -167q-8 -23 -13 -37q-6 -19 -9.5 -29.5t-5.5 -18t-5 -18.5q-8 -32 -8 -55q0 -33 15 -51q11 -16 34 -16q22 0 58 15q124 50 242 169q32 33 61 70q4 10 4 19q11 118 54 226q6 15 18.5 38t29.5 41.5t37 18.5q11 0 23 -8q14 -10 14 -35q0 -17 -6 -41
q-19 -63 -67 -142q-6 -10 -15.5 -24t-18 -27t-12.5 -18l-5 -7q-17 -168 -31 -260q0 -1 -1 -2q-1 -4 -1 -9h1q3 0 19 3.5t32 7.5q32 8 66.5 25.5t64.5 61.5q14 17 21 17l3 -2v-1q0 -6 -14 -25t-35 -39t-43 -31q-53 -24 -111 -33l-7 -1q-8 -37 -16 -66t-22 -61
q-60 -113 -185 -141q-24 -5 -52 -5z" />
    <glyph glyph-name="Z" unicode="Z" horiz-adv-x="1080" 
d="M573 -348q15 0 30 3q135 32 155 174v18q0 29 -4 58l-4 18q-182 0 -250 -49q-27 -19 -44.5 -45t-20.5 -51l-1 -11q0 -34 23 -62q26 -30 62 -44q26 -9 54 -9zM929 289q23 0 46 3q83 13 102 61q2 4 2.5 7t0.5 6l-1 15q-1 11 -2.5 16t-5.5 10q-12 17 -32 27q-8 4 -20 4
q-40 0 -114 -46q-23 -14 -50 -33t-47 -35t-20 -18q41 -10 81 -13q30 -4 60 -4zM583 -370q-47 0 -89.5 19.5t-68.5 61.5q-16 27 -16 55q0 42 34 84q55 69 189 83q19 2 48.5 4t46.5 2h20q-12 48 -52.5 111t-112.5 124q0 1 1 2.5t2 2.5l1 1q3 3 9 9.5t14 13.5q49 50 85 84
q11 9 20 19q-8 4 -18 6q-4 2 -8 3q-50 13 -146 49q-52 20 -79 29t-53 17q-51 15 -102 24q-25 3 -51 3l-36 -2q-113 -19 -131 -124q-2 -8 -2 -16l2 -25q2 -19 8 -37q25 -57 73 -80q23 -11 48 -11h5q42 0 78 24q32 21 59 57.5t40 75.5q7 25 7 52l-1 6q0 8 6 8q12 0 12 -30
q0 -24 -10 -54q-41 -109 -138 -146q-25 -8 -51 -8q-20 0 -40 5q-55 14 -88.5 58t-33.5 100l1 17q16 118 146 142q23 2 46 2q19 0 38 -1q48 -5 105.5 -21.5t149.5 -50.5l71 -26q20 -7 44 -14.5t42.5 -13t21.5 -5.5q12 8 22 17q107 86 186 114q40 13 75 13q31 0 53 -11
q47 -29 47 -71q0 -27 -22 -54q-53 -52 -151 -52q-70 0 -138 13l-28 5q-4 -2 -26 -21.5t-47 -44.5q-21 -21 -36 -36.5t-15 -16.5q24 -10 56.5 -48.5t59 -85.5t33.5 -82l6 -19q38 -4 81 -4l42 1q50 3 95 24q24 12 45 30q9 8 18 14q2 0 4 -0.5t3 -1.5t2 -1.5t1 -1.5l-1 -4
q-3 -5 -13 -14.5t-21 -17.5q-36 -28 -102 -39q-24 -3 -81 -3h-68q2 -14 3 -22q1 -11 2 -19.5t1 -25.5q0 -49 -18 -92t-58 -77q-71 -55 -156 -55z" />
    <glyph glyph-name="a" unicode="a" horiz-adv-x="282" 
d="M55 -125q3 1 6 3l2 2q12 9 27 29t28 45q2 4 4 7q6 10 8.5 16t3.5 10t1 10v13q-2 30 -14 58q-1 1 -2 3q-3 7 -9 13l-4 4q-40 -26 -55 -105q-5 -30 -5 -61v-13q1 -13 4 -23.5t5 -10.5zM189 -151q-19 0 -31 13q-9 10 -13 24.5t-5 38.5l-1 25q-28 -52 -45.5 -74t-37.5 -23h-7
q-33 0 -47 38q-7 21 -7 48q0 43 15 87.5t39 67.5q23 21 52 21q12 0 24 -4q26 -9 32 -43l3 -15q2 7 4 13q3 10 5.5 18t8.5 19q3 5 10 7t15 2t15 -2t9 -7q-3 -13 -7 -27q-27 -77 -30 -158v-17q0 -34 5 -34h3q2 0 6 1.5t10.5 8.5t16.5 21.5t24.5 39t33.5 61.5q1 1 3 1.5t4 0.5
l5 -1v-1q0 -6 -14.5 -37.5t-34.5 -63.5t-38 -43q-13 -6 -25 -6z" />
    <glyph glyph-name="a" unicode="&#xe5;" horiz-adv-x="282" 
d="M55 -125q3 1 6 3l2 2q12 9 27 29t28 45q2 4 4 7q6 10 8.5 16t3.5 10t1 10v13q-2 30 -14 58q-1 1 -2 3q-3 7 -9 13l-4 4q-40 -26 -55 -105q-5 -30 -5 -61v-13q1 -13 4 -23.5t5 -10.5zM189 -151q-19 0 -31 13q-9 10 -13 24.5t-5 38.5l-1 25q-28 -52 -45.5 -74t-37.5 -23h-7
q-33 0 -47 38q-7 21 -7 48q0 43 15 87.5t39 67.5q23 21 52 21q12 0 24 -4q26 -9 32 -43l3 -15q2 7 4 13q3 10 5.5 18t8.5 19q3 5 10 7t15 2t15 -2t9 -7q-3 -13 -7 -27q-27 -77 -30 -158v-17q0 -34 5 -34h3q2 0 6 1.5t10.5 8.5t16.5 21.5t24.5 39t33.5 61.5q1 1 3 1.5t4 0.5
l5 -1v-1q0 -6 -14.5 -37.5t-34.5 -63.5t-38 -43q-13 -6 -25 -6z" />
    <glyph glyph-name="a" unicode="&#xe4;" horiz-adv-x="282" 
d="M55 -125q3 1 6 3l2 2q12 9 27 29t28 45q2 4 4 7q6 10 8.5 16t3.5 10t1 10v13q-2 30 -14 58q-1 1 -2 3q-3 7 -9 13l-4 4q-40 -26 -55 -105q-5 -30 -5 -61v-13q1 -13 4 -23.5t5 -10.5zM189 -151q-19 0 -31 13q-9 10 -13 24.5t-5 38.5l-1 25q-28 -52 -45.5 -74t-37.5 -23h-7
q-33 0 -47 38q-7 21 -7 48q0 43 15 87.5t39 67.5q23 21 52 21q12 0 24 -4q26 -9 32 -43l3 -15q2 7 4 13q3 10 5.5 18t8.5 19q3 5 10 7t15 2t15 -2t9 -7q-3 -13 -7 -27q-27 -77 -30 -158v-17q0 -34 5 -34h3q2 0 6 1.5t10.5 8.5t16.5 21.5t24.5 39t33.5 61.5q1 1 3 1.5t4 0.5
l5 -1v-1q0 -6 -14.5 -37.5t-34.5 -63.5t-38 -43q-13 -6 -25 -6z" />
    <glyph glyph-name="a" unicode="&#xe3;" horiz-adv-x="282" 
d="M55 -125q3 1 6 3l2 2q12 9 27 29t28 45q2 4 4 7q6 10 8.5 16t3.5 10t1 10v13q-2 30 -14 58q-1 1 -2 3q-3 7 -9 13l-4 4q-40 -26 -55 -105q-5 -30 -5 -61v-13q1 -13 4 -23.5t5 -10.5zM189 -151q-19 0 -31 13q-9 10 -13 24.5t-5 38.5l-1 25q-28 -52 -45.5 -74t-37.5 -23h-7
q-33 0 -47 38q-7 21 -7 48q0 43 15 87.5t39 67.5q23 21 52 21q12 0 24 -4q26 -9 32 -43l3 -15q2 7 4 13q3 10 5.5 18t8.5 19q3 5 10 7t15 2t15 -2t9 -7q-3 -13 -7 -27q-27 -77 -30 -158v-17q0 -34 5 -34h3q2 0 6 1.5t10.5 8.5t16.5 21.5t24.5 39t33.5 61.5q1 1 3 1.5t4 0.5
l5 -1v-1q0 -6 -14.5 -37.5t-34.5 -63.5t-38 -43q-13 -6 -25 -6z" />
    <glyph glyph-name="a" unicode="&#xe2;" horiz-adv-x="282" 
d="M55 -125q3 1 6 3l2 2q12 9 27 29t28 45q2 4 4 7q6 10 8.5 16t3.5 10t1 10v13q-2 30 -14 58q-1 1 -2 3q-3 7 -9 13l-4 4q-40 -26 -55 -105q-5 -30 -5 -61v-13q1 -13 4 -23.5t5 -10.5zM189 -151q-19 0 -31 13q-9 10 -13 24.5t-5 38.5l-1 25q-28 -52 -45.5 -74t-37.5 -23h-7
q-33 0 -47 38q-7 21 -7 48q0 43 15 87.5t39 67.5q23 21 52 21q12 0 24 -4q26 -9 32 -43l3 -15q2 7 4 13q3 10 5.5 18t8.5 19q3 5 10 7t15 2t15 -2t9 -7q-3 -13 -7 -27q-27 -77 -30 -158v-17q0 -34 5 -34h3q2 0 6 1.5t10.5 8.5t16.5 21.5t24.5 39t33.5 61.5q1 1 3 1.5t4 0.5
l5 -1v-1q0 -6 -14.5 -37.5t-34.5 -63.5t-38 -43q-13 -6 -25 -6z" />
    <glyph glyph-name="a" unicode="&#xe1;" horiz-adv-x="282" 
d="M55 -125q3 1 6 3l2 2q12 9 27 29t28 45q2 4 4 7q6 10 8.5 16t3.5 10t1 10v13q-2 30 -14 58q-1 1 -2 3q-3 7 -9 13l-4 4q-40 -26 -55 -105q-5 -30 -5 -61v-13q1 -13 4 -23.5t5 -10.5zM189 -151q-19 0 -31 13q-9 10 -13 24.5t-5 38.5l-1 25q-28 -52 -45.5 -74t-37.5 -23h-7
q-33 0 -47 38q-7 21 -7 48q0 43 15 87.5t39 67.5q23 21 52 21q12 0 24 -4q26 -9 32 -43l3 -15q2 7 4 13q3 10 5.5 18t8.5 19q3 5 10 7t15 2t15 -2t9 -7q-3 -13 -7 -27q-27 -77 -30 -158v-17q0 -34 5 -34h3q2 0 6 1.5t10.5 8.5t16.5 21.5t24.5 39t33.5 61.5q1 1 3 1.5t4 0.5
l5 -1v-1q0 -6 -14.5 -37.5t-34.5 -63.5t-38 -43q-13 -6 -25 -6z" />
    <glyph glyph-name="a" unicode="&#xe0;" horiz-adv-x="282" 
d="M55 -125q3 1 6 3l2 2q12 9 27 29t28 45q2 4 4 7q6 10 8.5 16t3.5 10t1 10v13q-2 30 -14 58q-1 1 -2 3q-3 7 -9 13l-4 4q-40 -26 -55 -105q-5 -30 -5 -61v-13q1 -13 4 -23.5t5 -10.5zM189 -151q-19 0 -31 13q-9 10 -13 24.5t-5 38.5l-1 25q-28 -52 -45.5 -74t-37.5 -23h-7
q-33 0 -47 38q-7 21 -7 48q0 43 15 87.5t39 67.5q23 21 52 21q12 0 24 -4q26 -9 32 -43l3 -15q2 7 4 13q3 10 5.5 18t8.5 19q3 5 10 7t15 2t15 -2t9 -7q-3 -13 -7 -27q-27 -77 -30 -158v-17q0 -34 5 -34h3q2 0 6 1.5t10.5 8.5t16.5 21.5t24.5 39t33.5 61.5q1 1 3 1.5t4 0.5
l5 -1v-1q0 -6 -14.5 -37.5t-34.5 -63.5t-38 -43q-13 -6 -25 -6z" />
    <glyph glyph-name="b" unicode="b" horiz-adv-x="316" 
d="M118 -122q5 0 21 15q10 12 19 24q7 12 13.5 24t6.5 15v1q-6 0 -12 -2q-24 -5 -40 -21.5t-16 -34.5q0 -7 2 -13t5 -8h1zM53 7q9 9 16 19q82 120 102 244q2 10 5 31.5t3 43.5q0 19 -4.5 33.5t-15.5 14.5q-1 0 -2 -0.5t-2 -1.5t-2 -1q0 -1 -1 -1q-19 -22 -33 -51
q-48 -102 -64 -286l-3 -42v-2t1 -1zM123 -145h-8q-31 6 -31 31l1 11q12 42 49 61q22 9 46 11q2 0 3.5 1t3 4.5t3.5 11.5q15 42 24 85q3 16 3 28t-3 16l-3 1q-2 0 -4 -1t-7 -3q-35 -18 -87 -105q-13 -22 -27 -50t-25 -51t-13 -31q-1 -7 -4 -10t-10 -3q-10 0 -15 7t-10 30
q-8 41 -8 95q0 76 16 174q26 140 67 205q16 23 38 38q14 7 28 7q24 0 38 -17q8 -11 11 -27.5t3 -33.5q0 -18 -2 -34t-4 -25q-18 -100 -65 -189q-18 -34 -33 -56t-33 -39l-15 -16q0 -12 -1 -17q0 -4 -0.5 -9t-0.5 -14l1 -14q6 8 10 17q50 104 98 155q31 32 58 32h4
q17 0 29 -13q6 -6 8.5 -13.5t3.5 -21.5v-10q0 -39 -19 -93l-4 -11q21 2 36 5.5t34 12.5q18 10 24 10q2 0 3 -2v-1q0 -2 -6.5 -7t-15.5 -10.5t-18 -8.5q-24 -7 -48 -9q-6 0 -9 -1t-4.5 -2t-1.5 -2q0 -2 -4 -10q-3 -5 -5 -10q-31 -64 -75 -75q-12 -4 -24 -4z" />
    <glyph glyph-name="c" unicode="c" horiz-adv-x="243" 
d="M88 -154q-10 0 -21 2q-55 10 -69 67q-3 14 -3 30q0 33 11 71t30 64q21 32 54 36l11 1q32 0 49 -23q5 -8 7.5 -17.5t3.5 -24.5v-9q0 -14 -3 -28q-4 -15 -7 -21t-7 -7q-7 0 -7 6l2 19q0 30 -12 58q-3 5 -6.5 9.5t-6.5 8t-5 3.5q-3 0 -10 -6t-13 -14q-19 -28 -29 -60
q-10 -38 -10 -68q0 -15 2 -26q4 -19 13.5 -33t19.5 -17q7 -2 15 -2q37 0 86 44q11 10 24.5 27.5t24.5 34.5q2 2 4 5q10 13 14.5 18.5t7.5 5.5q4 0 4 -5l-1 -5q-14 -27 -32 -51q-16 -20 -41 -45.5t-41 -34.5q-19 -9 -42 -12q-8 -1 -17 -1z" />
    <glyph glyph-name="c" unicode="&#xe7;" horiz-adv-x="243" 
d="M88 -154q-10 0 -21 2q-55 10 -69 67q-3 14 -3 30q0 33 11 71t30 64q21 32 54 36l11 1q32 0 49 -23q5 -8 7.5 -17.5t3.5 -24.5v-9q0 -14 -3 -28q-4 -15 -7 -21t-7 -7q-7 0 -7 6l2 19q0 30 -12 58q-3 5 -6.5 9.5t-6.5 8t-5 3.5q-3 0 -10 -6t-13 -14q-19 -28 -29 -60
q-10 -38 -10 -68q0 -15 2 -26q4 -19 13.5 -33t19.5 -17q7 -2 15 -2q37 0 86 44q11 10 24.5 27.5t24.5 34.5q2 2 4 5q10 13 14.5 18.5t7.5 5.5q4 0 4 -5l-1 -5q-14 -27 -32 -51q-16 -20 -41 -45.5t-41 -34.5q-19 -9 -42 -12q-8 -1 -17 -1z" />
    <glyph glyph-name="d" unicode="d" horiz-adv-x="355" 
d="M195 -2q16 11 34 25.5t32 31.5q35 44 51 101.5t16 113.5q0 47 -11 87q-6 20 -15 35.5t-16 15.5q-3 0 -10.5 -6t-13.5 -15q-21 -33 -35 -72q-17 -50 -28 -119t-11 -119v-15q1 -33 7 -64zM59 -125q4 0 11 6q29 24 59 86q6 12 8.5 20t2.5 16l-2 15q-9 47 -26 65q-5 5 -8 5
t-6 -3l-9 -9q-30 -35 -42 -101q-1 -13 -1 -28q0 -17 1.5 -33.5t4.5 -26.5q2 -12 7 -12zM51 -147l-9 1q-45 8 -48 77v11q0 49 17 92.5t44 65.5q19 15 43 15h4q11 0 16 -1t10 -3l8 -4l2 13q8 93 34 171.5t62 113.5q25 21 50 21q24 0 39 -20q14 -26 19 -53q6 -32 6 -68
q0 -98 -44 -194q-21 -40 -54 -71q-25 -20 -53 -35q6 -37 17 -67t30 -33q38 7 67.5 44t42.5 61q6 9 7 10q5 0 9 -1v-1q0 -3 -6 -15t-13 -22q-20 -33 -45 -60t-55 -34l-17 -2q-25 0 -40.5 15t-24.5 35t-14 37q-1 3 -2 5l-1 2l-3 -2l-14 -22q-12 -21 -23.5 -39t-20.5 -26
q-17 -17 -40 -17z" />
    <glyph glyph-name="e" unicode="e" horiz-adv-x="217" 
d="M77 -23q6 0 12 3q16 8 30.5 26t18.5 38l2 19q0 22 -10 35l-4 5q-26 -12 -41 -37q-17 -27 -28 -57l-4 -13q5 -9 9.5 -14t14.5 -5zM71 -149h-8q-1 0 -2 1q-2 0 -5 1q-9 2 -20.5 8.5t-22 19.5t-16.5 36q-2 15 -2 31q0 18 3 35q16 74 59 117q28 28 61 28l10 -1q44 -5 44 -43
v-7q0 -10 -3 -20q-14 -57 -65 -86q-12 -5 -25 -5q-10 0 -20 3q-6 2 -12 2v-1q0 -1 -1 -1v-4q-2 -7 -3.5 -17.5t-1.5 -22.5q0 -14 3.5 -26.5t13.5 -19.5q11 -6 23 -6q26 0 52.5 21t47 46t29.5 38l2 2q8 11 12 15.5t7 4.5l3 -1q2 -1 2 -3q0 -10 -22 -39q-16 -22 -39.5 -46.5
t-50.5 -42t-53 -17.5z" />
    <glyph glyph-name="e" unicode="&#xeb;" horiz-adv-x="217" 
d="M77 -23q6 0 12 3q16 8 30.5 26t18.5 38l2 19q0 22 -10 35l-4 5q-26 -12 -41 -37q-17 -27 -28 -57l-4 -13q5 -9 9.5 -14t14.5 -5zM71 -149h-8q-1 0 -2 1q-2 0 -5 1q-9 2 -20.5 8.5t-22 19.5t-16.5 36q-2 15 -2 31q0 18 3 35q16 74 59 117q28 28 61 28l10 -1q44 -5 44 -43
v-7q0 -10 -3 -20q-14 -57 -65 -86q-12 -5 -25 -5q-10 0 -20 3q-6 2 -12 2v-1q0 -1 -1 -1v-4q-2 -7 -3.5 -17.5t-1.5 -22.5q0 -14 3.5 -26.5t13.5 -19.5q11 -6 23 -6q26 0 52.5 21t47 46t29.5 38l2 2q8 11 12 15.5t7 4.5l3 -1q2 -1 2 -3q0 -10 -22 -39q-16 -22 -39.5 -46.5
t-50.5 -42t-53 -17.5z" />
    <glyph glyph-name="e" unicode="&#xea;" horiz-adv-x="217" 
d="M77 -23q6 0 12 3q16 8 30.5 26t18.5 38l2 19q0 22 -10 35l-4 5q-26 -12 -41 -37q-17 -27 -28 -57l-4 -13q5 -9 9.5 -14t14.5 -5zM71 -149h-8q-1 0 -2 1q-2 0 -5 1q-9 2 -20.5 8.5t-22 19.5t-16.5 36q-2 15 -2 31q0 18 3 35q16 74 59 117q28 28 61 28l10 -1q44 -5 44 -43
v-7q0 -10 -3 -20q-14 -57 -65 -86q-12 -5 -25 -5q-10 0 -20 3q-6 2 -12 2v-1q0 -1 -1 -1v-4q-2 -7 -3.5 -17.5t-1.5 -22.5q0 -14 3.5 -26.5t13.5 -19.5q11 -6 23 -6q26 0 52.5 21t47 46t29.5 38l2 2q8 11 12 15.5t7 4.5l3 -1q2 -1 2 -3q0 -10 -22 -39q-16 -22 -39.5 -46.5
t-50.5 -42t-53 -17.5z" />
    <glyph glyph-name="e" unicode="&#xe9;" horiz-adv-x="217" 
d="M77 -23q6 0 12 3q16 8 30.5 26t18.5 38l2 19q0 22 -10 35l-4 5q-26 -12 -41 -37q-17 -27 -28 -57l-4 -13q5 -9 9.5 -14t14.5 -5zM71 -149h-8q-1 0 -2 1q-2 0 -5 1q-9 2 -20.5 8.5t-22 19.5t-16.5 36q-2 15 -2 31q0 18 3 35q16 74 59 117q28 28 61 28l10 -1q44 -5 44 -43
v-7q0 -10 -3 -20q-14 -57 -65 -86q-12 -5 -25 -5q-10 0 -20 3q-6 2 -12 2v-1q0 -1 -1 -1v-4q-2 -7 -3.5 -17.5t-1.5 -22.5q0 -14 3.5 -26.5t13.5 -19.5q11 -6 23 -6q26 0 52.5 21t47 46t29.5 38l2 2q8 11 12 15.5t7 4.5l3 -1q2 -1 2 -3q0 -10 -22 -39q-16 -22 -39.5 -46.5
t-50.5 -42t-53 -17.5z" />
    <glyph glyph-name="e" unicode="&#xe8;" horiz-adv-x="217" 
d="M77 -23q6 0 12 3q16 8 30.5 26t18.5 38l2 19q0 22 -10 35l-4 5q-26 -12 -41 -37q-17 -27 -28 -57l-4 -13q5 -9 9.5 -14t14.5 -5zM71 -149h-8q-1 0 -2 1q-2 0 -5 1q-9 2 -20.5 8.5t-22 19.5t-16.5 36q-2 15 -2 31q0 18 3 35q16 74 59 117q28 28 61 28l10 -1q44 -5 44 -43
v-7q0 -10 -3 -20q-14 -57 -65 -86q-12 -5 -25 -5q-10 0 -20 3q-6 2 -12 2v-1q0 -1 -1 -1v-4q-2 -7 -3.5 -17.5t-1.5 -22.5q0 -14 3.5 -26.5t13.5 -19.5q11 -6 23 -6q26 0 52.5 21t47 46t29.5 38l2 2q8 11 12 15.5t7 4.5l3 -1q2 -1 2 -3q0 -10 -22 -39q-16 -22 -39.5 -46.5
t-50.5 -42t-53 -17.5z" />
    <glyph glyph-name="f" unicode="f" horiz-adv-x="185" 
d="M70 -426q1 0 3 3l3 3q18 32 18 79q0 54 -24 107q-2 5 -6.5 12.5t-9.5 15l-9 13.5q-2 2 -2 3l-2 2q-1 0 -1 -16q0 -24 2 -64.5t5 -62.5q5 -40 12 -67.5t11 -27.5zM55 9q2 0 10 15q28 50 47 102q31 79 31 134q0 22 -5 41l-1.5 4.5t-1.5 1.5l-2 -1q-3 -3 -8.5 -14.5
t-12 -26.5t-10.5 -27q-29 -97 -43 -197l-5 -31zM63 -451l-12 1q-27 7 -43 55q-19 59 -19 196v21q2 173 39 315q32 132 75 175q12 15 30 15h6q10 0 15 -5.5t7 -19.5q2 -19 2 -39q0 -19 -2 -39q-16 -82 -54 -157q-18 -39 -45 -72q-5 -6 -7 -8t-3 -3.5t-1.5 -3t-0.5 -4.5t-1 -8
q-2 -12 -4 -38.5t-3 -49.5l-1 -12q0 -2 0.5 -3t1.5 -1q2 0 11 5t20 12t19 13q46 36 82 81q11 14 16.5 19t7.5 5q4 0 4 -3q0 -7 -16 -29q-46 -62 -114 -102q-10 -6 -16 -10t-9.5 -6t-4.5 -3t-1 -2q7 -12 16 -23q26 -33 38 -62.5t17 -68.5q4 -28 4 -51q0 -68 -31 -86
q-11 -4 -23 -4z" />
    <glyph glyph-name="g" unicode="g" horiz-adv-x="310" 
d="M14 -576q8 0 15 4q9 5 20 17t18 26q28 53 52 165q5 21 11 51.5t10.5 56t4.5 29.5q0 2 -1 2q-2 0 -9 -5t-24 -18q-66 -50 -98 -88q-59 -75 -59 -144q0 -25 9 -47q7 -16 17 -28.5t20 -17.5q7 -3 14 -3zM52 -119q6 4 10 8l8 8l2 2q14 14 27.5 33.5t31.5 51.5q7 13 10.5 20
t3.5 13t-4 16q-4 11 -10.5 23t-13 20.5t-10.5 8.5t-12 -6t-14 -14q-20 -26 -31 -78q-2 -10 -3 -19.5t-1 -32.5q0 -22 1 -30.5t2 -13.5zM16 -590l-17 2q-36 9 -56 52q-12 23 -12 49v5q0 47 24 92q34 77 177 176q9 6 17 15l13 108q2 29 4 60t2 40v2l-9 -16q-13 -26 -28 -53
t-24 -41t-20 -25t-19 -15q-8 -3 -16 -3h-6q-42 0 -50 51q-3 14 -3 30q0 33 10 69.5t26 61.5q29 40 74 40h9q19 0 34 -14q12 -15 18 -33q1 -3 1.5 -5.5t1.5 -3.5l1 -1q1 0 3 5t3 12q2 20 12 24q8 3 16 3q7 0 15 -3q5 -2 7 -6t2 -14l-2 -26q-2 -13 -3 -32t-2 -35
q-2 -21 -3 -37q-1 -20 -2.5 -36t-3.5 -35l-3 -30v-2q2 1 20 20.5t40.5 51t38.5 66.5q6 12 9 16.5t7 4.5q5 0 5 -4t-3 -10q-23 -59 -61 -105.5t-55 -58.5q-2 -1 -3 -2.5t-2 -5t-2 -11t-3 -19.5q-1 -2 -1 -4q-14 -99 -31 -162.5t-45 -118.5q-32 -69 -78 -84q-13 -5 -27 -5z
" />
    <glyph glyph-name="h" unicode="h" horiz-adv-x="319" 
d="M52 37q2 0 11 17q30 51 55 115.5t32 110.5q3 19 3 39q0 17 -2 31t-5 20l-2 5q-47 -52 -75 -185q-13 -69 -18 -139v-10q0 -4 1 -4zM218 -167l-10 1q-39 8 -39 72q0 23 5 55t22 110q4 20 4 32l-1 8q0 3 -4 3q-3 0 -12 -5q-42 -24 -86 -121q-18 -42 -30.5 -75.5t-14.5 -47.5
q-1 -10 -3.5 -13.5t-10.5 -3.5h-2q-6 0 -10 5q-8 9 -17 53q-10 46 -10 93v13q0 110 27 217q37 143 94 167q11 4 22 4q13 0 22 -5q6 -3 11 -9q7 -11 7 -38q0 -31 -10 -79q-14 -62 -48.5 -139.5t-65.5 -114.5l-7 -9q-1 -16 -1 -23q0 -6 -0.5 -12.5t-0.5 -17.5l2 -30
q15 42 29 74t39 72q12 17 27 32q16 15 27.5 21.5t25.5 7.5h6q19 0 29 -10q12 -10 12 -37q0 -24 -10 -70q-18 -86 -18 -121q0 -12 1.5 -19.5t3.5 -11t3.5 -5t3.5 -2.5h2q16 0 35 27t34.5 59t22.5 49q4 8 4 9q3 2 6 2q2 0 3.5 -1.5t1.5 -3.5t-4.5 -14t-11 -26.5t-12.5 -26.5
q-17 -38 -40 -66.5t-53 -28.5z" />
    <glyph glyph-name="i" unicode="i" horiz-adv-x="162" 
d="M52 -154l-10 1q-40 10 -46 73v8q0 24 5.5 64t13 72.5t12.5 38.5q6 3 12 5l9 1q14 0 22 -7l4 -4q-6 -25 -10 -42q-2 -13 -6 -30q-4 -25 -6 -40.5t-2.5 -28t-0.5 -33.5v-27t1 -13.5t2 -8.5q2 -6 3.5 -8.5t4.5 -2.5q4 0 10 3q17 9 41 39t46 71q5 8 8 14t5 8q3 3 6 3t5 -3v-1
q0 -5 -5.5 -18t-14 -29t-16.5 -28q-51 -77 -93 -77zM70 150h-4q-8 0 -16 4q-7 3 -12 11q-2 5 -2 12q0 8 3.5 17t10.5 14q10 6 22 6q5 0 10 -1q10 -1 17 -10q11 -12 11 -24t-11 -22q-8 -7 -29 -7z" />
    <glyph glyph-name="i" unicode="&#xef;" horiz-adv-x="162" 
d="M52 -154l-10 1q-40 10 -46 73v8q0 24 5.5 64t13 72.5t12.5 38.5q6 3 12 5l9 1q14 0 22 -7l4 -4q-6 -25 -10 -42q-2 -13 -6 -30q-4 -25 -6 -40.5t-2.5 -28t-0.5 -33.5v-27t1 -13.5t2 -8.5q2 -6 3.5 -8.5t4.5 -2.5q4 0 10 3q17 9 41 39t46 71q5 8 8 14t5 8q3 3 6 3t5 -3v-1
q0 -5 -5.5 -18t-14 -29t-16.5 -28q-51 -77 -93 -77zM70 150h-4q-8 0 -16 4q-7 3 -12 11q-2 5 -2 12q0 8 3.5 17t10.5 14q10 6 22 6q5 0 10 -1q10 -1 17 -10q11 -12 11 -24t-11 -22q-8 -7 -29 -7z" />
    <glyph glyph-name="i" unicode="&#xee;" horiz-adv-x="162" 
d="M52 -154l-10 1q-40 10 -46 73v8q0 24 5.5 64t13 72.5t12.5 38.5q6 3 12 5l9 1q14 0 22 -7l4 -4q-6 -25 -10 -42q-2 -13 -6 -30q-4 -25 -6 -40.5t-2.5 -28t-0.5 -33.5v-27t1 -13.5t2 -8.5q2 -6 3.5 -8.5t4.5 -2.5q4 0 10 3q17 9 41 39t46 71q5 8 8 14t5 8q3 3 6 3t5 -3v-1
q0 -5 -5.5 -18t-14 -29t-16.5 -28q-51 -77 -93 -77zM70 150h-4q-8 0 -16 4q-7 3 -12 11q-2 5 -2 12q0 8 3.5 17t10.5 14q10 6 22 6q5 0 10 -1q10 -1 17 -10q11 -12 11 -24t-11 -22q-8 -7 -29 -7z" />
    <glyph glyph-name="i" unicode="&#xed;" horiz-adv-x="162" 
d="M52 -154l-10 1q-40 10 -46 73v8q0 24 5.5 64t13 72.5t12.5 38.5q6 3 12 5l9 1q14 0 22 -7l4 -4q-6 -25 -10 -42q-2 -13 -6 -30q-4 -25 -6 -40.5t-2.5 -28t-0.5 -33.5v-27t1 -13.5t2 -8.5q2 -6 3.5 -8.5t4.5 -2.5q4 0 10 3q17 9 41 39t46 71q5 8 8 14t5 8q3 3 6 3t5 -3v-1
q0 -5 -5.5 -18t-14 -29t-16.5 -28q-51 -77 -93 -77zM70 150h-4q-8 0 -16 4q-7 3 -12 11q-2 5 -2 12q0 8 3.5 17t10.5 14q10 6 22 6q5 0 10 -1q10 -1 17 -10q11 -12 11 -24t-11 -22q-8 -7 -29 -7z" />
    <glyph glyph-name="i" unicode="&#xec;" horiz-adv-x="162" 
d="M52 -154l-10 1q-40 10 -46 73v8q0 24 5.5 64t13 72.5t12.5 38.5q6 3 12 5l9 1q14 0 22 -7l4 -4q-6 -25 -10 -42q-2 -13 -6 -30q-4 -25 -6 -40.5t-2.5 -28t-0.5 -33.5v-27t1 -13.5t2 -8.5q2 -6 3.5 -8.5t4.5 -2.5q4 0 10 3q17 9 41 39t46 71q5 8 8 14t5 8q3 3 6 3t5 -3v-1
q0 -5 -5.5 -18t-14 -29t-16.5 -28q-51 -77 -93 -77zM70 150h-4q-8 0 -16 4q-7 3 -12 11q-2 5 -2 12q0 8 3.5 17t10.5 14q10 6 22 6q5 0 10 -1q10 -1 17 -10q11 -12 11 -24t-11 -22q-8 -7 -29 -7z" />
    <glyph glyph-name="j" unicode="j" horiz-adv-x="148" 
d="M-94 -552q5 0 12 12q33 45 50 141q3 16 6.5 43t6 51.5t2.5 31.5v2q-3 0 -16.5 -12.5t-28.5 -28.5t-23 -26q-27 -35 -40 -79q-6 -26 -6 -49q0 -51 26 -79q7 -7 11 -7zM55 150h-4q-8 0 -16 4q-7 3 -12 11q-2 5 -2 12q0 8 3.5 17t10.5 14q10 6 22 6q5 0 10 -1q11 -1 17 -10
q11 -12 11 -24t-11 -22q-5 -4 -11.5 -5.5t-17.5 -1.5zM-90 -576q-12 0 -22 1q-25 9 -37 33q-6 11 -8.5 23.5t-2.5 32.5q0 41 14 78q15 40 41.5 74t75.5 75l15 14q2 11 2 23q5 54 8 90t6 75q2 13 3 30t2 29q2 48 10 96q3 8 6.5 12t10.5 6l9 1q9 0 15.5 -3t7.5 -8v-4
q0 -13 -5 -61l-16 -210q-2 -14 -2 -29q5 0 41 51t75 145q1 2 3 2t3.5 -1.5t1.5 -3.5q-19 -74 -57.5 -133.5t-69.5 -85.5q-2 -7 -2 -15q-15 -190 -46 -261q-22 -55 -53 -70q-5 -2 -8.5 -3.5t-7.5 -2t-12 -0.5h-1z" />
    <glyph glyph-name="k" unicode="k" horiz-adv-x="257" 
d="M110 21l17 10q30 20 53 44.5t23 35.5q0 3 -3 3q-6 0 -20 -10t-28 -24q-8 -8 -17.5 -21t-17 -24t-7.5 -14zM54 50l7 11q66 108 86 211q3 21 3 48q0 26 -3 44q-3 16 -6 16l-4 -6q-40 -73 -73 -252q-11 -59 -11 -70zM21 -156q-3 0 -8 1q-3 1 -6 8t-5 18q-6 38 -6 92
q0 42 4 76q13 101 37 200q39 174 103 174h5q10 -1 16 -4.5t10 -11.5q7 -16 7 -45q0 -61 -29 -152q-17 -50 -43 -98t-50 -75l-8 -9q-1 -5 -1 -10q-7 -46 -7 -63v-11l9 18q5 9 7 14t2 8q0 2 -0.5 2.5l-1.5 1.5l-3 4q8 10 17 16q11 12 17 25q12 19 25 37q17 24 39 43
q23 20 53 25h3q11 0 21.5 -6t10.5 -19q0 -25 -32.5 -56.5t-80.5 -54.5q-7 -2 -15 -8q0 -4 1 -10q1 -8 2 -16.5t2 -14.5q5 -28 16 -50.5t20 -22.5q23 3 48 35t44 66l16 28l5 1l5 -1q4 -3 4 -8v-3q-1 0 -1 -1q-2 -4 -8 -15q-9 -17 -24 -40.5t-32.5 -44t-34.5 -29.5
q-16 -8 -31 -8q-27 0 -46.5 21t-27.5 49v2q-2 7 -4 13q-2 0 -8.5 -14t-14.5 -35q-4 -11 -7 -23q-1 -10 -4 -14t-10 -5z" />
    <glyph glyph-name="l" unicode="l" horiz-adv-x="197" 
d="M59 5q5 3 8 9q28 45 49 95q39 90 49 188l1 28q0 15 -1 28t-2 18q-1 6 -3 11.5t-3.5 9t-2.5 3.5q-2 0 -10 -11.5t-15 -24.5q-21 -44 -34 -91q-24 -81 -33 -163q-2 -15 -3 -41t-1 -43q0 -15 1 -16zM96 -150l-11 2q-33 11 -49 38t-22 59q-8 41 -8 83q0 45 6 89
q28 199 96 273q12 12 21 16.5t22 4.5q20 0 28 -14t8 -52v-16q0 -101 -49 -221q-41 -96 -73 -119q-3 -2 -4.5 -3.5t-1.5 -5.5l3 -19q4 -31 11.5 -57t24.5 -36q3 -2 7 -2q14 0 34 23.5t36.5 52t23.5 45.5q1 1 1 3q1 2 2.5 4t3.5 2h1q3 -1 4 -3.5t1 -5.5l-1 -5q-16 -46 -48 -91
t-67 -45z" />
    <glyph glyph-name="m" unicode="m" horiz-adv-x="422" 
d="M333 -151q-10 0 -19 4q-27 14 -27 63q0 21 4.5 50.5t16.5 78.5q9 38 9 55q0 8 -2 13q-1 2 -5 2q-8 0 -21.5 -9t-19.5 -17q-54 -66 -71 -150q-5 -20 -9.5 -26.5t-15.5 -6.5h-2q-5 0 -9.5 3t-6.5 9q-3 7 -3 25q0 24 5 67q3 26 3 44q0 35 -5 37q-1 0 -6.5 -5.5t-11.5 -13.5
t-12 -17q-26 -40 -49.5 -92.5t-31.5 -90.5q-1 -10 -6 -19q-6 -4 -12 -4l-8 2q-2 1 -4 3t-3 4q-4 8 -7 29t-3 42l1 19q4 38 11.5 80.5t13.5 61.5q7 19 31 19q6 0 13 -3t8 -6q0 -13 -4 -26q-3 -14 -7.5 -37t-8 -43.5t-3.5 -23.5v-1q1 1 4.5 8t8.5 18q24 51 60 96q15 20 32 20
h3q38 0 38 -67v-3l1 -26q62 117 115 117q25 0 33.5 -18.5t8.5 -42.5q0 -19 -3 -37.5t-6 -30.5q-14 -87 -14 -115q0 -8 0.5 -12.5t1.5 -6.5q0 -1 1 -1v-1q2 0 11 8.5t25 31.5t39 66q0 1 1 1q6 12 9.5 17.5t5.5 7t5 1.5q5 0 5 -4l-4 -14q-17 -40 -42 -78.5t-45 -51.5
q-9 -3 -17 -3z" />
    <glyph glyph-name="n" unicode="n" horiz-adv-x="307" 
d="M214 -156q-7 0 -14 3q-36 15 -36 70q0 20 8 65.5t20 87.5q8 28 8 34l-1 2q-3 0 -10.5 -5t-13.5 -12q-53 -56 -98 -185q-8 -24 -13.5 -35t-10.5 -13q-8 -3 -17 -3q-8 0 -16 3q-23 14 -23 63l1 22q7 96 31 126q5 6 10.5 8.5t14.5 2.5h7q5 0 9 -3.5t5 -8.5q-3 -12 -7 -24
q-10 -30 -15 -63q-2 -14 -3 -33t-1 -32q0 -12 1 -13q3 3 8.5 15t15.5 36q24 56 43 88.5t39 52.5q28 30 54 30h5q16 -1 23 -15q3 -7 3 -22q0 -20 -5 -48q-2 -10 -5 -23.5t-5 -23.5q-12 -61 -12 -96q0 -28 8 -31h2q13 0 38 39t44 81l6 10.5t4 4.5t4 1h2l3 -1.5t1 -1.5v-2
q-3 -10 -19.5 -46t-41 -70.5t-51.5 -34.5z" />
    <glyph glyph-name="n" unicode="&#xf1;" horiz-adv-x="307" 
d="M214 -156q-7 0 -14 3q-36 15 -36 70q0 20 8 65.5t20 87.5q8 28 8 34l-1 2q-3 0 -10.5 -5t-13.5 -12q-53 -56 -98 -185q-8 -24 -13.5 -35t-10.5 -13q-8 -3 -17 -3q-8 0 -16 3q-23 14 -23 63l1 22q7 96 31 126q5 6 10.5 8.5t14.5 2.5h7q5 0 9 -3.5t5 -8.5q-3 -12 -7 -24
q-10 -30 -15 -63q-2 -14 -3 -33t-1 -32q0 -12 1 -13q3 3 8.5 15t15.5 36q24 56 43 88.5t39 52.5q28 30 54 30h5q16 -1 23 -15q3 -7 3 -22q0 -20 -5 -48q-2 -10 -5 -23.5t-5 -23.5q-12 -61 -12 -96q0 -28 8 -31h2q13 0 38 39t44 81l6 10.5t4 4.5t4 1h2l3 -1.5t1 -1.5v-2
q-3 -10 -19.5 -46t-41 -70.5t-51.5 -34.5z" />
    <glyph glyph-name="o" unicode="o" horiz-adv-x="218" 
d="M141 -18q2 0 3 2.5t1 7.5l1 21q0 31 -8 61q-6 17 -19 30q-6 6 -11 6q-3 0 -7 -3q-21 -19 -21 -49q0 -23 12 -43q15 -19 37 -29q9 -4 12 -4zM77 -137q9 0 23 9.5t25.5 33t15.5 62.5q0 1 -2.5 2t-6.5 2q-19 4 -37 16.5t-26 25.5l-5 8q-14 -29 -17 -59q-1 -16 -1 -29
q0 -23 3.5 -37t8.5 -21t9 -9.5t6 -3.5h4zM66 -154q-12 0 -23 3q-48 20 -48 93v8q2 30 12 58q10 31 38 31l13 -1l1 1v1q-1 8 -1 15q0 18 7 34q8 18 25 27q10 4 20 4q8 0 15 -2q31 -14 39 -65l2 -41l-1 -34q27 1 51 14q13 8 18 8q3 0 3 -2q0 -1 -2.5 -3.5l-5.5 -5.5
q-13 -10 -28.5 -15t-26.5 -6q-5 -1 -8 -1l-2 -1h-2l-4 -13q-11 -45 -24 -66.5t-25.5 -29t-22.5 -9.5h-1q-10 -2 -19 -2z" />
    <glyph glyph-name="o" unicode="&#xf8;" horiz-adv-x="218" 
d="M141 -18q2 0 3 2.5t1 7.5l1 21q0 31 -8 61q-6 17 -19 30q-6 6 -11 6q-3 0 -7 -3q-21 -19 -21 -49q0 -23 12 -43q15 -19 37 -29q9 -4 12 -4zM77 -137q9 0 23 9.5t25.5 33t15.5 62.5q0 1 -2.5 2t-6.5 2q-19 4 -37 16.5t-26 25.5l-5 8q-14 -29 -17 -59q-1 -16 -1 -29
q0 -23 3.5 -37t8.5 -21t9 -9.5t6 -3.5h4zM66 -154q-12 0 -23 3q-48 20 -48 93v8q2 30 12 58q10 31 38 31l13 -1l1 1v1q-1 8 -1 15q0 18 7 34q8 18 25 27q10 4 20 4q8 0 15 -2q31 -14 39 -65l2 -41l-1 -34q27 1 51 14q13 8 18 8q3 0 3 -2q0 -1 -2.5 -3.5l-5.5 -5.5
q-13 -10 -28.5 -15t-26.5 -6q-5 -1 -8 -1l-2 -1h-2l-4 -13q-11 -45 -24 -66.5t-25.5 -29t-22.5 -9.5h-1q-10 -2 -19 -2z" />
    <glyph glyph-name="o" unicode="&#xf6;" horiz-adv-x="218" 
d="M141 -18q2 0 3 2.5t1 7.5l1 21q0 31 -8 61q-6 17 -19 30q-6 6 -11 6q-3 0 -7 -3q-21 -19 -21 -49q0 -23 12 -43q15 -19 37 -29q9 -4 12 -4zM77 -137q9 0 23 9.5t25.5 33t15.5 62.5q0 1 -2.5 2t-6.5 2q-19 4 -37 16.5t-26 25.5l-5 8q-14 -29 -17 -59q-1 -16 -1 -29
q0 -23 3.5 -37t8.5 -21t9 -9.5t6 -3.5h4zM66 -154q-12 0 -23 3q-48 20 -48 93v8q2 30 12 58q10 31 38 31l13 -1l1 1v1q-1 8 -1 15q0 18 7 34q8 18 25 27q10 4 20 4q8 0 15 -2q31 -14 39 -65l2 -41l-1 -34q27 1 51 14q13 8 18 8q3 0 3 -2q0 -1 -2.5 -3.5l-5.5 -5.5
q-13 -10 -28.5 -15t-26.5 -6q-5 -1 -8 -1l-2 -1h-2l-4 -13q-11 -45 -24 -66.5t-25.5 -29t-22.5 -9.5h-1q-10 -2 -19 -2z" />
    <glyph glyph-name="o" unicode="&#xf5;" horiz-adv-x="218" 
d="M141 -18q2 0 3 2.5t1 7.5l1 21q0 31 -8 61q-6 17 -19 30q-6 6 -11 6q-3 0 -7 -3q-21 -19 -21 -49q0 -23 12 -43q15 -19 37 -29q9 -4 12 -4zM77 -137q9 0 23 9.5t25.5 33t15.5 62.5q0 1 -2.5 2t-6.5 2q-19 4 -37 16.5t-26 25.5l-5 8q-14 -29 -17 -59q-1 -16 -1 -29
q0 -23 3.5 -37t8.5 -21t9 -9.5t6 -3.5h4zM66 -154q-12 0 -23 3q-48 20 -48 93v8q2 30 12 58q10 31 38 31l13 -1l1 1v1q-1 8 -1 15q0 18 7 34q8 18 25 27q10 4 20 4q8 0 15 -2q31 -14 39 -65l2 -41l-1 -34q27 1 51 14q13 8 18 8q3 0 3 -2q0 -1 -2.5 -3.5l-5.5 -5.5
q-13 -10 -28.5 -15t-26.5 -6q-5 -1 -8 -1l-2 -1h-2l-4 -13q-11 -45 -24 -66.5t-25.5 -29t-22.5 -9.5h-1q-10 -2 -19 -2z" />
    <glyph glyph-name="o" unicode="&#xf4;" horiz-adv-x="218" 
d="M141 -18q2 0 3 2.5t1 7.5l1 21q0 31 -8 61q-6 17 -19 30q-6 6 -11 6q-3 0 -7 -3q-21 -19 -21 -49q0 -23 12 -43q15 -19 37 -29q9 -4 12 -4zM77 -137q9 0 23 9.5t25.5 33t15.5 62.5q0 1 -2.5 2t-6.5 2q-19 4 -37 16.5t-26 25.5l-5 8q-14 -29 -17 -59q-1 -16 -1 -29
q0 -23 3.5 -37t8.5 -21t9 -9.5t6 -3.5h4zM66 -154q-12 0 -23 3q-48 20 -48 93v8q2 30 12 58q10 31 38 31l13 -1l1 1v1q-1 8 -1 15q0 18 7 34q8 18 25 27q10 4 20 4q8 0 15 -2q31 -14 39 -65l2 -41l-1 -34q27 1 51 14q13 8 18 8q3 0 3 -2q0 -1 -2.5 -3.5l-5.5 -5.5
q-13 -10 -28.5 -15t-26.5 -6q-5 -1 -8 -1l-2 -1h-2l-4 -13q-11 -45 -24 -66.5t-25.5 -29t-22.5 -9.5h-1q-10 -2 -19 -2z" />
    <glyph glyph-name="o" unicode="&#xf3;" horiz-adv-x="218" 
d="M141 -18q2 0 3 2.5t1 7.5l1 21q0 31 -8 61q-6 17 -19 30q-6 6 -11 6q-3 0 -7 -3q-21 -19 -21 -49q0 -23 12 -43q15 -19 37 -29q9 -4 12 -4zM77 -137q9 0 23 9.5t25.5 33t15.5 62.5q0 1 -2.5 2t-6.5 2q-19 4 -37 16.5t-26 25.5l-5 8q-14 -29 -17 -59q-1 -16 -1 -29
q0 -23 3.5 -37t8.5 -21t9 -9.5t6 -3.5h4zM66 -154q-12 0 -23 3q-48 20 -48 93v8q2 30 12 58q10 31 38 31l13 -1l1 1v1q-1 8 -1 15q0 18 7 34q8 18 25 27q10 4 20 4q8 0 15 -2q31 -14 39 -65l2 -41l-1 -34q27 1 51 14q13 8 18 8q3 0 3 -2q0 -1 -2.5 -3.5l-5.5 -5.5
q-13 -10 -28.5 -15t-26.5 -6q-5 -1 -8 -1l-2 -1h-2l-4 -13q-11 -45 -24 -66.5t-25.5 -29t-22.5 -9.5h-1q-10 -2 -19 -2z" />
    <glyph glyph-name="o" unicode="&#xf2;" horiz-adv-x="218" 
d="M141 -18q2 0 3 2.5t1 7.5l1 21q0 31 -8 61q-6 17 -19 30q-6 6 -11 6q-3 0 -7 -3q-21 -19 -21 -49q0 -23 12 -43q15 -19 37 -29q9 -4 12 -4zM77 -137q9 0 23 9.5t25.5 33t15.5 62.5q0 1 -2.5 2t-6.5 2q-19 4 -37 16.5t-26 25.5l-5 8q-14 -29 -17 -59q-1 -16 -1 -29
q0 -23 3.5 -37t8.5 -21t9 -9.5t6 -3.5h4zM66 -154q-12 0 -23 3q-48 20 -48 93v8q2 30 12 58q10 31 38 31l13 -1l1 1v1q-1 8 -1 15q0 18 7 34q8 18 25 27q10 4 20 4q8 0 15 -2q31 -14 39 -65l2 -41l-1 -34q27 1 51 14q13 8 18 8q3 0 3 -2q0 -1 -2.5 -3.5l-5.5 -5.5
q-13 -10 -28.5 -15t-26.5 -6q-5 -1 -8 -1l-2 -1h-2l-4 -13q-11 -45 -24 -66.5t-25.5 -29t-22.5 -9.5h-1q-10 -2 -19 -2z" />
    <glyph glyph-name="p" unicode="p" horiz-adv-x="322" 
d="M141 -174l5 4q6 7 12.5 24.5t11.5 40.5l2 12v1.5t-1 0.5q-2 0 -8 -3.5t-11.5 -8t-9.5 -8.5q-15 -15 -15 -35l1 -9q1 -4 3.5 -8t5.5 -7.5t4 -3.5zM8 -594q-7 0 -10.5 1t-5 3t-1.5 5q-5 20 -7.5 78t-2.5 125q0 63 2 118q4 93 10.5 163.5t23.5 187.5q1 12 4 23q6 10 25 10
q7 0 10 -0.5t6 -3.5t4.5 -6.5t1.5 -11.5q0 -19 -8 -73q-11 -77 -18 -161q-5 -57 -5 -73q0 -6 1 -6l5 24q18 93 44.5 171t52.5 114q11 16 20.5 22t22.5 6q51 0 51 -100v-11q0 -42 -5 -83l3 -1q8 0 35 11.5t54 44.5q2 2 4 5q8 12 13 12q2 0 3 -2l1 -2q0 -4 -4.5 -12.5
t-11.5 -17.5q-32 -34 -58.5 -42.5t-36.5 -8.5h-4q-7 -38 -14.5 -58.5t-18.5 -31.5q-20 -20 -44 -20l-9 1q-36 6 -36 42q0 48 58 72q3 1 6.5 2t5.5 3q2 4 2 8q1 1 1 3q11 87 11 130q0 31 -6 39q-1 3 -4 3t-12 -9q-36 -38 -74 -166q-15 -51 -25.5 -104.5t-24.5 -142.5
q-15 -90 -18 -182q-1 -41 -6 -82q-1 -2 -1 -4q-1 -5 -2.5 -8.5t-7.5 -3.5z" />
    <glyph glyph-name="q" unicode="q" horiz-adv-x="276" 
d="M170 -594q4 3 7 8q21 38 27 81q3 36 3 73l-1 40q-5 56 -26 108q-10 21 -24 39l-2 2q-1 0 -2 -5v-1q-2 -17 -4 -61.5t-2 -84.5q0 -73 2.5 -111t9.5 -61q3 -12 7 -19.5t5 -7.5zM59 -123q3 0 10 9q11 14 22.5 37.5t28.5 65.5q5 14 5 29q0 14 -2.5 26t-6.5 19
q-7 12 -13.5 20.5t-10.5 8.5h-1l-7 -8q-24 -34 -33 -105l-1 -24q0 -23 2 -47t5 -30zM165 -618q-7 0 -13 1q-42 16 -55 129q-1 10 -1.5 36t-0.5 56t0.5 58.5t1.5 44.5q7 96 25 210l4 32q-1 0 -7 -13q-14 -35 -35 -67q-11 -16 -31 -18h-4q-21 0 -31.5 14.5t-15 34t-5.5 36.5
v13q0 60 24 115q8 19 24 37t37 18q8 0 18 -5q9 -4 17 -13t14 -19t9 -17q1 -3 2 -5q0 -1 1 -2v-1q4 12 7 23q3 14 9 26q4 5 11 7.5t15 2.5q14 0 22 -9l1 -3l-2 -7q-12 -46 -19 -93q-6 -33 -12.5 -75t-11 -75t-4.5 -37v-4l5 3q27 24 51 51q39 51 63 109q4 10 6.5 14.5t4.5 6
t5 1.5t4 -0.5t1 -2.5q-4 -24 -15 -47q-31 -81 -110 -144q-10 -8 -14 -12.5t-4 -6.5v-1q0 -3 11 -15q39 -40 54 -117q8 -41 8 -82l-1 -22q-5 -145 -51 -165q-6 -1 -12 -1z" />
    <glyph glyph-name="r" unicode="r" horiz-adv-x="243" 
d="M32 153q2 0 2.5 1t0.5 3v9.5t-1 16.5q-2 35 -11.5 61t-23.5 33l-7 2q-9 0 -19 -15q-15 -19 -15 -42v-4q1 -42 60 -61zM153 -171q-16 0 -30 14q-17 18 -22.5 43.5t-5.5 54.5q0 32 3 63q2 23 3 42v11q0 14 -3 28t-15 22q-3 2 -9 4.5t-12 4t-8 1.5h-1q-1 -1 -1.5 -6
t-1.5 -10q-1 -4 -1 -7q-13 -59 -23.5 -83.5t-15.5 -24.5q-3 0 -4 10q0 13 9 37q4 11 8 30.5t6.5 37t2.5 20.5v1q-2 1 -3.5 1.5t-3.5 0.5q-27 4 -55 18t-41 39q-6 15 -6 30q0 19 9 37q8 17 24 30.5t35 13.5q8 0 16 -3q14 -6 22.5 -18t13.5 -26q9 -34 11 -70v-23
q0 -2 1.5 -3.5t6 -3t14.5 -3.5q28 -6 42.5 -15t22.5 -23q5 -8 7 -18t2 -28q0 -26 -4 -81l-4 -60v-4q0 -30 8 -46t16 -16l4 1q17 12 39.5 50.5t39.5 82.5q2 6 5 10.5t7 4.5h2q3 -1 3 -5q0 -3 -1 -7t-2 -6q0 -1 -1 -2v-1l-4 -13q-20 -58 -58 -109q-21 -28 -47 -28z" />
    <glyph glyph-name="s" unicode="s" horiz-adv-x="164" 
d="M65 -101q0 -1 -1 -1q-4 -2 -14 -6q-15 -8 -35 -24t-31 -42q-15 -32 -11 -64q5 -39 33 -66q18 -17 36 -17q10 0 20 5q29 14 42.5 41.5t9.5 59.5q-4 37 -15.5 62.5t-22.5 38.5q-5 6 -7 10l-2 2zM42 4q7 4 12 10q14 12 25.5 28.5t11.5 35.5v5q-1 9 -6.5 15.5t-12.5 6.5
q-4 0 -8 -2q-16 -9 -24.5 -29t-5.5 -40v-5q2 -9 4.5 -17t3.5 -8zM49 -343q-14 0 -28 4q-33 9 -49.5 35t-20.5 56q-4 36 7 67q23 54 83 83l16 8q-6 10 -15 19q-33 39 -45.5 60.5t-14.5 45.5q-5 38 22 65q23 24 57 24h7q42 -4 46 -34q2 -14 -5 -32q-16 -37 -49 -60
q-6 -3 -10 -8q0 -2 7.5 -12t16.5 -21.5t17 -20.5t10 -9q3 0 17.5 11.5t37.5 40.5l1 1q7 9 12.5 14.5t8.5 5.5q2 0 3 -1v-1q0 -3 -9.5 -19.5t-26 -34.5t-37.5 -29l7 -9q19 -27 35 -55q12 -28 15 -57q4 -28 -2 -55l-4 -14q-15 -29 -45 -48.5t-65 -19.5z" />
    <glyph glyph-name="t" unicode="t" horiz-adv-x="158" 
d="M70 -160q-20 0 -36.5 19.5t-26.5 60.5q-7 31 -7 84q0 64 10 140q3 24 9 61t12 64q3 11 4 23v2q-28 6 -56 7l-20 1l-21 -1q-52 -6 -58 -32q-1 -4 -2 -5.5t-3 -2.5q-1 0 -3 0.5t-4 1.5l-2 4t-1 3q2 14 11 22q26 22 84 22q17 0 37 -2l41 -5q9 41 15 60t13 25q8 6 19 6t18 -6
q3 -2 3 -10q0 -11 -7 -39l-9 -37v-4q0 -2 1 -2.5t5.5 -1.5t13.5 -2q3 -1 7 -1q45 -7 68 -7q19 0 28 5t18 16q2 2 4 5q1 3 3 5t5 2l3 -1q2 -1 2 -2l-4 -7q-19 -33 -65 -33q-26 0 -64 5q-3 1 -6 1h-3q-10 2 -19 2q-2 -3 -7 -31t-11 -62.5t-9 -57.5q-7 -52 -7 -106v-21
q0 -49 2 -70.5t7 -39.5q10 -28 23 -28q18 0 37.5 37t32.5 75q4 10 7 14t6 4h2q2 -1 2 -5q0 -7 -6 -26q-17 -63 -43.5 -96t-52.5 -33z" />
    <glyph glyph-name="u" unicode="u" horiz-adv-x="276" 
d="M48 -156q-14 0 -23.5 11.5t-13.5 26.5q-8 31 -8 63v12q2 52 14 102q3 18 6 28t6.5 14.5t8.5 6.5q7 2 14 2t14 -2q9 -3 9 -13l-8 -32q-9 -38 -14 -83t-5 -77t6 -38q4 0 12.5 9.5t16.5 21.5q28 41 50 86q10 19 15 29.5t7.5 19t6.5 22.5q1 2 1 3q6 24 10.5 34.5t9 13.5
t11.5 4h8q9 0 16 -3t8 -8q-1 -9 -4 -17q-20 -60 -29 -122q-2 -21 -2 -40q0 -22 2.5 -36t7.5 -15q10 0 29 26.5t41 76.5q5 12 8.5 18.5t5.5 9t5 2.5h1q2 0 3 -1t1 -4q0 -4 -4 -15q-8 -21 -22.5 -51t-33.5 -54t-41 -24q-20 0 -31.5 13t-15.5 32t-4 35v5v16.5t-1 6.5
q-1 -1 -4.5 -7.5t-8.5 -15.5q-39 -67 -61 -85q-11 -7 -20 -7z" />
    <glyph glyph-name="u" unicode="&#xfc;" horiz-adv-x="276" 
d="M48 -156q-14 0 -23.5 11.5t-13.5 26.5q-8 31 -8 63v12q2 52 14 102q3 18 6 28t6.5 14.5t8.5 6.5q7 2 14 2t14 -2q9 -3 9 -13l-8 -32q-9 -38 -14 -83t-5 -77t6 -38q4 0 12.5 9.5t16.5 21.5q28 41 50 86q10 19 15 29.5t7.5 19t6.5 22.5q1 2 1 3q6 24 10.5 34.5t9 13.5
t11.5 4h8q9 0 16 -3t8 -8q-1 -9 -4 -17q-20 -60 -29 -122q-2 -21 -2 -40q0 -22 2.5 -36t7.5 -15q10 0 29 26.5t41 76.5q5 12 8.5 18.5t5.5 9t5 2.5h1q2 0 3 -1t1 -4q0 -4 -4 -15q-8 -21 -22.5 -51t-33.5 -54t-41 -24q-20 0 -31.5 13t-15.5 32t-4 35v5v16.5t-1 6.5
q-1 -1 -4.5 -7.5t-8.5 -15.5q-39 -67 -61 -85q-11 -7 -20 -7z" />
    <glyph glyph-name="u" unicode="&#xfb;" horiz-adv-x="276" 
d="M48 -156q-14 0 -23.5 11.5t-13.5 26.5q-8 31 -8 63v12q2 52 14 102q3 18 6 28t6.5 14.5t8.5 6.5q7 2 14 2t14 -2q9 -3 9 -13l-8 -32q-9 -38 -14 -83t-5 -77t6 -38q4 0 12.5 9.5t16.5 21.5q28 41 50 86q10 19 15 29.5t7.5 19t6.5 22.5q1 2 1 3q6 24 10.5 34.5t9 13.5
t11.5 4h8q9 0 16 -3t8 -8q-1 -9 -4 -17q-20 -60 -29 -122q-2 -21 -2 -40q0 -22 2.5 -36t7.5 -15q10 0 29 26.5t41 76.5q5 12 8.5 18.5t5.5 9t5 2.5h1q2 0 3 -1t1 -4q0 -4 -4 -15q-8 -21 -22.5 -51t-33.5 -54t-41 -24q-20 0 -31.5 13t-15.5 32t-4 35v5v16.5t-1 6.5
q-1 -1 -4.5 -7.5t-8.5 -15.5q-39 -67 -61 -85q-11 -7 -20 -7z" />
    <glyph glyph-name="u" unicode="&#xfa;" horiz-adv-x="276" 
d="M48 -156q-14 0 -23.5 11.5t-13.5 26.5q-8 31 -8 63v12q2 52 14 102q3 18 6 28t6.5 14.5t8.5 6.5q7 2 14 2t14 -2q9 -3 9 -13l-8 -32q-9 -38 -14 -83t-5 -77t6 -38q4 0 12.5 9.5t16.5 21.5q28 41 50 86q10 19 15 29.5t7.5 19t6.5 22.5q1 2 1 3q6 24 10.5 34.5t9 13.5
t11.5 4h8q9 0 16 -3t8 -8q-1 -9 -4 -17q-20 -60 -29 -122q-2 -21 -2 -40q0 -22 2.5 -36t7.5 -15q10 0 29 26.5t41 76.5q5 12 8.5 18.5t5.5 9t5 2.5h1q2 0 3 -1t1 -4q0 -4 -4 -15q-8 -21 -22.5 -51t-33.5 -54t-41 -24q-20 0 -31.5 13t-15.5 32t-4 35v5v16.5t-1 6.5
q-1 -1 -4.5 -7.5t-8.5 -15.5q-39 -67 -61 -85q-11 -7 -20 -7z" />
    <glyph glyph-name="u" unicode="&#xf9;" horiz-adv-x="276" 
d="M48 -156q-14 0 -23.5 11.5t-13.5 26.5q-8 31 -8 63v12q2 52 14 102q3 18 6 28t6.5 14.5t8.5 6.5q7 2 14 2t14 -2q9 -3 9 -13l-8 -32q-9 -38 -14 -83t-5 -77t6 -38q4 0 12.5 9.5t16.5 21.5q28 41 50 86q10 19 15 29.5t7.5 19t6.5 22.5q1 2 1 3q6 24 10.5 34.5t9 13.5
t11.5 4h8q9 0 16 -3t8 -8q-1 -9 -4 -17q-20 -60 -29 -122q-2 -21 -2 -40q0 -22 2.5 -36t7.5 -15q10 0 29 26.5t41 76.5q5 12 8.5 18.5t5.5 9t5 2.5h1q2 0 3 -1t1 -4q0 -4 -4 -15q-8 -21 -22.5 -51t-33.5 -54t-41 -24q-20 0 -31.5 13t-15.5 32t-4 35v5v16.5t-1 6.5
q-1 -1 -4.5 -7.5t-8.5 -15.5q-39 -67 -61 -85q-11 -7 -20 -7z" />
    <glyph glyph-name="v" unicode="v" horiz-adv-x="239" 
d="M158 -15q3 5 4 11q0 2 1 5l4 36q2 13 2 25q0 11 -1 21q-1 11 -2 15t-3 4h-1q-12 -6 -18 -29.5t-6 -43.5q0 -15 3 -22q2 -4 5.5 -9t7 -9t4.5 -4zM75 -153q-36 0 -59 37q-16 38 -16 79v10q1 34 8 69.5t15 44.5q10 5 20 5l7 -1q17 -2 17 -18q0 -7 -2 -17q-1 -5 -2 -17
q-3 -17 -5.5 -37.5t-2.5 -31.5v-17q0 -48 7.5 -67.5t19.5 -19.5q15 0 31.5 21t28 45t11.5 35v1q0 1 -2 2.5t-5 3.5q-18 10 -25.5 26.5t-7.5 34.5q0 14 3 27q11 42 32 56q8 4 14 4q20 0 29 -23q4 -17 4 -35l-1 -17q-3 -27 -10 -55l-3 -15q0 -3 7 -3q8 0 23 5t30 14q12 7 16 7
l2 -1q0 -3 -9 -9q-13 -11 -31.5 -19t-32.5 -8l-6 1q-1 0 -3.5 -3.5t-5.5 -12.5q-9 -26 -24.5 -51.5t-39.5 -40.5q-16 -9 -32 -9z" />
    <glyph glyph-name="w" unicode="w" horiz-adv-x="375" 
d="M306 3q3 6 4 12q1 4 2 7q2 11 5.5 35t3.5 42q0 17 -5 19q-1 0 -2 -0.5t-2 -1.5q-5 -3 -9.5 -12.5t-8 -19.5t-4.5 -15q-2 -9 -2 -18q0 -18 7 -35q2 -5 5.5 -9t4.5 -4h1zM215 -154q-14 0 -28 10q-18 13 -28 34t-14 42l-2 14q-2 0 -5 -5.5t-7 -13.5q-34 -68 -60 -76
q-7 -3 -14 -3q-9 0 -18 4q-20 10 -31.5 43.5t-11.5 78.5q0 18 2 36q4 46 10 65.5t18 23.5l10 2q8 0 16 -5q3 -3 3 -10t-3 -21q-9 -49 -9 -99q0 -57 11 -90q3 -10 7 -10q2 0 5 1q19 15 31 34q19 32 34 66q10 19 10 40q1 30 10 44q2 6 7 9t11 3h3q5 -1 7 -1.5t4 -3.5
q1 -2 2 -3t1 -4v-9t1 -17v-29q1 -41 7 -74.5t15 -46.5q4 -5 6.5 -7.5t4.5 -2.5q3 0 7 2q37 22 67 103l6 16q-18 13 -25.5 27.5t-7.5 41.5q0 33 14.5 56.5t33.5 23.5h3q10 -1 14 -13.5t4 -30.5q0 -23 -4.5 -49t-6.5 -40q-2 -8 -2 -9q11 -5 23 -5q14 0 28 7q10 6 15 6
q3 0 4 -2v-1q0 -5 -13 -13q-18 -9 -34 -9q-10 0 -17.5 2t-10.5 3h-1l-5 -15q-16 -45 -43 -83q-10 -15 -24 -26t-30 -11z" />
    <glyph glyph-name="x" unicode="x" horiz-adv-x="219" 
d="M114 -151l-7 1q-22 3 -38 19t-26 35l-7 11h-1q-1 0 -4 -4q-10 -12 -21.5 -24.5t-20.5 -21.5t-11 -10l-5 -1q-3 0 -4.5 1t-1.5 2q0 3 47 60l13 16q-14 33 -22.5 61t-11.5 63v11q0 15 5.5 27.5t22.5 12.5q6 -1 11.5 -14.5t10 -34t8.5 -39.5q6 -29 10 -40l2 -5
q11 11 38 41.5t51 57.5q13 14 19 21q8 8 12 11t6 3h1q2 0 3 -0.5t2 -1.5q0 -1 -17 -22t-61 -73l-45 -54l-1 -3q0 -4 7 -20q28 -68 45 -68h1q21 8 47 42.5t42 61.5q2 4 4 7q7 12 10 17t6 5l3 -1q1 0 1.5 -1t0.5 -2q0 -3 -2.5 -9.5t-9.5 -19.5q-7 -15 -25 -42.5t-41.5 -51.5
t-45.5 -24z" />
    <glyph glyph-name="y" unicode="y" horiz-adv-x="319" 
d="M48 -551q9 0 19 5q21 14 34 39t20 49q12 40 20 82l7.5 47.5t7.5 54t3 31.5v2q-12 -6 -22 -14q-134 -90 -149 -163q-4 -19 -4 -38q0 -14 2 -28q5 -23 22 -45t40 -22zM53 -574q-20 0 -39 8q-46 25 -54 77l-2 23q0 49 25.5 89t63 72.5t75.5 57.5q15 10 26 17q13 10 14 10
q1 2 4 25.5t7 57t7 66.5t4 53l2 41l1 5l-1 4l-12 -22q-23 -45 -50.5 -87.5t-43.5 -57.5q-13 -14 -32 -16h-4q-44 0 -49 67l-1 17q0 19 4 49q6 47 18 92q8 26 24 30q5 1 10 1q9 0 17 -4q5 -3 5 -11t-5 -22q-11 -40 -17 -82q-6 -44 -6 -76q0 -36 7 -40q2 0 7.5 4.5t12.5 11
t12 12.5q28 31 74 117q7 14 16.5 33.5t16.5 35t7 17.5q0 3 2 6q2 4 7.5 6t11.5 2h4q5 -1 9.5 -4.5t6.5 -9.5q1 -7 1 -26q0 -32 -3.5 -87.5t-9.5 -109.5l-5 -46q61 62 96 144q5 11 7.5 16t4.5 6.5t5 1.5q1 0 2 -1t1.5 -2t0.5 -2v-2v-1q-6 -27 -20 -53q-31 -62 -79 -113
l-22 -21q-1 -5 -1 -9q-10 -87 -16.5 -133.5t-16.5 -84.5q-12 -49 -25.5 -77t-34.5 -47q-31 -28 -70 -28z" />
    <glyph glyph-name="y" unicode="&#xff;" horiz-adv-x="319" 
d="M48 -551q9 0 19 5q21 14 34 39t20 49q12 40 20 82l7.5 47.5t7.5 54t3 31.5v2q-12 -6 -22 -14q-134 -90 -149 -163q-4 -19 -4 -38q0 -14 2 -28q5 -23 22 -45t40 -22zM53 -574q-20 0 -39 8q-46 25 -54 77l-2 23q0 49 25.5 89t63 72.5t75.5 57.5q15 10 26 17q13 10 14 10
q1 2 4 25.5t7 57t7 66.5t4 53l2 41l1 5l-1 4l-12 -22q-23 -45 -50.5 -87.5t-43.5 -57.5q-13 -14 -32 -16h-4q-44 0 -49 67l-1 17q0 19 4 49q6 47 18 92q8 26 24 30q5 1 10 1q9 0 17 -4q5 -3 5 -11t-5 -22q-11 -40 -17 -82q-6 -44 -6 -76q0 -36 7 -40q2 0 7.5 4.5t12.5 11
t12 12.5q28 31 74 117q7 14 16.5 33.5t16.5 35t7 17.5q0 3 2 6q2 4 7.5 6t11.5 2h4q5 -1 9.5 -4.5t6.5 -9.5q1 -7 1 -26q0 -32 -3.5 -87.5t-9.5 -109.5l-5 -46q61 62 96 144q5 11 7.5 16t4.5 6.5t5 1.5q1 0 2 -1t1.5 -2t0.5 -2v-2v-1q-6 -27 -20 -53q-31 -62 -79 -113
l-22 -21q-1 -5 -1 -9q-10 -87 -16.5 -133.5t-16.5 -84.5q-12 -49 -25.5 -77t-34.5 -47q-31 -28 -70 -28z" />
    <glyph glyph-name="y" unicode="&#xfd;" horiz-adv-x="319" 
d="M48 -551q9 0 19 5q21 14 34 39t20 49q12 40 20 82l7.5 47.5t7.5 54t3 31.5v2q-12 -6 -22 -14q-134 -90 -149 -163q-4 -19 -4 -38q0 -14 2 -28q5 -23 22 -45t40 -22zM53 -574q-20 0 -39 8q-46 25 -54 77l-2 23q0 49 25.5 89t63 72.5t75.5 57.5q15 10 26 17q13 10 14 10
q1 2 4 25.5t7 57t7 66.5t4 53l2 41l1 5l-1 4l-12 -22q-23 -45 -50.5 -87.5t-43.5 -57.5q-13 -14 -32 -16h-4q-44 0 -49 67l-1 17q0 19 4 49q6 47 18 92q8 26 24 30q5 1 10 1q9 0 17 -4q5 -3 5 -11t-5 -22q-11 -40 -17 -82q-6 -44 -6 -76q0 -36 7 -40q2 0 7.5 4.5t12.5 11
t12 12.5q28 31 74 117q7 14 16.5 33.5t16.5 35t7 17.5q0 3 2 6q2 4 7.5 6t11.5 2h4q5 -1 9.5 -4.5t6.5 -9.5q1 -7 1 -26q0 -32 -3.5 -87.5t-9.5 -109.5l-5 -46q61 62 96 144q5 11 7.5 16t4.5 6.5t5 1.5q1 0 2 -1t1.5 -2t0.5 -2v-2v-1q-6 -27 -20 -53q-31 -62 -79 -113
l-22 -21q-1 -5 -1 -9q-10 -87 -16.5 -133.5t-16.5 -84.5q-12 -49 -25.5 -77t-34.5 -47q-31 -28 -70 -28z" />
    <glyph glyph-name="z" unicode="z" horiz-adv-x="259" 
d="M-11 -571q17 0 35 7q60 28 87 84.5t34 126.5q3 27 3 55q0 27 -3 54q-2 17 -5.5 35t-7 30.5t-5.5 13.5q-1 0 -11.5 -8.5t-25 -21t-29.5 -25.5q-42 -37 -79 -81q-31 -37 -53.5 -86t-22.5 -98v-12q3 -33 27.5 -53.5t55.5 -20.5zM-10 -592l-12 1q-71 9 -90 77q-2 11 -2 25
q0 71 57 164q45 67 152 155l23 19l5 5q-2 6 -4 11t-5.5 13t-8.5 24q-9 23 -13 36t-4 23v4q0 10 5.5 20t22.5 29q50 58 50 78v4q0 9 -6 9h-5q-31 -6 -75 -33t-59 -63q-7 -22 -12 -22l-2 1q-5 2 -5 10q0 6 4 15q26 48 61 69.5t67 30.5q13 4 25 4q13 0 21 -4q12 -8 14 -23
q0 -11 -7.5 -29.5t-19.5 -36.5l-6 -9q-16 -24 -22.5 -35t-6.5 -19t5 -19q0 -1 1 -3q3 -10 8 -22.5t9 -21.5t5 -10q3 1 19.5 16t36.5 35.5t33 39.5q11 15 16.5 19.5t7.5 4.5t3 -0.5t2 -1.5v-1q0 -5 -17.5 -28t-38.5 -47q-26 -28 -55 -52v-2q0 -3 4 -16q22 -74 22 -150l-1 -34
q-3 -62 -25.5 -120.5t-71.5 -98.5q-48 -41 -105 -41z" />
    <glyph glyph-name="uni00A0" unicode="&#xa0;" horiz-adv-x="468" 
 />
    </font>
</defs>
</svg>
