<svg width="20" height="20" viewBox="0 0 20 20" fill="none" xmlns="http://www.w3.org/2000/svg">
<path d="M17.0499 2.91006C16.1331 1.98399 15.0411 1.24973 13.8375 0.750111C12.634 0.250494 11.343 -0.00448012 10.0399 5.95696e-05C4.5799 5.95696e-05 0.1299 4.45006 0.1299 9.91006C0.1299 11.6601 0.5899 13.3601 1.4499 14.8601L0.0499001 20.0001L5.2999 18.6201C6.7499 19.4101 8.3799 19.8301 10.0399 19.8301C15.4999 19.8301 19.9499 15.3801 19.9499 9.92006C19.9499 7.27006 18.9199 4.78006 17.0499 2.91006ZM10.0399 18.1501C8.5599 18.1501 7.1099 17.7501 5.8399 17.0001L5.5399 16.8201L2.4199 17.6401L3.2499 14.6001L3.0499 14.2901C2.22765 12.977 1.79104 11.4593 1.7899 9.91006C1.7899 5.37006 5.4899 1.67006 10.0299 1.67006C12.2299 1.67006 14.2999 2.53006 15.8499 4.09006C16.6174 4.85402 17.2256 5.76272 17.6393 6.76348C18.053 7.76425 18.2639 8.83717 18.2599 9.92006C18.2799 14.4601 14.5799 18.1501 10.0399 18.1501ZM14.5599 11.9901C14.3099 11.8701 13.0899 11.2701 12.8699 11.1801C12.6399 11.1001 12.4799 11.0601 12.3099 11.3001C12.1399 11.5501 11.6699 12.1101 11.5299 12.2701C11.3899 12.4401 11.2399 12.4601 10.9899 12.3301C10.7399 12.2101 9.9399 11.9401 8.9999 11.1001C8.2599 10.4401 7.7699 9.63006 7.6199 9.38006C7.4799 9.13006 7.5999 9.00006 7.7299 8.87006C7.8399 8.76006 7.9799 8.58006 8.0999 8.44006C8.2199 8.30006 8.2699 8.19006 8.3499 8.03006C8.4299 7.86006 8.3899 7.72006 8.3299 7.60006C8.2699 7.48006 7.7699 6.26006 7.5699 5.76006C7.3699 5.28006 7.1599 5.34006 7.0099 5.33006H6.5299C6.3599 5.33006 6.0999 5.39006 5.8699 5.64006C5.6499 5.89006 5.0099 6.49006 5.0099 7.71006C5.0099 8.93006 5.8999 10.1101 6.0199 10.2701C6.1399 10.4401 7.7699 12.9401 10.2499 14.0101C10.8399 14.2701 11.2999 14.4201 11.6599 14.5301C12.2499 14.7201 12.7899 14.6901 13.2199 14.6301C13.6999 14.5601 14.6899 14.0301 14.8899 13.4501C15.0999 12.8701 15.0999 12.3801 15.0299 12.2701C14.9599 12.1601 14.8099 12.1101 14.5599 11.9901Z" fill="black"/>
</svg>
