<svg width="27" height="28" viewBox="0 0 27 28" fill="none" xmlns="http://www.w3.org/2000/svg">
<path d="M22.6135 4.56888C21.394 3.33701 19.9414 2.3603 18.3404 1.69571C16.7394 1.03111 15.0222 0.691947 13.2888 0.697986C6.02583 0.697986 0.106417 6.6174 0.106417 13.8803C0.106417 16.2082 0.718311 18.4695 1.86229 20.4648L0 27.3021L6.98358 25.4664C8.91238 26.5173 11.0806 27.076 13.2888 27.076C20.5517 27.076 26.4711 21.1565 26.4711 13.8936C26.4711 10.3686 25.101 7.05637 22.6135 4.56888ZM13.2888 24.8412C11.32 24.8412 9.39125 24.3091 7.70189 23.3115L7.30283 23.072L3.15259 24.1628L4.25666 20.119L3.99062 19.7066C2.89685 17.96 2.31607 15.9411 2.31456 13.8803C2.31456 7.84119 7.23632 2.91943 13.2754 2.91943C16.2019 2.91943 18.9554 4.06341 21.0172 6.13853C22.0382 7.15475 22.8472 8.36351 23.3975 9.69473C23.9478 11.026 24.2284 12.4532 24.223 13.8936C24.2496 19.9328 19.3279 24.8412 13.2888 24.8412ZM19.3013 16.6471C18.9687 16.4875 17.3459 15.6894 17.0532 15.5697C16.7473 15.4633 16.5345 15.4101 16.3083 15.7293C16.0822 16.0619 15.457 16.8068 15.2708 17.0196C15.0845 17.2457 14.885 17.2723 14.5524 17.0994C14.2199 16.9398 13.1557 16.5806 11.9053 15.4633C10.921 14.5853 10.2692 13.5079 10.0697 13.1753C9.88343 12.8428 10.043 12.6698 10.216 12.4969C10.3623 12.3506 10.5485 12.1111 10.7082 11.9249C10.8678 11.7387 10.9343 11.5924 11.0407 11.3795C11.1471 11.1534 11.0939 10.9672 11.0141 10.8075C10.9343 10.6479 10.2692 9.02507 10.0031 8.35997C9.7371 7.72147 9.45776 7.80128 9.25823 7.78798H8.61973C8.3936 7.78798 8.04774 7.86779 7.7418 8.20034C7.44915 8.5329 6.59782 9.33102 6.59782 10.9539C6.59782 12.5767 7.7817 14.1464 7.94133 14.3592C8.10095 14.5853 10.2692 17.9108 13.5681 19.3342C14.3529 19.68 14.9648 19.8795 15.4437 20.0259C16.2285 20.2786 16.9468 20.2387 17.5188 20.1589C18.1573 20.0658 19.4742 19.3608 19.7402 18.5892C20.0196 17.8177 20.0196 17.1659 19.9265 17.0196C19.8334 16.8733 19.6338 16.8068 19.3013 16.6471Z" fill="white"/>
</svg>
