<svg width="17" height="12" viewBox="0 0 17 12" fill="none" xmlns="http://www.w3.org/2000/svg">
<path d="M16.08 4.8H0.72C0.0575999 4.8 0 5.3364 0 6C0 6.6636 0.0575999 7.2 0.72 7.2H16.08C16.7424 7.2 16.8 6.6636 16.8 6C16.8 5.3364 16.7424 4.8 16.08 4.8ZM16.08 9.6H0.72C0.0575999 9.6 0 10.1364 0 10.8C0 11.4636 0.0575999 12 0.72 12H16.08C16.7424 12 16.8 11.4636 16.8 10.8C16.8 10.1364 16.7424 9.6 16.08 9.6ZM0.72 2.4H16.08C16.7424 2.4 16.8 1.8636 16.8 1.2C16.8 0.5364 16.7424 0 16.08 0H0.72C0.0575999 0 0 0.5364 0 1.2C0 1.8636 0.0575999 2.4 0.72 2.4Z" fill="#2C2C2C"/>
</svg>
